M48
;DRILL file {KiCad 4.0.6} date 07/26/17 18:54:04
;FORMAT={-:-/ absolute / metric / decimal}
FMAT,2
METRIC,TZ
T1C0.400
T2C0.762
T3C0.800
T4C0.900
T5C1.000
%
G90
G05
M71
T1
X68.58Y-118.11
X68.58Y-125.095
X69.85Y-119.38
X71.12Y-120.65
X72.39Y-111.76
X72.39Y-122.555
X89.535Y-120.65
X94.5Y-119.5
X95.25Y-116.84
X95.5Y-122.5
T2
X90.17Y-96.52
X90.17Y-106.68
X92.71Y-106.68
X95.25Y-106.68
X97.79Y-106.68
X100.33Y-96.52
X100.33Y-106.68
T3
X62.23Y-111.76
X62.23Y-119.38
X62.23Y-123.19
X62.23Y-130.81
X67.31Y-111.76
X67.31Y-119.38
X67.31Y-123.19
X67.31Y-130.81
X74.Y-100.
X74.Y-102.5
X97.79Y-116.84
X97.79Y-119.38
X97.79Y-127.
X102.87Y-116.84
X102.87Y-119.38
X102.87Y-127.
T4
X63.5Y-134.22
X63.5Y-136.76
X63.5Y-139.3
X63.5Y-141.84
X63.5Y-144.38
X63.5Y-146.92
X63.5Y-149.46
X63.5Y-152.
X63.5Y-154.54
X63.5Y-157.08
X63.5Y-159.62
X66.04Y-134.22
X66.04Y-136.76
X66.04Y-139.3
X66.04Y-141.84
X66.04Y-144.38
X66.04Y-146.92
X66.04Y-149.46
X66.04Y-152.
X66.04Y-154.54
X66.04Y-157.08
X66.04Y-159.62
X68.58Y-134.22
X68.58Y-136.76
X68.58Y-139.3
X68.58Y-141.84
X68.58Y-144.38
X68.58Y-146.92
X68.58Y-149.46
X68.58Y-152.
X68.58Y-154.54
X68.58Y-157.08
X68.58Y-159.62
X68.58Y-162.16
X69.85Y-131.445
X71.12Y-134.22
X71.12Y-136.76
X71.12Y-139.3
X71.12Y-141.84
X71.12Y-144.38
X71.12Y-146.92
X71.12Y-149.46
X71.12Y-152.
X71.12Y-154.54
X71.12Y-157.08
X71.12Y-159.62
X71.12Y-162.16
X71.12Y-164.7
X71.12Y-167.24
X72.39Y-131.445
X73.66Y-134.22
X73.66Y-136.76
X73.66Y-139.3
X73.66Y-141.84
X73.66Y-144.38
X73.66Y-146.92
X73.66Y-149.46
X73.66Y-152.
X73.66Y-154.54
X73.66Y-157.08
X73.66Y-159.62
X73.66Y-162.16
X73.66Y-164.7
X73.66Y-167.24
X74.93Y-131.445
X76.2Y-134.22
X76.2Y-136.76
X76.2Y-139.3
X76.2Y-141.84
X76.2Y-144.38
X76.2Y-146.92
X76.2Y-149.46
X76.2Y-152.
X76.2Y-154.54
X76.2Y-157.08
X76.2Y-159.62
X76.2Y-162.16
X76.2Y-164.7
X76.2Y-167.24
X78.74Y-134.22
X78.74Y-136.76
X78.74Y-139.3
X78.74Y-141.84
X78.74Y-144.38
X78.74Y-146.92
X78.74Y-149.46
X78.74Y-152.
X78.74Y-154.54
X78.74Y-157.08
X78.74Y-159.62
X78.74Y-162.16
X78.74Y-164.7
X78.74Y-167.24
X80.645Y-131.445
X81.28Y-134.22
X81.28Y-136.76
X81.28Y-139.3
X81.28Y-141.84
X81.28Y-144.38
X81.28Y-146.92
X81.28Y-149.46
X81.28Y-152.
X81.28Y-154.54
X81.28Y-157.08
X81.28Y-159.62
X81.28Y-162.16
X81.28Y-164.7
X81.28Y-167.24
X83.82Y-134.22
X83.82Y-136.76
X83.82Y-139.3
X83.82Y-141.84
X83.82Y-144.38
X83.82Y-146.92
X83.82Y-149.46
X83.82Y-152.
X83.82Y-154.54
X83.82Y-157.08
X83.82Y-159.62
X83.82Y-162.16
X83.82Y-164.7
X83.82Y-167.24
X86.36Y-131.445
X86.36Y-134.22
X86.36Y-136.76
X86.36Y-139.3
X86.36Y-141.84
X86.36Y-144.38
X86.36Y-146.92
X86.36Y-149.46
X86.36Y-152.
X86.36Y-154.54
X86.36Y-157.08
X86.36Y-159.62
X86.36Y-162.16
X86.36Y-164.7
X86.36Y-167.24
X88.9Y-134.22
X88.9Y-136.76
X88.9Y-139.3
X88.9Y-141.84
X88.9Y-144.38
X88.9Y-146.92
X88.9Y-149.46
X88.9Y-152.
X88.9Y-154.54
X88.9Y-157.08
X88.9Y-159.62
X88.9Y-162.16
X88.9Y-164.7
X88.9Y-167.24
X91.44Y-131.445
X91.44Y-134.22
X91.44Y-136.76
X91.44Y-139.3
X91.44Y-141.84
X91.44Y-144.38
X91.44Y-146.92
X91.44Y-149.46
X91.44Y-152.
X91.44Y-154.54
X91.44Y-157.08
X91.44Y-159.62
X91.44Y-162.16
X91.44Y-164.7
X91.44Y-167.24
X93.98Y-131.445
X93.98Y-134.22
X93.98Y-136.76
X93.98Y-139.3
X93.98Y-141.84
X93.98Y-144.38
X93.98Y-146.92
X93.98Y-149.46
X93.98Y-152.
X93.98Y-154.54
X93.98Y-157.08
X93.98Y-159.62
X93.98Y-162.16
X93.98Y-164.7
X93.98Y-167.24
X95.25Y-109.22
X96.52Y-131.445
X96.52Y-134.22
X96.52Y-136.76
X96.52Y-139.3
X96.52Y-141.84
X96.52Y-144.38
X96.52Y-146.92
X96.52Y-149.46
X96.52Y-152.
X96.52Y-154.54
X96.52Y-157.08
X96.52Y-159.62
X96.52Y-162.16
X96.52Y-164.7
X96.52Y-167.24
X97.79Y-109.22
X99.06Y-131.445
X99.06Y-134.22
X99.06Y-136.76
X99.06Y-139.3
X99.06Y-141.84
X99.06Y-144.38
X99.06Y-146.92
X99.06Y-149.46
X99.06Y-152.
X99.06Y-154.54
X99.06Y-157.08
X99.06Y-159.62
X99.06Y-162.16
X99.06Y-164.7
X99.06Y-167.24
X101.6Y-131.445
X101.6Y-134.22
X101.6Y-136.76
X101.6Y-139.3
X101.6Y-141.84
X101.6Y-144.38
X101.6Y-146.92
X101.6Y-149.46
X101.6Y-152.
X101.6Y-154.54
X101.6Y-157.08
X101.6Y-159.62
X101.6Y-162.16
X104.14Y-131.445
X104.14Y-134.22
X104.14Y-136.76
X104.14Y-139.3
X104.14Y-141.84
X104.14Y-144.38
X104.14Y-146.92
X104.14Y-149.46
X104.14Y-152.
X104.14Y-154.54
X104.14Y-157.08
X104.14Y-159.62
X106.68Y-134.22
X106.68Y-136.76
X106.68Y-139.3
X106.68Y-141.84
X106.68Y-144.38
X106.68Y-146.92
X106.68Y-149.46
X106.68Y-152.
X106.68Y-154.54
X106.68Y-157.08
X106.68Y-159.62
T5
X107.95Y-110.49
X107.95Y-113.03
X107.95Y-115.57
X107.95Y-123.19
X107.95Y-125.73
X107.95Y-128.27
T0
M30
