G04 #@! TF.FileFunction,Copper,L2,Bot,Signal*
%FSLAX46Y46*%
G04 Gerber Fmt 4.6, Leading zero omitted, Abs format (unit mm)*
G04 Created by KiCad (PCBNEW 4.0.6) date 07/25/17 01:39:03*
%MOMM*%
%LPD*%
G01*
G04 APERTURE LIST*
%ADD10C,0.100000*%
%ADD11C,2.000000*%
%ADD12R,1.600000X1.600000*%
%ADD13C,1.600000*%
%ADD14R,1.700000X1.700000*%
%ADD15O,1.700000X1.700000*%
%ADD16C,1.524000*%
%ADD17R,1.800000X1.800000*%
%ADD18O,1.800000X1.800000*%
%ADD19C,0.600000*%
%ADD20C,0.250000*%
G04 APERTURE END LIST*
D10*
D11*
X72820000Y-53630000D03*
X70280000Y-56170000D03*
X72820000Y-56170000D03*
X72820000Y-58710000D03*
X70280000Y-53630000D03*
X70280000Y-58710000D03*
X67740000Y-58710000D03*
X67740000Y-53630000D03*
X65200000Y-56170000D03*
X67740000Y-56170000D03*
X65200000Y-53630000D03*
X65200000Y-58710000D03*
X60120000Y-53630000D03*
X62660000Y-56170000D03*
X60120000Y-56170000D03*
X62660000Y-53630000D03*
X62660000Y-58710000D03*
X60120000Y-58710000D03*
X72820000Y-61250000D03*
X70280000Y-61250000D03*
X67740000Y-61250000D03*
X52500000Y-61250000D03*
X57580000Y-61250000D03*
X55040000Y-61250000D03*
X60120000Y-61250000D03*
X62660000Y-61250000D03*
X65200000Y-61250000D03*
X67740000Y-63790000D03*
X70280000Y-66330000D03*
X72820000Y-66330000D03*
X67740000Y-66330000D03*
X70280000Y-63790000D03*
X72820000Y-63790000D03*
X62660000Y-66330000D03*
X65200000Y-63790000D03*
X65200000Y-66330000D03*
X62660000Y-63790000D03*
X60120000Y-63790000D03*
X60120000Y-66330000D03*
X52500000Y-66330000D03*
X55040000Y-63790000D03*
X57580000Y-63790000D03*
X55040000Y-66330000D03*
X52500000Y-63790000D03*
X57580000Y-66330000D03*
X67740000Y-71410000D03*
X65200000Y-73950000D03*
X67740000Y-73950000D03*
X67740000Y-68870000D03*
X65200000Y-71410000D03*
X62660000Y-68870000D03*
X65200000Y-68870000D03*
X62660000Y-71410000D03*
X62660000Y-73950000D03*
X57580000Y-71410000D03*
X57580000Y-68870000D03*
X60120000Y-71410000D03*
X60120000Y-68870000D03*
X60120000Y-73950000D03*
X55040000Y-68870000D03*
X55040000Y-71410000D03*
X52500000Y-68870000D03*
X52500000Y-73950000D03*
X52500000Y-71410000D03*
X70280000Y-68870000D03*
X70280000Y-73950000D03*
X72820000Y-68870000D03*
X70280000Y-71410000D03*
X72820000Y-73950000D03*
X72820000Y-71410000D03*
X55040000Y-73950000D03*
X57580000Y-73950000D03*
X67740000Y-76490000D03*
X70280000Y-79030000D03*
X72820000Y-79030000D03*
X67740000Y-79030000D03*
X70280000Y-76490000D03*
X72820000Y-76490000D03*
X62660000Y-79030000D03*
X65200000Y-76490000D03*
X65200000Y-79030000D03*
X62660000Y-76490000D03*
X60120000Y-76490000D03*
X60120000Y-79030000D03*
X52500000Y-79030000D03*
X55040000Y-76490000D03*
X57580000Y-76490000D03*
X55040000Y-79030000D03*
X52500000Y-76490000D03*
X57580000Y-79030000D03*
X67740000Y-84110000D03*
X65200000Y-86650000D03*
X67740000Y-86650000D03*
X67740000Y-81570000D03*
X65200000Y-84110000D03*
X62660000Y-81570000D03*
X65200000Y-81570000D03*
X62660000Y-84110000D03*
X62660000Y-86650000D03*
X57580000Y-84110000D03*
X57580000Y-81570000D03*
X60120000Y-84110000D03*
X60120000Y-81570000D03*
X60120000Y-86650000D03*
X55040000Y-81570000D03*
X55040000Y-84110000D03*
X52500000Y-81570000D03*
X52500000Y-86650000D03*
X52500000Y-84110000D03*
X70280000Y-81570000D03*
X70280000Y-86650000D03*
X72820000Y-81570000D03*
X70280000Y-84110000D03*
X72820000Y-86650000D03*
X72820000Y-84110000D03*
X55040000Y-86650000D03*
X57580000Y-86650000D03*
X133780000Y-53630000D03*
X133780000Y-56170000D03*
X138860000Y-53630000D03*
X136320000Y-53630000D03*
X133780000Y-58710000D03*
X138860000Y-58710000D03*
X136320000Y-58710000D03*
X136320000Y-56170000D03*
X138860000Y-56170000D03*
X131240000Y-53630000D03*
X131240000Y-56170000D03*
X128700000Y-53630000D03*
X131240000Y-58710000D03*
X128700000Y-56170000D03*
X128700000Y-58710000D03*
X143940000Y-61250000D03*
X141400000Y-61250000D03*
X146480000Y-61250000D03*
X136320000Y-61250000D03*
X138860000Y-61250000D03*
X128700000Y-61250000D03*
X133780000Y-61250000D03*
X131240000Y-61250000D03*
X133780000Y-71410000D03*
X131240000Y-71410000D03*
X128700000Y-71410000D03*
X131240000Y-68870000D03*
X128700000Y-68870000D03*
X133780000Y-68870000D03*
X143940000Y-71410000D03*
X146480000Y-71410000D03*
X141400000Y-71410000D03*
X146480000Y-68870000D03*
X141400000Y-68870000D03*
X141400000Y-63790000D03*
X143940000Y-63790000D03*
X143940000Y-68870000D03*
X141400000Y-66330000D03*
X143940000Y-66330000D03*
X128700000Y-66330000D03*
X128700000Y-63790000D03*
X131240000Y-63790000D03*
X131240000Y-66330000D03*
X133780000Y-63790000D03*
X133780000Y-66330000D03*
X138860000Y-71410000D03*
X138860000Y-66330000D03*
X136320000Y-71410000D03*
X138860000Y-68870000D03*
X136320000Y-66330000D03*
X136320000Y-68870000D03*
X138860000Y-63790000D03*
X146480000Y-63790000D03*
X136320000Y-63790000D03*
X146480000Y-66330000D03*
X136320000Y-79030000D03*
X133780000Y-79030000D03*
X133780000Y-76490000D03*
X133780000Y-73950000D03*
X136320000Y-76490000D03*
X131240000Y-73950000D03*
X128700000Y-73950000D03*
X131240000Y-76490000D03*
X146480000Y-79030000D03*
X146480000Y-73950000D03*
X146480000Y-76490000D03*
X143940000Y-76490000D03*
X141400000Y-76490000D03*
X143940000Y-79030000D03*
X141400000Y-79030000D03*
X143940000Y-73950000D03*
X141400000Y-73950000D03*
X138860000Y-73950000D03*
X136320000Y-73950000D03*
X138860000Y-76490000D03*
X138860000Y-79030000D03*
X128700000Y-76490000D03*
X128700000Y-79030000D03*
X131240000Y-79030000D03*
X131240000Y-86650000D03*
X133780000Y-86650000D03*
X128700000Y-81570000D03*
X131240000Y-84110000D03*
X133780000Y-84110000D03*
X131240000Y-81570000D03*
X133780000Y-81570000D03*
X128700000Y-84110000D03*
X128700000Y-86650000D03*
X141400000Y-81570000D03*
X146480000Y-81570000D03*
X143940000Y-81570000D03*
X146480000Y-84110000D03*
X143940000Y-84110000D03*
X143940000Y-86650000D03*
X141400000Y-86650000D03*
X141400000Y-84110000D03*
X146480000Y-86650000D03*
X136320000Y-81570000D03*
X138860000Y-86650000D03*
X136320000Y-84110000D03*
X136320000Y-86650000D03*
X138860000Y-84110000D03*
X138860000Y-81570000D03*
X136320000Y-94270000D03*
X136320000Y-96810000D03*
X146480000Y-94270000D03*
X143940000Y-89190000D03*
X146480000Y-91730000D03*
X146480000Y-89190000D03*
X143940000Y-91730000D03*
X138860000Y-89190000D03*
X136320000Y-89190000D03*
X141400000Y-91730000D03*
X141400000Y-89190000D03*
X136320000Y-91730000D03*
X138860000Y-91730000D03*
X138860000Y-96810000D03*
X143940000Y-94270000D03*
X141400000Y-96810000D03*
X141400000Y-94270000D03*
X138860000Y-94270000D03*
X146480000Y-96810000D03*
X143940000Y-96810000D03*
X133780000Y-91730000D03*
X131240000Y-89190000D03*
X131240000Y-91730000D03*
X133780000Y-89190000D03*
X121080000Y-94270000D03*
X121080000Y-96810000D03*
X123620000Y-94270000D03*
X123620000Y-96810000D03*
X126160000Y-94270000D03*
X128700000Y-96810000D03*
X126160000Y-96810000D03*
X128700000Y-94270000D03*
X121080000Y-91730000D03*
X121080000Y-89190000D03*
X128700000Y-89190000D03*
X126160000Y-91730000D03*
X128700000Y-91730000D03*
X123620000Y-91730000D03*
X123620000Y-89190000D03*
X126160000Y-89190000D03*
X133780000Y-94270000D03*
X133780000Y-96810000D03*
X131240000Y-96810000D03*
X131240000Y-94270000D03*
X88060000Y-89190000D03*
X88060000Y-91730000D03*
X85520000Y-89190000D03*
X85520000Y-91730000D03*
X67740000Y-89190000D03*
X67740000Y-91730000D03*
X70280000Y-91730000D03*
X70280000Y-89190000D03*
X82980000Y-91730000D03*
X82980000Y-89190000D03*
X77900000Y-91730000D03*
X77900000Y-94270000D03*
X80440000Y-91730000D03*
X80440000Y-89190000D03*
X77900000Y-89190000D03*
X70280000Y-94270000D03*
X72820000Y-89190000D03*
X75360000Y-91730000D03*
X75360000Y-94270000D03*
X75360000Y-89190000D03*
X72820000Y-94270000D03*
X72820000Y-91730000D03*
X75360000Y-96810000D03*
X77900000Y-96810000D03*
X65200000Y-96810000D03*
X67740000Y-96810000D03*
X72820000Y-96810000D03*
X70280000Y-96810000D03*
X67740000Y-94270000D03*
X65200000Y-89190000D03*
X65200000Y-91730000D03*
X65200000Y-94270000D03*
X57580000Y-96810000D03*
X60120000Y-94270000D03*
X57580000Y-94270000D03*
X62660000Y-89190000D03*
X60120000Y-89190000D03*
X60120000Y-91730000D03*
X62660000Y-91730000D03*
X62660000Y-94270000D03*
X62660000Y-96810000D03*
X60120000Y-96810000D03*
X52500000Y-91730000D03*
X55040000Y-94270000D03*
X52500000Y-94270000D03*
X52500000Y-89190000D03*
X55040000Y-96810000D03*
X52500000Y-96810000D03*
X57580000Y-89190000D03*
X55040000Y-89190000D03*
X57580000Y-91730000D03*
X55040000Y-91730000D03*
X80440000Y-94270000D03*
X82980000Y-94270000D03*
X82980000Y-96810000D03*
X80440000Y-96810000D03*
X85520000Y-94270000D03*
X88060000Y-94270000D03*
X88060000Y-96810000D03*
X85520000Y-96810000D03*
X90600000Y-96810000D03*
X93140000Y-94270000D03*
X93140000Y-96810000D03*
X90600000Y-94270000D03*
X90600000Y-91730000D03*
X93140000Y-91730000D03*
X93140000Y-89190000D03*
X90600000Y-89190000D03*
X95680000Y-91730000D03*
X100760000Y-89190000D03*
X100760000Y-91730000D03*
X98220000Y-91730000D03*
X95680000Y-89190000D03*
X98220000Y-89190000D03*
X103300000Y-96810000D03*
X105840000Y-96810000D03*
X105840000Y-94270000D03*
X103300000Y-94270000D03*
X103300000Y-89190000D03*
X105840000Y-89190000D03*
X103300000Y-91730000D03*
X105840000Y-91730000D03*
X95680000Y-94270000D03*
X98220000Y-96810000D03*
X95680000Y-96810000D03*
X100760000Y-94270000D03*
X100760000Y-96810000D03*
X98220000Y-94270000D03*
X118540000Y-94270000D03*
X116000000Y-96810000D03*
X116000000Y-94270000D03*
X118540000Y-96810000D03*
X118540000Y-91730000D03*
X116000000Y-89190000D03*
X116000000Y-91730000D03*
X118540000Y-89190000D03*
X113460000Y-96810000D03*
X108380000Y-94270000D03*
X110920000Y-96810000D03*
X113460000Y-94270000D03*
X110920000Y-94270000D03*
X108380000Y-96810000D03*
X108380000Y-91730000D03*
X113460000Y-91730000D03*
X113460000Y-89190000D03*
X110920000Y-89190000D03*
X110920000Y-91730000D03*
X108380000Y-89190000D03*
X60120000Y-104430000D03*
X62660000Y-104430000D03*
X60120000Y-101890000D03*
X60120000Y-99350000D03*
X62660000Y-101890000D03*
X62660000Y-99350000D03*
X52500000Y-114590000D03*
X52500000Y-117130000D03*
X55040000Y-117130000D03*
X55040000Y-114590000D03*
X60120000Y-117130000D03*
X62660000Y-114590000D03*
X62660000Y-117130000D03*
X60120000Y-114590000D03*
X55040000Y-101890000D03*
X57580000Y-101890000D03*
X52500000Y-99350000D03*
X57580000Y-99350000D03*
X52500000Y-101890000D03*
X55040000Y-99350000D03*
X57580000Y-114590000D03*
X57580000Y-117130000D03*
X55040000Y-112050000D03*
X52500000Y-112050000D03*
X55040000Y-104430000D03*
X52500000Y-104430000D03*
X57580000Y-104430000D03*
X52500000Y-106970000D03*
X52500000Y-109510000D03*
X55040000Y-106970000D03*
X55040000Y-109510000D03*
X57580000Y-109510000D03*
X57580000Y-106970000D03*
X60120000Y-106970000D03*
X62660000Y-106970000D03*
X62660000Y-112050000D03*
X62660000Y-109510000D03*
X60120000Y-109510000D03*
X57580000Y-112050000D03*
X60120000Y-112050000D03*
X77900000Y-117130000D03*
X77900000Y-114590000D03*
X70280000Y-117130000D03*
X65200000Y-117130000D03*
X67740000Y-117130000D03*
X70280000Y-109510000D03*
X65200000Y-114590000D03*
X70280000Y-114590000D03*
X67740000Y-114590000D03*
X70280000Y-112050000D03*
X67740000Y-112050000D03*
X65200000Y-109510000D03*
X67740000Y-109510000D03*
X65200000Y-112050000D03*
X75360000Y-114590000D03*
X72820000Y-117130000D03*
X75360000Y-117130000D03*
X72820000Y-114590000D03*
X77900000Y-109510000D03*
X72820000Y-109510000D03*
X75360000Y-109510000D03*
X75360000Y-112050000D03*
X77900000Y-112050000D03*
X72820000Y-112050000D03*
X85520000Y-104430000D03*
X85520000Y-106970000D03*
X88060000Y-106970000D03*
X88060000Y-104430000D03*
X88060000Y-101890000D03*
X70280000Y-101890000D03*
X67740000Y-99350000D03*
X67740000Y-101890000D03*
X72820000Y-101890000D03*
X72820000Y-99350000D03*
X70280000Y-99350000D03*
X75360000Y-99350000D03*
X77900000Y-99350000D03*
X75360000Y-101890000D03*
X77900000Y-101890000D03*
X80440000Y-99350000D03*
X70280000Y-106970000D03*
X72820000Y-104430000D03*
X72820000Y-106970000D03*
X75360000Y-106970000D03*
X75360000Y-104430000D03*
X70280000Y-104430000D03*
X67740000Y-106970000D03*
X65200000Y-101890000D03*
X65200000Y-99350000D03*
X67740000Y-104430000D03*
X65200000Y-104430000D03*
X65200000Y-106970000D03*
X77900000Y-104430000D03*
X77900000Y-106970000D03*
X82980000Y-106970000D03*
X80440000Y-101890000D03*
X80440000Y-104430000D03*
X80440000Y-106970000D03*
X82980000Y-104430000D03*
X85520000Y-99350000D03*
X88060000Y-99350000D03*
X82980000Y-99350000D03*
X85520000Y-101890000D03*
X82980000Y-101890000D03*
X116000000Y-117130000D03*
X116000000Y-114590000D03*
X118540000Y-117130000D03*
X118540000Y-114590000D03*
X113460000Y-117130000D03*
X110920000Y-114590000D03*
X113460000Y-114590000D03*
X110920000Y-117130000D03*
X110920000Y-109510000D03*
X110920000Y-112050000D03*
X113460000Y-112050000D03*
X113460000Y-109510000D03*
X116000000Y-112050000D03*
X116000000Y-109510000D03*
X118540000Y-109510000D03*
X118540000Y-112050000D03*
X123620000Y-117130000D03*
X121080000Y-114590000D03*
X121080000Y-117130000D03*
X123620000Y-114590000D03*
X136320000Y-109510000D03*
X131240000Y-109510000D03*
X133780000Y-112050000D03*
X131240000Y-112050000D03*
X133780000Y-109510000D03*
X133780000Y-114590000D03*
X136320000Y-117130000D03*
X133780000Y-117130000D03*
X136320000Y-112050000D03*
X136320000Y-114590000D03*
X123620000Y-109510000D03*
X123620000Y-112050000D03*
X121080000Y-109510000D03*
X121080000Y-112050000D03*
X126160000Y-109510000D03*
X128700000Y-112050000D03*
X128700000Y-109510000D03*
X126160000Y-112050000D03*
X126160000Y-114590000D03*
X126160000Y-117130000D03*
X131240000Y-114590000D03*
X128700000Y-114590000D03*
X131240000Y-117130000D03*
X128700000Y-117130000D03*
X108380000Y-101890000D03*
X108380000Y-99350000D03*
X110920000Y-99350000D03*
X113460000Y-99350000D03*
X110920000Y-101890000D03*
X113460000Y-101890000D03*
X116000000Y-106970000D03*
X121080000Y-104430000D03*
X116000000Y-104430000D03*
X123620000Y-104430000D03*
X123620000Y-106970000D03*
X121080000Y-106970000D03*
X118540000Y-106970000D03*
X118540000Y-104430000D03*
X126160000Y-101890000D03*
X128700000Y-106970000D03*
X128700000Y-104430000D03*
X126160000Y-104430000D03*
X128700000Y-101890000D03*
X126160000Y-99350000D03*
X128700000Y-99350000D03*
X126160000Y-106970000D03*
X116000000Y-99350000D03*
X116000000Y-101890000D03*
X121080000Y-101890000D03*
X123620000Y-101890000D03*
X123620000Y-99350000D03*
X121080000Y-99350000D03*
X118540000Y-99350000D03*
X118540000Y-101890000D03*
X108380000Y-106970000D03*
X113460000Y-106970000D03*
X110920000Y-106970000D03*
X108380000Y-104430000D03*
X110920000Y-104430000D03*
X113460000Y-104430000D03*
X146480000Y-101890000D03*
X146480000Y-106970000D03*
X146480000Y-104430000D03*
X146480000Y-99350000D03*
X143940000Y-99350000D03*
X136320000Y-99350000D03*
X136320000Y-101890000D03*
X133780000Y-99350000D03*
X131240000Y-99350000D03*
X136320000Y-106970000D03*
X133780000Y-106970000D03*
X136320000Y-104430000D03*
X133780000Y-104430000D03*
X133780000Y-101890000D03*
X131240000Y-104430000D03*
X131240000Y-101890000D03*
X131240000Y-106970000D03*
X141400000Y-101890000D03*
X138860000Y-101890000D03*
X141400000Y-99350000D03*
X138860000Y-99350000D03*
X143940000Y-104430000D03*
X143940000Y-101890000D03*
X141400000Y-104430000D03*
X138860000Y-104430000D03*
X138860000Y-109510000D03*
X138860000Y-112050000D03*
X138860000Y-106970000D03*
X141400000Y-109510000D03*
X143940000Y-106970000D03*
X141400000Y-106970000D03*
X141400000Y-112050000D03*
X105840000Y-106970000D03*
X103300000Y-106970000D03*
X100760000Y-106970000D03*
X100760000Y-104430000D03*
X100760000Y-101890000D03*
X98220000Y-99350000D03*
X98220000Y-101890000D03*
X98220000Y-104430000D03*
X100760000Y-99350000D03*
X90600000Y-99350000D03*
X95680000Y-99350000D03*
X93140000Y-101890000D03*
X90600000Y-101890000D03*
X95680000Y-101890000D03*
X93140000Y-99350000D03*
X105840000Y-101890000D03*
X105840000Y-104430000D03*
X103300000Y-99350000D03*
X105840000Y-99350000D03*
X103300000Y-101890000D03*
X103300000Y-104430000D03*
X98220000Y-106970000D03*
X90600000Y-104430000D03*
X95680000Y-106970000D03*
X93140000Y-106970000D03*
X90600000Y-106970000D03*
X95680000Y-104430000D03*
X93140000Y-104430000D03*
X146480000Y-109510000D03*
X146480000Y-114590000D03*
X143940000Y-109510000D03*
X146480000Y-112050000D03*
X143940000Y-112050000D03*
X138860000Y-114590000D03*
X141400000Y-114590000D03*
X143940000Y-114590000D03*
X138860000Y-117130000D03*
X143940000Y-117130000D03*
X141400000Y-117130000D03*
X146480000Y-117130000D03*
X100760000Y-117130000D03*
X103300000Y-117130000D03*
X100760000Y-114590000D03*
X103300000Y-114590000D03*
X105840000Y-109510000D03*
X108380000Y-112050000D03*
X105840000Y-112050000D03*
X108380000Y-109510000D03*
X108380000Y-114590000D03*
X105840000Y-117130000D03*
X105840000Y-114590000D03*
X108380000Y-117130000D03*
X100760000Y-109510000D03*
X100760000Y-112050000D03*
X103300000Y-112050000D03*
X103300000Y-109510000D03*
X95680000Y-109510000D03*
X98220000Y-112050000D03*
X95680000Y-112050000D03*
X98220000Y-109510000D03*
X93140000Y-112050000D03*
X93140000Y-109510000D03*
X90600000Y-112050000D03*
X90600000Y-109510000D03*
X82980000Y-109510000D03*
X85520000Y-109510000D03*
X80440000Y-112050000D03*
X80440000Y-109510000D03*
X82980000Y-114590000D03*
X80440000Y-114590000D03*
X82980000Y-112050000D03*
X85520000Y-114590000D03*
X88060000Y-114590000D03*
X88060000Y-109510000D03*
X88060000Y-112050000D03*
X85520000Y-112050000D03*
X85520000Y-117130000D03*
X82980000Y-117130000D03*
X80440000Y-117130000D03*
X90600000Y-117130000D03*
X88060000Y-117130000D03*
X93140000Y-117130000D03*
X93140000Y-114590000D03*
X90600000Y-114590000D03*
X95680000Y-114590000D03*
X95680000Y-117130000D03*
X98220000Y-117130000D03*
X98220000Y-114590000D03*
X55040000Y-124750000D03*
X55040000Y-127290000D03*
X57580000Y-127290000D03*
X57580000Y-124750000D03*
X60120000Y-124750000D03*
X67740000Y-127290000D03*
X62660000Y-124750000D03*
X60120000Y-127290000D03*
X62660000Y-127290000D03*
X65200000Y-127290000D03*
X65200000Y-124750000D03*
X67740000Y-124750000D03*
X52500000Y-124750000D03*
X52500000Y-119670000D03*
X52500000Y-122210000D03*
X52500000Y-127290000D03*
X60120000Y-122210000D03*
X55040000Y-122210000D03*
X57580000Y-122210000D03*
X60120000Y-119670000D03*
X55040000Y-119670000D03*
X62660000Y-119670000D03*
X62660000Y-122210000D03*
X57580000Y-119670000D03*
X65200000Y-122210000D03*
X65200000Y-119670000D03*
X70280000Y-127290000D03*
X70280000Y-124750000D03*
X67740000Y-119670000D03*
X70280000Y-119670000D03*
X67740000Y-122210000D03*
X70280000Y-122210000D03*
X146480000Y-122210000D03*
X146480000Y-124750000D03*
X146480000Y-119670000D03*
X141400000Y-122210000D03*
X138860000Y-119670000D03*
X141400000Y-119670000D03*
X138860000Y-122210000D03*
X143940000Y-119670000D03*
X143940000Y-124750000D03*
X141400000Y-124750000D03*
X143940000Y-122210000D03*
X138860000Y-124750000D03*
X146480000Y-127290000D03*
X141400000Y-127290000D03*
X143940000Y-127290000D03*
X138860000Y-127290000D03*
X72820000Y-122210000D03*
X75360000Y-119670000D03*
X77900000Y-122210000D03*
X77900000Y-119670000D03*
X72820000Y-119670000D03*
X75360000Y-122210000D03*
X72820000Y-124750000D03*
X72820000Y-127290000D03*
X77900000Y-124750000D03*
X77900000Y-127290000D03*
X75360000Y-127290000D03*
X75360000Y-124750000D03*
X116000000Y-127290000D03*
X116000000Y-119670000D03*
X116000000Y-122210000D03*
X116000000Y-124750000D03*
X105840000Y-127290000D03*
X108380000Y-127290000D03*
X113460000Y-127290000D03*
X110920000Y-127290000D03*
X108380000Y-124750000D03*
X108380000Y-122210000D03*
X108380000Y-119670000D03*
X110920000Y-119670000D03*
X113460000Y-119670000D03*
X110920000Y-124750000D03*
X110920000Y-122210000D03*
X113460000Y-122210000D03*
X113460000Y-124750000D03*
X105840000Y-122210000D03*
X105840000Y-124750000D03*
X100760000Y-124750000D03*
X103300000Y-119670000D03*
X100760000Y-119670000D03*
X105840000Y-119670000D03*
X103300000Y-122210000D03*
X100760000Y-122210000D03*
X133780000Y-127290000D03*
X136320000Y-124750000D03*
X133780000Y-124750000D03*
X136320000Y-119670000D03*
X136320000Y-122210000D03*
X136320000Y-127290000D03*
X131240000Y-124750000D03*
X121080000Y-124750000D03*
X123620000Y-124750000D03*
X123620000Y-127290000D03*
X121080000Y-127290000D03*
X118540000Y-127290000D03*
X133780000Y-119670000D03*
X133780000Y-122210000D03*
X126160000Y-122210000D03*
X128700000Y-122210000D03*
X131240000Y-119670000D03*
X126160000Y-119670000D03*
X128700000Y-119670000D03*
X131240000Y-122210000D03*
X118540000Y-124750000D03*
X121080000Y-122210000D03*
X123620000Y-122210000D03*
X123620000Y-119670000D03*
X121080000Y-119670000D03*
X118540000Y-119670000D03*
X118540000Y-122210000D03*
X126160000Y-127290000D03*
X128700000Y-127290000D03*
X131240000Y-127290000D03*
X128700000Y-124750000D03*
X126160000Y-124750000D03*
X98220000Y-119670000D03*
X98220000Y-122210000D03*
X90600000Y-119670000D03*
X93140000Y-119670000D03*
X95680000Y-119670000D03*
X93140000Y-122210000D03*
X90600000Y-122210000D03*
X95680000Y-122210000D03*
X85520000Y-124750000D03*
X85520000Y-119670000D03*
X88060000Y-119670000D03*
X88060000Y-124750000D03*
X88060000Y-122210000D03*
X85520000Y-122210000D03*
X82980000Y-124750000D03*
X82980000Y-122210000D03*
X80440000Y-122210000D03*
X80440000Y-119670000D03*
X80440000Y-124750000D03*
X82980000Y-119670000D03*
X82980000Y-127290000D03*
X85520000Y-127290000D03*
X88060000Y-127290000D03*
X80440000Y-127290000D03*
X98220000Y-124750000D03*
X100760000Y-127290000D03*
X98220000Y-127290000D03*
X103300000Y-127290000D03*
X103300000Y-124750000D03*
X90600000Y-124750000D03*
X93140000Y-124750000D03*
X93140000Y-127290000D03*
X90600000Y-127290000D03*
X95680000Y-124750000D03*
X95680000Y-127290000D03*
X133780000Y-137450000D03*
X133780000Y-129830000D03*
X136320000Y-137450000D03*
X136320000Y-129830000D03*
X136320000Y-134910000D03*
X136320000Y-132370000D03*
X133780000Y-132370000D03*
X133780000Y-134910000D03*
X143940000Y-134910000D03*
X141400000Y-134910000D03*
X138860000Y-134910000D03*
X138860000Y-129830000D03*
X138860000Y-132370000D03*
X141400000Y-132370000D03*
X143940000Y-132370000D03*
X141400000Y-129830000D03*
X143940000Y-129830000D03*
X146480000Y-134910000D03*
X146480000Y-137450000D03*
X146480000Y-132370000D03*
X146480000Y-129830000D03*
X141400000Y-137450000D03*
X138860000Y-137450000D03*
X143940000Y-137450000D03*
X105840000Y-132370000D03*
X103300000Y-129830000D03*
X108380000Y-132370000D03*
X105840000Y-129830000D03*
X103300000Y-132370000D03*
X108380000Y-129830000D03*
X98220000Y-129830000D03*
X98220000Y-134910000D03*
X100760000Y-134910000D03*
X98220000Y-132370000D03*
X100760000Y-132370000D03*
X100760000Y-129830000D03*
X100760000Y-137450000D03*
X98220000Y-137450000D03*
X103300000Y-137450000D03*
X105840000Y-134910000D03*
X103300000Y-134910000D03*
X105840000Y-137450000D03*
X108380000Y-137450000D03*
X108380000Y-134910000D03*
X82980000Y-134910000D03*
X82980000Y-137450000D03*
X85520000Y-134910000D03*
X88060000Y-134910000D03*
X88060000Y-137450000D03*
X88060000Y-132370000D03*
X85520000Y-132370000D03*
X85520000Y-137450000D03*
X88060000Y-129830000D03*
X85520000Y-129830000D03*
X82980000Y-129830000D03*
X82980000Y-132370000D03*
X90600000Y-134910000D03*
X93140000Y-137450000D03*
X90600000Y-137450000D03*
X95680000Y-134910000D03*
X93140000Y-134910000D03*
X95680000Y-137450000D03*
X90600000Y-129830000D03*
X93140000Y-129830000D03*
X95680000Y-129830000D03*
X93140000Y-132370000D03*
X90600000Y-132370000D03*
X95680000Y-132370000D03*
X131240000Y-132370000D03*
X131240000Y-134910000D03*
X131240000Y-137450000D03*
X123620000Y-134910000D03*
X121080000Y-137450000D03*
X121080000Y-134910000D03*
X123620000Y-137450000D03*
X126160000Y-137450000D03*
X126160000Y-134910000D03*
X118540000Y-137450000D03*
X118540000Y-134910000D03*
X110920000Y-134910000D03*
X113460000Y-137450000D03*
X113460000Y-134910000D03*
X116000000Y-134910000D03*
X110920000Y-137450000D03*
X116000000Y-137450000D03*
X110920000Y-132370000D03*
X116000000Y-132370000D03*
X116000000Y-129830000D03*
X110920000Y-129830000D03*
X113460000Y-132370000D03*
X113460000Y-129830000D03*
X128700000Y-137450000D03*
X131240000Y-129830000D03*
X128700000Y-132370000D03*
X128700000Y-134910000D03*
X128700000Y-129830000D03*
X123620000Y-129830000D03*
X121080000Y-132370000D03*
X126160000Y-132370000D03*
X118540000Y-129830000D03*
X118540000Y-132370000D03*
X123620000Y-132370000D03*
X126160000Y-129830000D03*
X121080000Y-129830000D03*
X52500000Y-134910000D03*
X52500000Y-137450000D03*
X55040000Y-134910000D03*
X55040000Y-137450000D03*
X57580000Y-137450000D03*
X57580000Y-134910000D03*
X60120000Y-132370000D03*
X60120000Y-134910000D03*
X62660000Y-134910000D03*
X60120000Y-137450000D03*
X62660000Y-137450000D03*
X52500000Y-132370000D03*
X52500000Y-129830000D03*
X57580000Y-129830000D03*
X55040000Y-129830000D03*
X55040000Y-132370000D03*
X57580000Y-132370000D03*
X60120000Y-129830000D03*
X62660000Y-129830000D03*
X65200000Y-137450000D03*
X65200000Y-132370000D03*
X65200000Y-134910000D03*
X62660000Y-132370000D03*
X65200000Y-129830000D03*
X67740000Y-137450000D03*
X67740000Y-134910000D03*
X70280000Y-137450000D03*
X72820000Y-134910000D03*
X72820000Y-137450000D03*
X70280000Y-134910000D03*
X75360000Y-129830000D03*
X80440000Y-132370000D03*
X77900000Y-132370000D03*
X77900000Y-129830000D03*
X80440000Y-129830000D03*
X75360000Y-132370000D03*
X67740000Y-129830000D03*
X70280000Y-129830000D03*
X72820000Y-129830000D03*
X70280000Y-132370000D03*
X67740000Y-132370000D03*
X72820000Y-132370000D03*
X80440000Y-137450000D03*
X77900000Y-137450000D03*
X75360000Y-137450000D03*
X80440000Y-134910000D03*
X75360000Y-134910000D03*
X77900000Y-134910000D03*
X138860000Y-147610000D03*
X138860000Y-145070000D03*
X138860000Y-142530000D03*
X138860000Y-139990000D03*
X136320000Y-145070000D03*
X136320000Y-147610000D03*
X136320000Y-139990000D03*
X136320000Y-142530000D03*
X123620000Y-139990000D03*
X121080000Y-139990000D03*
X121080000Y-145070000D03*
X121080000Y-142530000D03*
X131240000Y-139990000D03*
X128700000Y-142530000D03*
X126160000Y-139990000D03*
X128700000Y-139990000D03*
X126160000Y-142530000D03*
X131240000Y-145070000D03*
X131240000Y-142530000D03*
X128700000Y-147610000D03*
X126160000Y-147610000D03*
X126160000Y-145070000D03*
X131240000Y-147610000D03*
X128700000Y-145070000D03*
X133780000Y-147610000D03*
X133780000Y-145070000D03*
X133780000Y-139990000D03*
X133780000Y-142530000D03*
X121080000Y-147610000D03*
X123620000Y-147610000D03*
X123620000Y-142530000D03*
X123620000Y-145070000D03*
X105840000Y-139990000D03*
X108380000Y-139990000D03*
X108380000Y-147610000D03*
X105840000Y-147610000D03*
X105840000Y-142530000D03*
X108380000Y-145070000D03*
X105840000Y-145070000D03*
X108380000Y-142530000D03*
X110920000Y-145070000D03*
X113460000Y-145070000D03*
X116000000Y-145070000D03*
X116000000Y-147610000D03*
X113460000Y-147610000D03*
X110920000Y-147610000D03*
X118540000Y-139990000D03*
X118540000Y-147610000D03*
X118540000Y-142530000D03*
X118540000Y-145070000D03*
X110920000Y-139990000D03*
X116000000Y-142530000D03*
X116000000Y-139990000D03*
X113460000Y-139990000D03*
X113460000Y-142530000D03*
X110920000Y-142530000D03*
X90600000Y-145070000D03*
X90600000Y-147610000D03*
X90600000Y-142530000D03*
X90600000Y-139990000D03*
X98220000Y-145070000D03*
X100760000Y-145070000D03*
X103300000Y-147610000D03*
X103300000Y-145070000D03*
X100760000Y-147610000D03*
X98220000Y-147610000D03*
X93140000Y-139990000D03*
X93140000Y-145070000D03*
X95680000Y-145070000D03*
X93140000Y-147610000D03*
X95680000Y-147610000D03*
X93140000Y-142530000D03*
X95680000Y-139990000D03*
X98220000Y-139990000D03*
X98220000Y-142530000D03*
X100760000Y-139990000D03*
X103300000Y-142530000D03*
X103300000Y-139990000D03*
X95680000Y-142530000D03*
X100760000Y-142530000D03*
X88060000Y-147610000D03*
X88060000Y-145070000D03*
X88060000Y-142530000D03*
X85520000Y-142530000D03*
X85520000Y-145070000D03*
X85520000Y-147610000D03*
X88060000Y-139990000D03*
X85520000Y-139990000D03*
X82980000Y-147610000D03*
X82980000Y-145070000D03*
X82980000Y-142530000D03*
X80440000Y-142530000D03*
X80440000Y-145070000D03*
X80440000Y-147610000D03*
X82980000Y-139990000D03*
X80440000Y-139990000D03*
X77900000Y-147610000D03*
X77900000Y-145070000D03*
X77900000Y-142530000D03*
X75360000Y-142530000D03*
X75360000Y-145070000D03*
X75360000Y-147610000D03*
X77900000Y-139990000D03*
X75360000Y-139990000D03*
X72820000Y-147610000D03*
X72820000Y-145070000D03*
X72820000Y-142530000D03*
X70280000Y-142530000D03*
X70280000Y-145070000D03*
X70280000Y-147610000D03*
X72820000Y-139990000D03*
X70280000Y-139990000D03*
X67740000Y-147610000D03*
X67740000Y-145070000D03*
X67740000Y-142530000D03*
X65200000Y-142530000D03*
X65200000Y-145070000D03*
X65200000Y-147610000D03*
X67740000Y-139990000D03*
X65200000Y-139990000D03*
X62660000Y-147610000D03*
X62660000Y-145070000D03*
X62660000Y-142530000D03*
X62660000Y-139990000D03*
X60120000Y-139990000D03*
X60120000Y-142530000D03*
X60120000Y-145070000D03*
D12*
X89000000Y-57500000D03*
D13*
X89000000Y-55000000D03*
D14*
X122950000Y-78190000D03*
D15*
X122950000Y-80730000D03*
X122950000Y-83270000D03*
D16*
X105170000Y-61680000D03*
X107710000Y-61680000D03*
X110250000Y-61680000D03*
X112790000Y-61680000D03*
X105170000Y-51520000D03*
X115330000Y-61680000D03*
X115330000Y-51520000D03*
D11*
X110250000Y-64220000D03*
X112790000Y-64220000D03*
X84850000Y-86445000D03*
X87390000Y-86445000D03*
X89930000Y-86445000D03*
X111520000Y-86445000D03*
X108980000Y-86445000D03*
X106440000Y-86445000D03*
D17*
X122950000Y-65490000D03*
D18*
X122950000Y-68030000D03*
X122950000Y-70570000D03*
D16*
X117870000Y-82000000D03*
X117870000Y-74380000D03*
X117870000Y-71840000D03*
X112790000Y-71840000D03*
X112790000Y-74380000D03*
X112790000Y-82000000D03*
X82310000Y-78190000D03*
X77230000Y-78190000D03*
X82310000Y-85810000D03*
X77230000Y-85810000D03*
X82310000Y-66760000D03*
X77230000Y-66760000D03*
X82310000Y-74380000D03*
X77230000Y-74380000D03*
D11*
X116600000Y-86445000D03*
X119140000Y-86445000D03*
X114060000Y-86445000D03*
X95645000Y-86445000D03*
X101360000Y-86445000D03*
X60120000Y-147610000D03*
D19*
X110250000Y-71840000D03*
X83580000Y-73110000D03*
X83580000Y-80095000D03*
X84850000Y-74380000D03*
X86120000Y-75650000D03*
X87390000Y-77555000D03*
X109500000Y-74500000D03*
X110500000Y-77500000D03*
X87390000Y-66760000D03*
X104535000Y-75650000D03*
D20*
X107075000Y-68665000D02*
X105170000Y-66760000D01*
X111520000Y-70570000D02*
X109615000Y-68665000D01*
X109615000Y-68665000D02*
X107075000Y-68665000D01*
X111520000Y-73110000D02*
X111520000Y-70570000D01*
X112790000Y-74380000D02*
X111520000Y-73110000D01*
X105170000Y-66760000D02*
X105170000Y-61680000D01*
X120410000Y-70570000D02*
X122950000Y-70570000D01*
X119140000Y-69300000D02*
X120410000Y-70570000D01*
X119140000Y-66760000D02*
X119140000Y-69300000D01*
X115330000Y-61680000D02*
X115330000Y-62950000D01*
X115330000Y-62950000D02*
X119140000Y-66760000D01*
X83580000Y-68665000D02*
X83580000Y-64220000D01*
X83580000Y-64220000D02*
X83580000Y-61870000D01*
X101995000Y-64855000D02*
X84215000Y-64855000D01*
X84215000Y-64855000D02*
X83580000Y-64220000D01*
X106440000Y-69300000D02*
X101995000Y-64855000D01*
X108345000Y-69300000D02*
X106440000Y-69300000D01*
X110250000Y-71205000D02*
X108345000Y-69300000D01*
X110250000Y-71840000D02*
X110250000Y-71205000D01*
X83580000Y-73110000D02*
X83580000Y-68665000D01*
X91835000Y-69935000D02*
X84850000Y-69935000D01*
X84850000Y-69935000D02*
X83580000Y-68665000D01*
X95645000Y-73745000D02*
X91835000Y-69935000D01*
X95645000Y-85810000D02*
X95645000Y-73745000D01*
X83580000Y-61870000D02*
X87950000Y-57500000D01*
X87950000Y-57500000D02*
X89000000Y-57500000D01*
X83580000Y-80095000D02*
X83580000Y-73110000D01*
X84850000Y-85810000D02*
X84850000Y-74380000D01*
X86120000Y-83125787D02*
X86120000Y-75650000D01*
X87390000Y-85810000D02*
X87390000Y-84395787D01*
X87390000Y-84395787D02*
X86120000Y-83125787D01*
X87390000Y-83270000D02*
X87390000Y-77555000D01*
X88025000Y-83905000D02*
X87390000Y-83270000D01*
X89930000Y-85810000D02*
X88025000Y-83905000D01*
X111000000Y-74500000D02*
X109500000Y-74500000D01*
X111520000Y-75020000D02*
X111000000Y-74500000D01*
X111520000Y-85810000D02*
X111520000Y-75020000D01*
X110500000Y-77500000D02*
X110500000Y-83270000D01*
X108980000Y-86445000D02*
X109979999Y-85445001D01*
X109979999Y-85445001D02*
X109979999Y-83790001D01*
X109979999Y-83790001D02*
X110500000Y-83270000D01*
X102630000Y-66760000D02*
X87390000Y-66760000D01*
X104535000Y-68665000D02*
X102630000Y-66760000D01*
X104535000Y-75650000D02*
X104535000Y-68665000D01*
X116000000Y-83795787D02*
X116000000Y-75050000D01*
X116000000Y-75050000D02*
X112790000Y-71840000D01*
X116600000Y-85810000D02*
X116600000Y-84395787D01*
X116600000Y-84395787D02*
X116000000Y-83795787D01*
X119000000Y-86305000D02*
X119140000Y-86445000D01*
X117870000Y-71840000D02*
X116782999Y-72927001D01*
X116782999Y-72927001D02*
X116782999Y-83452999D01*
X116782999Y-83452999D02*
X119000000Y-85670000D01*
M02*
