M48
;DRILL file {KiCad 4.0.6} date 07/25/17 01:12:09
;FORMAT={-:-/ absolute / metric / decimal}
FMAT,2
METRIC,TZ
T1C0.400
T2C0.762
T3C0.800
T4C0.900
T5C1.000
%
G90
G05
M71
T1
X68.58Y-118.11
X68.58Y-125.095
X69.85Y-119.38
X71.12Y-120.65
X72.39Y-111.76
X72.39Y-122.555
X89.535Y-120.65
X94.5Y-119.5
X95.25Y-116.84
X95.5Y-122.5
T2
X90.17Y-96.52
X90.17Y-106.68
X92.71Y-106.68
X95.25Y-106.68
X97.79Y-106.68
X100.33Y-96.52
X100.33Y-106.68
T3
X62.23Y-111.76
X62.23Y-119.38
X62.23Y-123.19
X62.23Y-130.81
X67.31Y-111.76
X67.31Y-119.38
X67.31Y-123.19
X67.31Y-130.81
X74.Y-100.
X74.Y-102.5
X97.79Y-116.84
X97.79Y-119.38
X97.79Y-127.
X102.87Y-116.84
X102.87Y-119.38
X102.87Y-127.
T4
X63.5Y-134.62
X66.04Y-134.62
X68.58Y-134.62
X68.58Y-137.16
X69.85Y-131.445
X71.12Y-134.62
X71.12Y-137.16
X71.12Y-139.7
X71.12Y-142.24
X72.39Y-131.445
X73.66Y-134.62
X73.66Y-137.16
X73.66Y-139.7
X73.66Y-142.24
X74.93Y-131.445
X76.2Y-134.62
X76.2Y-137.16
X76.2Y-139.7
X76.2Y-142.24
X78.74Y-134.62
X78.74Y-137.16
X78.74Y-139.7
X78.74Y-142.24
X80.645Y-131.445
X81.28Y-134.62
X81.28Y-137.16
X81.28Y-139.7
X81.28Y-142.24
X83.82Y-134.62
X83.82Y-137.16
X83.82Y-139.7
X83.82Y-142.24
X86.36Y-131.445
X86.36Y-134.62
X86.36Y-137.16
X86.36Y-139.7
X86.36Y-142.24
X88.9Y-134.62
X88.9Y-137.16
X88.9Y-139.7
X88.9Y-142.24
X91.44Y-131.445
X91.44Y-134.62
X91.44Y-137.16
X91.44Y-139.7
X91.44Y-142.24
X93.98Y-131.445
X93.98Y-134.62
X93.98Y-137.16
X93.98Y-139.7
X93.98Y-142.24
X95.25Y-109.22
X96.52Y-131.445
X96.52Y-134.62
X96.52Y-137.16
X96.52Y-139.7
X96.52Y-142.24
X97.79Y-109.22
X99.06Y-131.445
X99.06Y-134.62
X99.06Y-137.16
X99.06Y-139.7
X99.06Y-142.24
X101.6Y-131.445
X101.6Y-134.62
X101.6Y-137.16
X104.14Y-131.445
X104.14Y-134.62
X106.68Y-134.62
T5
X107.95Y-110.49
X107.95Y-113.03
X107.95Y-115.57
X107.95Y-123.19
X107.95Y-125.73
X107.95Y-128.27
T0
M30
