G04 #@! TF.FileFunction,Soldermask,Top*
%FSLAX46Y46*%
G04 Gerber Fmt 4.6, Leading zero omitted, Abs format (unit mm)*
G04 Created by KiCad (PCBNEW 4.0.6) date 07/26/17 18:54:02*
%MOMM*%
%LPD*%
G01*
G04 APERTURE LIST*
%ADD10C,0.100000*%
%ADD11C,2.400000*%
%ADD12C,3.600000*%
%ADD13R,1.600000X1.150000*%
%ADD14R,2.000000X2.000000*%
%ADD15C,2.000000*%
%ADD16R,1.600000X1.300000*%
%ADD17R,2.100000X2.100000*%
%ADD18O,2.100000X2.100000*%
%ADD19C,1.924000*%
%ADD20R,2.200000X2.200000*%
%ADD21O,2.200000X2.200000*%
%ADD22R,1.300000X1.600000*%
%ADD23R,2.400000X1.300000*%
%ADD24R,1.600000X2.600000*%
%ADD25R,6.200000X6.800000*%
G04 APERTURE END LIST*
D10*
D11*
X73660000Y-134220000D03*
X76200000Y-134220000D03*
X86360000Y-134220000D03*
X83820000Y-134220000D03*
X78740000Y-134220000D03*
X81280000Y-134220000D03*
X93980000Y-134220000D03*
X91440000Y-134220000D03*
X88900000Y-134220000D03*
X96520000Y-134220000D03*
X99060000Y-134220000D03*
X101600000Y-134220000D03*
X106680000Y-134220000D03*
X104140000Y-134220000D03*
X68580000Y-134220000D03*
X63500000Y-134220000D03*
X71120000Y-134220000D03*
X66040000Y-134220000D03*
X93980000Y-136760000D03*
X88900000Y-136760000D03*
X88900000Y-139300000D03*
X91440000Y-136760000D03*
X93980000Y-139300000D03*
X91440000Y-139300000D03*
X86360000Y-136760000D03*
X86360000Y-141840000D03*
X86360000Y-139300000D03*
X91440000Y-141840000D03*
X88900000Y-141840000D03*
X96520000Y-136760000D03*
X99060000Y-141840000D03*
X96520000Y-144380000D03*
X99060000Y-139300000D03*
X96520000Y-139300000D03*
X99060000Y-136760000D03*
X96520000Y-141840000D03*
X99060000Y-144380000D03*
X104140000Y-144380000D03*
X106680000Y-144380000D03*
X106680000Y-141840000D03*
X101600000Y-136760000D03*
X101600000Y-139300000D03*
X106680000Y-139300000D03*
X106680000Y-136760000D03*
X104140000Y-139300000D03*
X104140000Y-136760000D03*
X88900000Y-144380000D03*
X86360000Y-144380000D03*
X91440000Y-144380000D03*
X93980000Y-144380000D03*
X73660000Y-141840000D03*
X73660000Y-144380000D03*
X78740000Y-141840000D03*
X76200000Y-141840000D03*
X78740000Y-144380000D03*
X76200000Y-144380000D03*
X71120000Y-144380000D03*
X63500000Y-141840000D03*
X68580000Y-144380000D03*
X66040000Y-144380000D03*
X63500000Y-144380000D03*
X66040000Y-141840000D03*
X71120000Y-136760000D03*
X73660000Y-139300000D03*
X73660000Y-136760000D03*
X71120000Y-139300000D03*
X68580000Y-136760000D03*
X68580000Y-139300000D03*
X68580000Y-141840000D03*
X71120000Y-141840000D03*
X63500000Y-139300000D03*
X63500000Y-136760000D03*
X66040000Y-136760000D03*
X66040000Y-139300000D03*
X81280000Y-139300000D03*
X83820000Y-136760000D03*
X83820000Y-139300000D03*
X81280000Y-136760000D03*
X83820000Y-141840000D03*
X81280000Y-141840000D03*
X81280000Y-144380000D03*
X83820000Y-144380000D03*
X78740000Y-136760000D03*
X78740000Y-139300000D03*
X76200000Y-139300000D03*
X76200000Y-136760000D03*
X93980000Y-141840000D03*
X101600000Y-141840000D03*
X101600000Y-144380000D03*
X104140000Y-141840000D03*
X93980000Y-146920000D03*
X96520000Y-146920000D03*
X99060000Y-149460000D03*
X96520000Y-149460000D03*
X99060000Y-146920000D03*
X86360000Y-146920000D03*
X91440000Y-149460000D03*
X88900000Y-149460000D03*
X86360000Y-149460000D03*
X91440000Y-146920000D03*
X88900000Y-146920000D03*
X93980000Y-149460000D03*
X91440000Y-152000000D03*
X93980000Y-152000000D03*
X86360000Y-152000000D03*
X88900000Y-152000000D03*
X71120000Y-146920000D03*
X73660000Y-146920000D03*
X73660000Y-149460000D03*
X71120000Y-149460000D03*
X68580000Y-146920000D03*
X63500000Y-149460000D03*
X68580000Y-149460000D03*
X63500000Y-146920000D03*
X68580000Y-152000000D03*
X66040000Y-149460000D03*
X66040000Y-146920000D03*
X73660000Y-152000000D03*
X71120000Y-152000000D03*
X63500000Y-152000000D03*
X66040000Y-152000000D03*
X78740000Y-146920000D03*
X78740000Y-149460000D03*
X81280000Y-149460000D03*
X81280000Y-146920000D03*
X83820000Y-146920000D03*
X83820000Y-149460000D03*
X81280000Y-152000000D03*
X83820000Y-152000000D03*
X76200000Y-146920000D03*
X76200000Y-149460000D03*
X78740000Y-152000000D03*
X76200000Y-152000000D03*
X101600000Y-146920000D03*
X104140000Y-149460000D03*
X101600000Y-149460000D03*
X104140000Y-146920000D03*
X106680000Y-149460000D03*
X106680000Y-146920000D03*
X101600000Y-152000000D03*
X96520000Y-152000000D03*
X99060000Y-152000000D03*
X104140000Y-152000000D03*
X106680000Y-152000000D03*
X73660000Y-154540000D03*
X71120000Y-154540000D03*
X66040000Y-154540000D03*
X63500000Y-154540000D03*
X68580000Y-154540000D03*
X83820000Y-154540000D03*
X81280000Y-154540000D03*
X76200000Y-154540000D03*
X78740000Y-154540000D03*
X99060000Y-154540000D03*
X96520000Y-154540000D03*
X93980000Y-154540000D03*
X91440000Y-154540000D03*
X106680000Y-154540000D03*
X104140000Y-154540000D03*
X101600000Y-154540000D03*
X88900000Y-154540000D03*
X86360000Y-154540000D03*
X73660000Y-157080000D03*
X71120000Y-157080000D03*
X66040000Y-157080000D03*
X63500000Y-157080000D03*
X68580000Y-157080000D03*
X83820000Y-157080000D03*
X81280000Y-157080000D03*
X76200000Y-157080000D03*
X78740000Y-157080000D03*
X99060000Y-157080000D03*
X96520000Y-157080000D03*
X93980000Y-157080000D03*
X91440000Y-157080000D03*
X106680000Y-157080000D03*
X104140000Y-157080000D03*
X101600000Y-157080000D03*
X88900000Y-157080000D03*
X86360000Y-157080000D03*
X106680000Y-159620000D03*
X101600000Y-162160000D03*
X104140000Y-159620000D03*
X101600000Y-159620000D03*
X99060000Y-167240000D03*
X99060000Y-164700000D03*
X99060000Y-162160000D03*
X96520000Y-162160000D03*
X96520000Y-164700000D03*
X96520000Y-167240000D03*
X99060000Y-159620000D03*
X96520000Y-159620000D03*
X93980000Y-167240000D03*
X93980000Y-164700000D03*
X93980000Y-162160000D03*
X91440000Y-162160000D03*
X91440000Y-164700000D03*
X91440000Y-167240000D03*
X93980000Y-159620000D03*
X91440000Y-159620000D03*
X88900000Y-167240000D03*
X88900000Y-164700000D03*
X88900000Y-162160000D03*
X86360000Y-162160000D03*
X86360000Y-164700000D03*
X86360000Y-167240000D03*
X88900000Y-159620000D03*
X86360000Y-159620000D03*
X83820000Y-167240000D03*
X83820000Y-164700000D03*
X83820000Y-162160000D03*
X81280000Y-162160000D03*
X81280000Y-164700000D03*
X81280000Y-167240000D03*
X83820000Y-159620000D03*
X81280000Y-159620000D03*
X78740000Y-167240000D03*
X78740000Y-164700000D03*
X78740000Y-162160000D03*
X76200000Y-162160000D03*
X76200000Y-164700000D03*
X76200000Y-167240000D03*
X78740000Y-159620000D03*
X76200000Y-159620000D03*
X73660000Y-167240000D03*
X73660000Y-164700000D03*
X73660000Y-162160000D03*
X73660000Y-159620000D03*
X63500000Y-159620000D03*
X66040000Y-159620000D03*
X68580000Y-162160000D03*
X68580000Y-159620000D03*
X71120000Y-159620000D03*
X71120000Y-162160000D03*
X71120000Y-164700000D03*
D12*
X106000000Y-166000000D03*
X64000000Y-166000000D03*
X64000000Y-99000000D03*
D13*
X80990000Y-106950000D03*
X82890000Y-106950000D03*
X86700000Y-106950000D03*
X84800000Y-106950000D03*
D14*
X74000000Y-102500000D03*
D15*
X74000000Y-100000000D03*
D16*
X104300000Y-106500000D03*
X106500000Y-106500000D03*
D17*
X107950000Y-123190000D03*
D18*
X107950000Y-125730000D03*
X107950000Y-128270000D03*
D19*
X90170000Y-106680000D03*
X92710000Y-106680000D03*
X95250000Y-106680000D03*
X97790000Y-106680000D03*
X90170000Y-96520000D03*
X100330000Y-106680000D03*
X100330000Y-96520000D03*
D11*
X95250000Y-109220000D03*
X97790000Y-109220000D03*
X69850000Y-131445000D03*
X72390000Y-131445000D03*
X74930000Y-131445000D03*
X96520000Y-131445000D03*
X93980000Y-131445000D03*
X91440000Y-131445000D03*
D20*
X107950000Y-110490000D03*
D21*
X107950000Y-113030000D03*
X107950000Y-115570000D03*
D16*
X69900000Y-127000000D03*
X72100000Y-127000000D03*
X69900000Y-125500000D03*
X72100000Y-125500000D03*
X72100000Y-124000000D03*
X69900000Y-124000000D03*
X69900000Y-118000000D03*
X72100000Y-118000000D03*
D22*
X95500000Y-118400000D03*
X95500000Y-120600000D03*
D16*
X98890000Y-113030000D03*
X96690000Y-113030000D03*
D22*
X105410000Y-115400000D03*
X105410000Y-113200000D03*
D16*
X104300000Y-104500000D03*
X106500000Y-104500000D03*
D19*
X102870000Y-127000000D03*
X102870000Y-119380000D03*
X102870000Y-116840000D03*
X97790000Y-116840000D03*
X97790000Y-119380000D03*
X97790000Y-127000000D03*
X67310000Y-123190000D03*
X62230000Y-123190000D03*
X67310000Y-130810000D03*
X62230000Y-130810000D03*
X67310000Y-111760000D03*
X62230000Y-111760000D03*
X67310000Y-119380000D03*
X62230000Y-119380000D03*
D23*
X74820000Y-116330000D03*
X74820000Y-117830000D03*
X74820000Y-119330000D03*
X74820000Y-120830000D03*
X74820000Y-122330000D03*
X74820000Y-123830000D03*
X74820000Y-125330000D03*
X74820000Y-126830000D03*
X74820000Y-128330000D03*
X92740000Y-128330000D03*
X92740000Y-126830000D03*
X92740000Y-125330000D03*
X92740000Y-123830000D03*
X92740000Y-122330000D03*
X92740000Y-120830000D03*
X92740000Y-119330000D03*
X92740000Y-117830000D03*
X92740000Y-116330000D03*
D24*
X81880000Y-104800000D03*
X84160000Y-104800000D03*
X86440000Y-104800000D03*
D25*
X84160000Y-98500000D03*
D11*
X101600000Y-131445000D03*
X104140000Y-131445000D03*
X99060000Y-131445000D03*
D12*
X106000000Y-99000000D03*
D11*
X80645000Y-131445000D03*
X86360000Y-131445000D03*
X71120000Y-167240000D03*
M02*
