G04 #@! TF.FileFunction,Legend,Bot*
%FSLAX46Y46*%
G04 Gerber Fmt 4.6, Leading zero omitted, Abs format (unit mm)*
G04 Created by KiCad (PCBNEW 4.0.6) date 07/25/17 01:11:47*
%MOMM*%
%LPD*%
G01*
G04 APERTURE LIST*
%ADD10C,0.100000*%
%ADD11C,0.300000*%
G04 APERTURE END LIST*
D10*
D11*
X102848571Y-98868571D02*
X102491428Y-100368571D01*
X102205714Y-99297143D01*
X101920000Y-100368571D01*
X101562857Y-98868571D01*
X100134285Y-100368571D02*
X100634285Y-99654286D01*
X100991428Y-100368571D02*
X100991428Y-98868571D01*
X100420000Y-98868571D01*
X100277142Y-98940000D01*
X100205714Y-99011429D01*
X100134285Y-99154286D01*
X100134285Y-99368571D01*
X100205714Y-99511429D01*
X100277142Y-99582857D01*
X100420000Y-99654286D01*
X100991428Y-99654286D01*
X99205714Y-98868571D02*
X98920000Y-98868571D01*
X98777142Y-98940000D01*
X98634285Y-99082857D01*
X98562857Y-99368571D01*
X98562857Y-99868571D01*
X98634285Y-100154286D01*
X98777142Y-100297143D01*
X98920000Y-100368571D01*
X99205714Y-100368571D01*
X99348571Y-100297143D01*
X99491428Y-100154286D01*
X99562857Y-99868571D01*
X99562857Y-99368571D01*
X99491428Y-99082857D01*
X99348571Y-98940000D01*
X99205714Y-98868571D01*
X97634285Y-98868571D02*
X97348571Y-98868571D01*
X97205713Y-98940000D01*
X97062856Y-99082857D01*
X96991428Y-99368571D01*
X96991428Y-99868571D01*
X97062856Y-100154286D01*
X97205713Y-100297143D01*
X97348571Y-100368571D01*
X97634285Y-100368571D01*
X97777142Y-100297143D01*
X97919999Y-100154286D01*
X97991428Y-99868571D01*
X97991428Y-99368571D01*
X97919999Y-99082857D01*
X97777142Y-98940000D01*
X97634285Y-98868571D01*
X96348570Y-100368571D02*
X96348570Y-98868571D01*
X95848570Y-99940000D01*
X95348570Y-98868571D01*
X95348570Y-100368571D01*
X94348570Y-98868571D02*
X94205713Y-98868571D01*
X94062856Y-98940000D01*
X93991427Y-99011429D01*
X93919998Y-99154286D01*
X93848570Y-99440000D01*
X93848570Y-99797143D01*
X93919998Y-100082857D01*
X93991427Y-100225714D01*
X94062856Y-100297143D01*
X94205713Y-100368571D01*
X94348570Y-100368571D01*
X94491427Y-100297143D01*
X94562856Y-100225714D01*
X94634284Y-100082857D01*
X94705713Y-99797143D01*
X94705713Y-99440000D01*
X94634284Y-99154286D01*
X94562856Y-99011429D01*
X94491427Y-98940000D01*
X94348570Y-98868571D01*
X93277142Y-99011429D02*
X93205713Y-98940000D01*
X93062856Y-98868571D01*
X92705713Y-98868571D01*
X92562856Y-98940000D01*
X92491427Y-99011429D01*
X92419999Y-99154286D01*
X92419999Y-99297143D01*
X92491427Y-99511429D01*
X93348570Y-100368571D01*
X92419999Y-100368571D01*
X89777142Y-100368571D02*
X90277142Y-99654286D01*
X90634285Y-100368571D02*
X90634285Y-98868571D01*
X90062857Y-98868571D01*
X89919999Y-98940000D01*
X89848571Y-99011429D01*
X89777142Y-99154286D01*
X89777142Y-99368571D01*
X89848571Y-99511429D01*
X89919999Y-99582857D01*
X90062857Y-99654286D01*
X90634285Y-99654286D01*
X88562857Y-100297143D02*
X88705714Y-100368571D01*
X88991428Y-100368571D01*
X89134285Y-100297143D01*
X89205714Y-100154286D01*
X89205714Y-99582857D01*
X89134285Y-99440000D01*
X88991428Y-99368571D01*
X88705714Y-99368571D01*
X88562857Y-99440000D01*
X88491428Y-99582857D01*
X88491428Y-99725714D01*
X89205714Y-99868571D01*
X87634285Y-100368571D02*
X87777143Y-100297143D01*
X87848571Y-100154286D01*
X87848571Y-98868571D01*
X86420000Y-100368571D02*
X86420000Y-99582857D01*
X86491429Y-99440000D01*
X86634286Y-99368571D01*
X86920000Y-99368571D01*
X87062857Y-99440000D01*
X86420000Y-100297143D02*
X86562857Y-100368571D01*
X86920000Y-100368571D01*
X87062857Y-100297143D01*
X87134286Y-100154286D01*
X87134286Y-100011429D01*
X87062857Y-99868571D01*
X86920000Y-99797143D01*
X86562857Y-99797143D01*
X86420000Y-99725714D01*
X85848571Y-99368571D02*
X85491428Y-100368571D01*
X85134286Y-99368571D02*
X85491428Y-100368571D01*
X85634286Y-100725714D01*
X85705714Y-100797143D01*
X85848571Y-100868571D01*
X82920000Y-99582857D02*
X82705714Y-99654286D01*
X82634286Y-99725714D01*
X82562857Y-99868571D01*
X82562857Y-100082857D01*
X82634286Y-100225714D01*
X82705714Y-100297143D01*
X82848572Y-100368571D01*
X83420000Y-100368571D01*
X83420000Y-98868571D01*
X82920000Y-98868571D01*
X82777143Y-98940000D01*
X82705714Y-99011429D01*
X82634286Y-99154286D01*
X82634286Y-99297143D01*
X82705714Y-99440000D01*
X82777143Y-99511429D01*
X82920000Y-99582857D01*
X83420000Y-99582857D01*
X81705714Y-100368571D02*
X81848572Y-100297143D01*
X81920000Y-100225714D01*
X81991429Y-100082857D01*
X81991429Y-99654286D01*
X81920000Y-99511429D01*
X81848572Y-99440000D01*
X81705714Y-99368571D01*
X81491429Y-99368571D01*
X81348572Y-99440000D01*
X81277143Y-99511429D01*
X81205714Y-99654286D01*
X81205714Y-100082857D01*
X81277143Y-100225714D01*
X81348572Y-100297143D01*
X81491429Y-100368571D01*
X81705714Y-100368571D01*
X79920000Y-100368571D02*
X79920000Y-99582857D01*
X79991429Y-99440000D01*
X80134286Y-99368571D01*
X80420000Y-99368571D01*
X80562857Y-99440000D01*
X79920000Y-100297143D02*
X80062857Y-100368571D01*
X80420000Y-100368571D01*
X80562857Y-100297143D01*
X80634286Y-100154286D01*
X80634286Y-100011429D01*
X80562857Y-99868571D01*
X80420000Y-99797143D01*
X80062857Y-99797143D01*
X79920000Y-99725714D01*
X79205714Y-100368571D02*
X79205714Y-99368571D01*
X79205714Y-99654286D02*
X79134286Y-99511429D01*
X79062857Y-99440000D01*
X78920000Y-99368571D01*
X78777143Y-99368571D01*
X77634286Y-100368571D02*
X77634286Y-98868571D01*
X77634286Y-100297143D02*
X77777143Y-100368571D01*
X78062857Y-100368571D01*
X78205715Y-100297143D01*
X78277143Y-100225714D01*
X78348572Y-100082857D01*
X78348572Y-99654286D01*
X78277143Y-99511429D01*
X78205715Y-99440000D01*
X78062857Y-99368571D01*
X77777143Y-99368571D01*
X77634286Y-99440000D01*
X99241427Y-102204286D02*
X99312855Y-102132857D01*
X99455712Y-102061429D01*
X99598570Y-102061429D01*
X99741427Y-102132857D01*
X99812855Y-102204286D01*
X99884284Y-102347143D01*
X99884284Y-102490000D01*
X99812855Y-102632857D01*
X99741427Y-102704286D01*
X99598570Y-102775714D01*
X99455712Y-102775714D01*
X99312855Y-102704286D01*
X99241427Y-102632857D01*
X99241427Y-102061429D02*
X99241427Y-102632857D01*
X99169998Y-102704286D01*
X99098570Y-102704286D01*
X98955712Y-102632857D01*
X98884284Y-102490000D01*
X98884284Y-102132857D01*
X99027141Y-101918571D01*
X99241427Y-101775714D01*
X99527141Y-101704286D01*
X99812855Y-101775714D01*
X100027141Y-101918571D01*
X100169998Y-102132857D01*
X100241427Y-102418571D01*
X100169998Y-102704286D01*
X100027141Y-102918571D01*
X99812855Y-103061429D01*
X99527141Y-103132857D01*
X99241427Y-103061429D01*
X99027141Y-102918571D01*
X97812856Y-101418571D02*
X97812856Y-102490000D01*
X97884284Y-102704286D01*
X98027141Y-102847143D01*
X98241427Y-102918571D01*
X98384284Y-102918571D01*
X97098570Y-102918571D02*
X97098570Y-101418571D01*
X96527142Y-101418571D01*
X96384284Y-101490000D01*
X96312856Y-101561429D01*
X96241427Y-101704286D01*
X96241427Y-101918571D01*
X96312856Y-102061429D01*
X96384284Y-102132857D01*
X96527142Y-102204286D01*
X97098570Y-102204286D01*
X95741427Y-101418571D02*
X94812856Y-101418571D01*
X95312856Y-101990000D01*
X95098570Y-101990000D01*
X94955713Y-102061429D01*
X94884284Y-102132857D01*
X94812856Y-102275714D01*
X94812856Y-102632857D01*
X94884284Y-102775714D01*
X94955713Y-102847143D01*
X95098570Y-102918571D01*
X95527142Y-102918571D01*
X95669999Y-102847143D01*
X95741427Y-102775714D01*
X93312856Y-102775714D02*
X93384285Y-102847143D01*
X93598571Y-102918571D01*
X93741428Y-102918571D01*
X93955713Y-102847143D01*
X94098571Y-102704286D01*
X94169999Y-102561429D01*
X94241428Y-102275714D01*
X94241428Y-102061429D01*
X94169999Y-101775714D01*
X94098571Y-101632857D01*
X93955713Y-101490000D01*
X93741428Y-101418571D01*
X93598571Y-101418571D01*
X93384285Y-101490000D01*
X93312856Y-101561429D01*
X92384285Y-102204286D02*
X92384285Y-102918571D01*
X92884285Y-101418571D02*
X92384285Y-102204286D01*
X91884285Y-101418571D01*
X90527142Y-102775714D02*
X90598571Y-102847143D01*
X90812857Y-102918571D01*
X90955714Y-102918571D01*
X91169999Y-102847143D01*
X91312857Y-102704286D01*
X91384285Y-102561429D01*
X91455714Y-102275714D01*
X91455714Y-102061429D01*
X91384285Y-101775714D01*
X91312857Y-101632857D01*
X91169999Y-101490000D01*
X90955714Y-101418571D01*
X90812857Y-101418571D01*
X90598571Y-101490000D01*
X90527142Y-101561429D01*
X88812857Y-101561429D02*
X88741428Y-101490000D01*
X88598571Y-101418571D01*
X88241428Y-101418571D01*
X88098571Y-101490000D01*
X88027142Y-101561429D01*
X87955714Y-101704286D01*
X87955714Y-101847143D01*
X88027142Y-102061429D01*
X88884285Y-102918571D01*
X87955714Y-102918571D01*
X87027143Y-101418571D02*
X86884286Y-101418571D01*
X86741429Y-101490000D01*
X86670000Y-101561429D01*
X86598571Y-101704286D01*
X86527143Y-101990000D01*
X86527143Y-102347143D01*
X86598571Y-102632857D01*
X86670000Y-102775714D01*
X86741429Y-102847143D01*
X86884286Y-102918571D01*
X87027143Y-102918571D01*
X87170000Y-102847143D01*
X87241429Y-102775714D01*
X87312857Y-102632857D01*
X87384286Y-102347143D01*
X87384286Y-101990000D01*
X87312857Y-101704286D01*
X87241429Y-101561429D01*
X87170000Y-101490000D01*
X87027143Y-101418571D01*
X85098572Y-102918571D02*
X85955715Y-102918571D01*
X85527143Y-102918571D02*
X85527143Y-101418571D01*
X85670000Y-101632857D01*
X85812858Y-101775714D01*
X85955715Y-101847143D01*
X84598572Y-101418571D02*
X83598572Y-101418571D01*
X84241429Y-102918571D01*
X83027144Y-102775714D02*
X82955716Y-102847143D01*
X83027144Y-102918571D01*
X83098573Y-102847143D01*
X83027144Y-102775714D01*
X83027144Y-102918571D01*
X82027144Y-101418571D02*
X81884287Y-101418571D01*
X81741430Y-101490000D01*
X81670001Y-101561429D01*
X81598572Y-101704286D01*
X81527144Y-101990000D01*
X81527144Y-102347143D01*
X81598572Y-102632857D01*
X81670001Y-102775714D01*
X81741430Y-102847143D01*
X81884287Y-102918571D01*
X82027144Y-102918571D01*
X82170001Y-102847143D01*
X82241430Y-102775714D01*
X82312858Y-102632857D01*
X82384287Y-102347143D01*
X82384287Y-101990000D01*
X82312858Y-101704286D01*
X82241430Y-101561429D01*
X82170001Y-101490000D01*
X82027144Y-101418571D01*
X81027144Y-101418571D02*
X80027144Y-101418571D01*
X80670001Y-102918571D01*
X74251429Y-129849285D02*
X75751429Y-129849285D01*
X75751429Y-128849285D02*
X75751429Y-128563571D01*
X75680000Y-128420713D01*
X75537143Y-128277856D01*
X75251429Y-128206428D01*
X74751429Y-128206428D01*
X74465714Y-128277856D01*
X74322857Y-128420713D01*
X74251429Y-128563571D01*
X74251429Y-128849285D01*
X74322857Y-128992142D01*
X74465714Y-129134999D01*
X74751429Y-129206428D01*
X75251429Y-129206428D01*
X75537143Y-129134999D01*
X75680000Y-128992142D01*
X75751429Y-128849285D01*
X74251429Y-126777856D02*
X74251429Y-127634999D01*
X74251429Y-127206427D02*
X75751429Y-127206427D01*
X75537143Y-127349284D01*
X75394286Y-127492142D01*
X75322857Y-127634999D01*
X75751429Y-126277856D02*
X75751429Y-125349285D01*
X75180000Y-125849285D01*
X75180000Y-125634999D01*
X75108571Y-125492142D01*
X75037143Y-125420713D01*
X74894286Y-125349285D01*
X74537143Y-125349285D01*
X74394286Y-125420713D01*
X74322857Y-125492142D01*
X74251429Y-125634999D01*
X74251429Y-126063571D01*
X74322857Y-126206428D01*
X74394286Y-126277856D01*
X71711429Y-129849285D02*
X73211429Y-129849285D01*
X73211429Y-128849285D02*
X73211429Y-128563571D01*
X73140000Y-128420713D01*
X72997143Y-128277856D01*
X72711429Y-128206428D01*
X72211429Y-128206428D01*
X71925714Y-128277856D01*
X71782857Y-128420713D01*
X71711429Y-128563571D01*
X71711429Y-128849285D01*
X71782857Y-128992142D01*
X71925714Y-129134999D01*
X72211429Y-129206428D01*
X72711429Y-129206428D01*
X72997143Y-129134999D01*
X73140000Y-128992142D01*
X73211429Y-128849285D01*
X71711429Y-126777856D02*
X71711429Y-127634999D01*
X71711429Y-127206427D02*
X73211429Y-127206427D01*
X72997143Y-127349284D01*
X72854286Y-127492142D01*
X72782857Y-127634999D01*
X73068571Y-126206428D02*
X73140000Y-126134999D01*
X73211429Y-125992142D01*
X73211429Y-125634999D01*
X73140000Y-125492142D01*
X73068571Y-125420713D01*
X72925714Y-125349285D01*
X72782857Y-125349285D01*
X72568571Y-125420713D01*
X71711429Y-126277856D01*
X71711429Y-125349285D01*
X69171429Y-129849285D02*
X70671429Y-129849285D01*
X70671429Y-128849285D02*
X70671429Y-128563571D01*
X70600000Y-128420713D01*
X70457143Y-128277856D01*
X70171429Y-128206428D01*
X69671429Y-128206428D01*
X69385714Y-128277856D01*
X69242857Y-128420713D01*
X69171429Y-128563571D01*
X69171429Y-128849285D01*
X69242857Y-128992142D01*
X69385714Y-129134999D01*
X69671429Y-129206428D01*
X70171429Y-129206428D01*
X70457143Y-129134999D01*
X70600000Y-128992142D01*
X70671429Y-128849285D01*
X69171429Y-126777856D02*
X69171429Y-127634999D01*
X69171429Y-127206427D02*
X70671429Y-127206427D01*
X70457143Y-127349284D01*
X70314286Y-127492142D01*
X70242857Y-127634999D01*
X70171429Y-125492142D02*
X69171429Y-125492142D01*
X70742857Y-125849285D02*
X69671429Y-126206428D01*
X69671429Y-125277856D01*
X104096429Y-130119286D02*
X105596429Y-130119286D01*
X104096429Y-129262143D01*
X105596429Y-129262143D01*
X105596429Y-128262143D02*
X105596429Y-127976429D01*
X105525000Y-127833571D01*
X105382143Y-127690714D01*
X105096429Y-127619286D01*
X104596429Y-127619286D01*
X104310714Y-127690714D01*
X104167857Y-127833571D01*
X104096429Y-127976429D01*
X104096429Y-128262143D01*
X104167857Y-128405000D01*
X104310714Y-128547857D01*
X104596429Y-128619286D01*
X105096429Y-128619286D01*
X105382143Y-128547857D01*
X105525000Y-128405000D01*
X105596429Y-128262143D01*
X100286429Y-130083571D02*
X101786429Y-130083571D01*
X100286429Y-129226428D01*
X101786429Y-129226428D01*
X100429286Y-127654999D02*
X100357857Y-127726428D01*
X100286429Y-127940714D01*
X100286429Y-128083571D01*
X100357857Y-128297856D01*
X100500714Y-128440714D01*
X100643571Y-128512142D01*
X100929286Y-128583571D01*
X101143571Y-128583571D01*
X101429286Y-128512142D01*
X101572143Y-128440714D01*
X101715000Y-128297856D01*
X101786429Y-128083571D01*
X101786429Y-127940714D01*
X101715000Y-127726428D01*
X101643571Y-127654999D01*
X98524286Y-128813571D02*
X98452857Y-128885000D01*
X98381429Y-129099286D01*
X98381429Y-129242143D01*
X98452857Y-129456428D01*
X98595714Y-129599286D01*
X98738571Y-129670714D01*
X99024286Y-129742143D01*
X99238571Y-129742143D01*
X99524286Y-129670714D01*
X99667143Y-129599286D01*
X99810000Y-129456428D01*
X99881429Y-129242143D01*
X99881429Y-129099286D01*
X99810000Y-128885000D01*
X99738571Y-128813571D01*
X99881429Y-127885000D02*
X99881429Y-127599286D01*
X99810000Y-127456428D01*
X99667143Y-127313571D01*
X99381429Y-127242143D01*
X98881429Y-127242143D01*
X98595714Y-127313571D01*
X98452857Y-127456428D01*
X98381429Y-127599286D01*
X98381429Y-127885000D01*
X98452857Y-128027857D01*
X98595714Y-128170714D01*
X98881429Y-128242143D01*
X99381429Y-128242143D01*
X99667143Y-128170714D01*
X99810000Y-128027857D01*
X99881429Y-127885000D01*
X98381429Y-126599285D02*
X99881429Y-126599285D01*
X98810000Y-126099285D01*
X99881429Y-125599285D01*
X98381429Y-125599285D01*
X96706429Y-130206429D02*
X96706429Y-129349286D01*
X95206429Y-129777857D02*
X96706429Y-129777857D01*
X96706429Y-128563572D02*
X96706429Y-128277858D01*
X96635000Y-128135000D01*
X96492143Y-127992143D01*
X96206429Y-127920715D01*
X95706429Y-127920715D01*
X95420714Y-127992143D01*
X95277857Y-128135000D01*
X95206429Y-128277858D01*
X95206429Y-128563572D01*
X95277857Y-128706429D01*
X95420714Y-128849286D01*
X95706429Y-128920715D01*
X96206429Y-128920715D01*
X96492143Y-128849286D01*
X96635000Y-128706429D01*
X96706429Y-128563572D01*
X96706429Y-127277857D02*
X95492143Y-127277857D01*
X95349286Y-127206429D01*
X95277857Y-127135000D01*
X95206429Y-126992143D01*
X95206429Y-126706429D01*
X95277857Y-126563571D01*
X95349286Y-126492143D01*
X95492143Y-126420714D01*
X96706429Y-126420714D01*
X96706429Y-125920714D02*
X96706429Y-125063571D01*
X95206429Y-125492142D02*
X96706429Y-125492142D01*
X93301429Y-129135000D02*
X94801429Y-129135000D01*
X94801429Y-128135000D02*
X94801429Y-127849286D01*
X94730000Y-127706428D01*
X94587143Y-127563571D01*
X94301429Y-127492143D01*
X93801429Y-127492143D01*
X93515714Y-127563571D01*
X93372857Y-127706428D01*
X93301429Y-127849286D01*
X93301429Y-128135000D01*
X93372857Y-128277857D01*
X93515714Y-128420714D01*
X93801429Y-128492143D01*
X94301429Y-128492143D01*
X94587143Y-128420714D01*
X94730000Y-128277857D01*
X94801429Y-128135000D01*
X94801429Y-126134999D02*
X94801429Y-126849285D01*
X94087143Y-126920714D01*
X94158571Y-126849285D01*
X94230000Y-126706428D01*
X94230000Y-126349285D01*
X94158571Y-126206428D01*
X94087143Y-126134999D01*
X93944286Y-126063571D01*
X93587143Y-126063571D01*
X93444286Y-126134999D01*
X93372857Y-126206428D01*
X93301429Y-126349285D01*
X93301429Y-126706428D01*
X93372857Y-126849285D01*
X93444286Y-126920714D01*
X90761429Y-129135000D02*
X92261429Y-129135000D01*
X92261429Y-128135000D02*
X92261429Y-127849286D01*
X92190000Y-127706428D01*
X92047143Y-127563571D01*
X91761429Y-127492143D01*
X91261429Y-127492143D01*
X90975714Y-127563571D01*
X90832857Y-127706428D01*
X90761429Y-127849286D01*
X90761429Y-128135000D01*
X90832857Y-128277857D01*
X90975714Y-128420714D01*
X91261429Y-128492143D01*
X91761429Y-128492143D01*
X92047143Y-128420714D01*
X92190000Y-128277857D01*
X92261429Y-128135000D01*
X91761429Y-126206428D02*
X90761429Y-126206428D01*
X92332857Y-126563571D02*
X91261429Y-126920714D01*
X91261429Y-125992142D01*
X87110000Y-128777857D02*
X87181429Y-128920714D01*
X87181429Y-129135000D01*
X87110000Y-129349285D01*
X86967143Y-129492143D01*
X86824286Y-129563571D01*
X86538571Y-129635000D01*
X86324286Y-129635000D01*
X86038571Y-129563571D01*
X85895714Y-129492143D01*
X85752857Y-129349285D01*
X85681429Y-129135000D01*
X85681429Y-128992143D01*
X85752857Y-128777857D01*
X85824286Y-128706428D01*
X86324286Y-128706428D01*
X86324286Y-128992143D01*
X85681429Y-128063571D02*
X87181429Y-128063571D01*
X85681429Y-127206428D01*
X87181429Y-127206428D01*
X85681429Y-126492142D02*
X87181429Y-126492142D01*
X87181429Y-126134999D01*
X87110000Y-125920714D01*
X86967143Y-125777856D01*
X86824286Y-125706428D01*
X86538571Y-125634999D01*
X86324286Y-125634999D01*
X86038571Y-125706428D01*
X85895714Y-125777856D01*
X85752857Y-125920714D01*
X85681429Y-126134999D01*
X85681429Y-126492142D01*
X81466429Y-129849285D02*
X81466429Y-128920714D01*
X80895000Y-129420714D01*
X80895000Y-129206428D01*
X80823571Y-129063571D01*
X80752143Y-128992142D01*
X80609286Y-128920714D01*
X80252143Y-128920714D01*
X80109286Y-128992142D01*
X80037857Y-129063571D01*
X79966429Y-129206428D01*
X79966429Y-129635000D01*
X80037857Y-129777857D01*
X80109286Y-129849285D01*
X80109286Y-128277857D02*
X80037857Y-128206429D01*
X79966429Y-128277857D01*
X80037857Y-128349286D01*
X80109286Y-128277857D01*
X79966429Y-128277857D01*
X81466429Y-127706428D02*
X81466429Y-126777857D01*
X80895000Y-127277857D01*
X80895000Y-127063571D01*
X80823571Y-126920714D01*
X80752143Y-126849285D01*
X80609286Y-126777857D01*
X80252143Y-126777857D01*
X80109286Y-126849285D01*
X80037857Y-126920714D01*
X79966429Y-127063571D01*
X79966429Y-127492143D01*
X80037857Y-127635000D01*
X80109286Y-127706428D01*
X81466429Y-126349286D02*
X79966429Y-125849286D01*
X81466429Y-125349286D01*
M02*
