M48
;DRILL file {KiCad 4.0.6} date 07/25/17 01:39:06
;FORMAT={-:-/ absolute / metric / decimal}
FMAT,2
METRIC,TZ
T1C0.400
T2C0.762
T3C0.800
T4C0.900
T5C1.000
%
G90
G05
M71
T1
X83.58Y-73.11
X83.58Y-80.095
X84.85Y-74.38
X86.12Y-75.65
X87.39Y-66.76
X87.39Y-77.555
X104.535Y-75.65
X109.5Y-74.5
X110.25Y-71.84
X110.5Y-77.5
T2
X105.17Y-51.52
X105.17Y-61.68
X107.71Y-61.68
X110.25Y-61.68
X112.79Y-61.68
X115.33Y-51.52
X115.33Y-61.68
T3
X77.23Y-66.76
X77.23Y-74.38
X77.23Y-78.19
X77.23Y-85.81
X82.31Y-66.76
X82.31Y-74.38
X82.31Y-78.19
X82.31Y-85.81
X89.Y-55.
X89.Y-57.5
X112.79Y-71.84
X112.79Y-74.38
X112.79Y-82.
X117.87Y-71.84
X117.87Y-74.38
X117.87Y-82.
T4
X52.5Y-61.25
X52.5Y-63.79
X52.5Y-66.33
X52.5Y-68.87
X52.5Y-71.41
X52.5Y-73.95
X52.5Y-76.49
X52.5Y-79.03
X52.5Y-81.57
X52.5Y-84.11
X52.5Y-86.65
X52.5Y-89.19
X52.5Y-91.73
X52.5Y-94.27
X52.5Y-96.81
X52.5Y-99.35
X52.5Y-101.89
X52.5Y-104.43
X52.5Y-106.97
X52.5Y-109.51
X52.5Y-112.05
X52.5Y-114.59
X52.5Y-117.13
X52.5Y-119.67
X52.5Y-122.21
X52.5Y-124.75
X52.5Y-127.29
X52.5Y-129.83
X52.5Y-132.37
X52.5Y-134.91
X52.5Y-137.45
X55.04Y-61.25
X55.04Y-63.79
X55.04Y-66.33
X55.04Y-68.87
X55.04Y-71.41
X55.04Y-73.95
X55.04Y-76.49
X55.04Y-79.03
X55.04Y-81.57
X55.04Y-84.11
X55.04Y-86.65
X55.04Y-89.19
X55.04Y-91.73
X55.04Y-94.27
X55.04Y-96.81
X55.04Y-99.35
X55.04Y-101.89
X55.04Y-104.43
X55.04Y-106.97
X55.04Y-109.51
X55.04Y-112.05
X55.04Y-114.59
X55.04Y-117.13
X55.04Y-119.67
X55.04Y-122.21
X55.04Y-124.75
X55.04Y-127.29
X55.04Y-129.83
X55.04Y-132.37
X55.04Y-134.91
X55.04Y-137.45
X57.58Y-61.25
X57.58Y-63.79
X57.58Y-66.33
X57.58Y-68.87
X57.58Y-71.41
X57.58Y-73.95
X57.58Y-76.49
X57.58Y-79.03
X57.58Y-81.57
X57.58Y-84.11
X57.58Y-86.65
X57.58Y-89.19
X57.58Y-91.73
X57.58Y-94.27
X57.58Y-96.81
X57.58Y-99.35
X57.58Y-101.89
X57.58Y-104.43
X57.58Y-106.97
X57.58Y-109.51
X57.58Y-112.05
X57.58Y-114.59
X57.58Y-117.13
X57.58Y-119.67
X57.58Y-122.21
X57.58Y-124.75
X57.58Y-127.29
X57.58Y-129.83
X57.58Y-132.37
X57.58Y-134.91
X57.58Y-137.45
X60.12Y-53.63
X60.12Y-56.17
X60.12Y-58.71
X60.12Y-61.25
X60.12Y-63.79
X60.12Y-66.33
X60.12Y-68.87
X60.12Y-71.41
X60.12Y-73.95
X60.12Y-76.49
X60.12Y-79.03
X60.12Y-81.57
X60.12Y-84.11
X60.12Y-86.65
X60.12Y-89.19
X60.12Y-91.73
X60.12Y-94.27
X60.12Y-96.81
X60.12Y-99.35
X60.12Y-101.89
X60.12Y-104.43
X60.12Y-106.97
X60.12Y-109.51
X60.12Y-112.05
X60.12Y-114.59
X60.12Y-117.13
X60.12Y-119.67
X60.12Y-122.21
X60.12Y-124.75
X60.12Y-127.29
X60.12Y-129.83
X60.12Y-132.37
X60.12Y-134.91
X60.12Y-137.45
X60.12Y-139.99
X60.12Y-142.53
X60.12Y-145.07
X60.12Y-147.61
X62.66Y-53.63
X62.66Y-56.17
X62.66Y-58.71
X62.66Y-61.25
X62.66Y-63.79
X62.66Y-66.33
X62.66Y-68.87
X62.66Y-71.41
X62.66Y-73.95
X62.66Y-76.49
X62.66Y-79.03
X62.66Y-81.57
X62.66Y-84.11
X62.66Y-86.65
X62.66Y-89.19
X62.66Y-91.73
X62.66Y-94.27
X62.66Y-96.81
X62.66Y-99.35
X62.66Y-101.89
X62.66Y-104.43
X62.66Y-106.97
X62.66Y-109.51
X62.66Y-112.05
X62.66Y-114.59
X62.66Y-117.13
X62.66Y-119.67
X62.66Y-122.21
X62.66Y-124.75
X62.66Y-127.29
X62.66Y-129.83
X62.66Y-132.37
X62.66Y-134.91
X62.66Y-137.45
X62.66Y-139.99
X62.66Y-142.53
X62.66Y-145.07
X62.66Y-147.61
X65.2Y-53.63
X65.2Y-56.17
X65.2Y-58.71
X65.2Y-61.25
X65.2Y-63.79
X65.2Y-66.33
X65.2Y-68.87
X65.2Y-71.41
X65.2Y-73.95
X65.2Y-76.49
X65.2Y-79.03
X65.2Y-81.57
X65.2Y-84.11
X65.2Y-86.65
X65.2Y-89.19
X65.2Y-91.73
X65.2Y-94.27
X65.2Y-96.81
X65.2Y-99.35
X65.2Y-101.89
X65.2Y-104.43
X65.2Y-106.97
X65.2Y-109.51
X65.2Y-112.05
X65.2Y-114.59
X65.2Y-117.13
X65.2Y-119.67
X65.2Y-122.21
X65.2Y-124.75
X65.2Y-127.29
X65.2Y-129.83
X65.2Y-132.37
X65.2Y-134.91
X65.2Y-137.45
X65.2Y-139.99
X65.2Y-142.53
X65.2Y-145.07
X65.2Y-147.61
X67.74Y-53.63
X67.74Y-56.17
X67.74Y-58.71
X67.74Y-61.25
X67.74Y-63.79
X67.74Y-66.33
X67.74Y-68.87
X67.74Y-71.41
X67.74Y-73.95
X67.74Y-76.49
X67.74Y-79.03
X67.74Y-81.57
X67.74Y-84.11
X67.74Y-86.65
X67.74Y-89.19
X67.74Y-91.73
X67.74Y-94.27
X67.74Y-96.81
X67.74Y-99.35
X67.74Y-101.89
X67.74Y-104.43
X67.74Y-106.97
X67.74Y-109.51
X67.74Y-112.05
X67.74Y-114.59
X67.74Y-117.13
X67.74Y-119.67
X67.74Y-122.21
X67.74Y-124.75
X67.74Y-127.29
X67.74Y-129.83
X67.74Y-132.37
X67.74Y-134.91
X67.74Y-137.45
X67.74Y-139.99
X67.74Y-142.53
X67.74Y-145.07
X67.74Y-147.61
X70.28Y-53.63
X70.28Y-56.17
X70.28Y-58.71
X70.28Y-61.25
X70.28Y-63.79
X70.28Y-66.33
X70.28Y-68.87
X70.28Y-71.41
X70.28Y-73.95
X70.28Y-76.49
X70.28Y-79.03
X70.28Y-81.57
X70.28Y-84.11
X70.28Y-86.65
X70.28Y-89.19
X70.28Y-91.73
X70.28Y-94.27
X70.28Y-96.81
X70.28Y-99.35
X70.28Y-101.89
X70.28Y-104.43
X70.28Y-106.97
X70.28Y-109.51
X70.28Y-112.05
X70.28Y-114.59
X70.28Y-117.13
X70.28Y-119.67
X70.28Y-122.21
X70.28Y-124.75
X70.28Y-127.29
X70.28Y-129.83
X70.28Y-132.37
X70.28Y-134.91
X70.28Y-137.45
X70.28Y-139.99
X70.28Y-142.53
X70.28Y-145.07
X70.28Y-147.61
X72.82Y-53.63
X72.82Y-56.17
X72.82Y-58.71
X72.82Y-61.25
X72.82Y-63.79
X72.82Y-66.33
X72.82Y-68.87
X72.82Y-71.41
X72.82Y-73.95
X72.82Y-76.49
X72.82Y-79.03
X72.82Y-81.57
X72.82Y-84.11
X72.82Y-86.65
X72.82Y-89.19
X72.82Y-91.73
X72.82Y-94.27
X72.82Y-96.81
X72.82Y-99.35
X72.82Y-101.89
X72.82Y-104.43
X72.82Y-106.97
X72.82Y-109.51
X72.82Y-112.05
X72.82Y-114.59
X72.82Y-117.13
X72.82Y-119.67
X72.82Y-122.21
X72.82Y-124.75
X72.82Y-127.29
X72.82Y-129.83
X72.82Y-132.37
X72.82Y-134.91
X72.82Y-137.45
X72.82Y-139.99
X72.82Y-142.53
X72.82Y-145.07
X72.82Y-147.61
X75.36Y-89.19
X75.36Y-91.73
X75.36Y-94.27
X75.36Y-96.81
X75.36Y-99.35
X75.36Y-101.89
X75.36Y-104.43
X75.36Y-106.97
X75.36Y-109.51
X75.36Y-112.05
X75.36Y-114.59
X75.36Y-117.13
X75.36Y-119.67
X75.36Y-122.21
X75.36Y-124.75
X75.36Y-127.29
X75.36Y-129.83
X75.36Y-132.37
X75.36Y-134.91
X75.36Y-137.45
X75.36Y-139.99
X75.36Y-142.53
X75.36Y-145.07
X75.36Y-147.61
X77.9Y-89.19
X77.9Y-91.73
X77.9Y-94.27
X77.9Y-96.81
X77.9Y-99.35
X77.9Y-101.89
X77.9Y-104.43
X77.9Y-106.97
X77.9Y-109.51
X77.9Y-112.05
X77.9Y-114.59
X77.9Y-117.13
X77.9Y-119.67
X77.9Y-122.21
X77.9Y-124.75
X77.9Y-127.29
X77.9Y-129.83
X77.9Y-132.37
X77.9Y-134.91
X77.9Y-137.45
X77.9Y-139.99
X77.9Y-142.53
X77.9Y-145.07
X77.9Y-147.61
X80.44Y-89.19
X80.44Y-91.73
X80.44Y-94.27
X80.44Y-96.81
X80.44Y-99.35
X80.44Y-101.89
X80.44Y-104.43
X80.44Y-106.97
X80.44Y-109.51
X80.44Y-112.05
X80.44Y-114.59
X80.44Y-117.13
X80.44Y-119.67
X80.44Y-122.21
X80.44Y-124.75
X80.44Y-127.29
X80.44Y-129.83
X80.44Y-132.37
X80.44Y-134.91
X80.44Y-137.45
X80.44Y-139.99
X80.44Y-142.53
X80.44Y-145.07
X80.44Y-147.61
X82.98Y-89.19
X82.98Y-91.73
X82.98Y-94.27
X82.98Y-96.81
X82.98Y-99.35
X82.98Y-101.89
X82.98Y-104.43
X82.98Y-106.97
X82.98Y-109.51
X82.98Y-112.05
X82.98Y-114.59
X82.98Y-117.13
X82.98Y-119.67
X82.98Y-122.21
X82.98Y-124.75
X82.98Y-127.29
X82.98Y-129.83
X82.98Y-132.37
X82.98Y-134.91
X82.98Y-137.45
X82.98Y-139.99
X82.98Y-142.53
X82.98Y-145.07
X82.98Y-147.61
X84.85Y-86.445
X85.52Y-89.19
X85.52Y-91.73
X85.52Y-94.27
X85.52Y-96.81
X85.52Y-99.35
X85.52Y-101.89
X85.52Y-104.43
X85.52Y-106.97
X85.52Y-109.51
X85.52Y-112.05
X85.52Y-114.59
X85.52Y-117.13
X85.52Y-119.67
X85.52Y-122.21
X85.52Y-124.75
X85.52Y-127.29
X85.52Y-129.83
X85.52Y-132.37
X85.52Y-134.91
X85.52Y-137.45
X85.52Y-139.99
X85.52Y-142.53
X85.52Y-145.07
X85.52Y-147.61
X87.39Y-86.445
X88.06Y-89.19
X88.06Y-91.73
X88.06Y-94.27
X88.06Y-96.81
X88.06Y-99.35
X88.06Y-101.89
X88.06Y-104.43
X88.06Y-106.97
X88.06Y-109.51
X88.06Y-112.05
X88.06Y-114.59
X88.06Y-117.13
X88.06Y-119.67
X88.06Y-122.21
X88.06Y-124.75
X88.06Y-127.29
X88.06Y-129.83
X88.06Y-132.37
X88.06Y-134.91
X88.06Y-137.45
X88.06Y-139.99
X88.06Y-142.53
X88.06Y-145.07
X88.06Y-147.61
X89.93Y-86.445
X90.6Y-89.19
X90.6Y-91.73
X90.6Y-94.27
X90.6Y-96.81
X90.6Y-99.35
X90.6Y-101.89
X90.6Y-104.43
X90.6Y-106.97
X90.6Y-109.51
X90.6Y-112.05
X90.6Y-114.59
X90.6Y-117.13
X90.6Y-119.67
X90.6Y-122.21
X90.6Y-124.75
X90.6Y-127.29
X90.6Y-129.83
X90.6Y-132.37
X90.6Y-134.91
X90.6Y-137.45
X90.6Y-139.99
X90.6Y-142.53
X90.6Y-145.07
X90.6Y-147.61
X93.14Y-89.19
X93.14Y-91.73
X93.14Y-94.27
X93.14Y-96.81
X93.14Y-99.35
X93.14Y-101.89
X93.14Y-104.43
X93.14Y-106.97
X93.14Y-109.51
X93.14Y-112.05
X93.14Y-114.59
X93.14Y-117.13
X93.14Y-119.67
X93.14Y-122.21
X93.14Y-124.75
X93.14Y-127.29
X93.14Y-129.83
X93.14Y-132.37
X93.14Y-134.91
X93.14Y-137.45
X93.14Y-139.99
X93.14Y-142.53
X93.14Y-145.07
X93.14Y-147.61
X95.645Y-86.445
X95.68Y-89.19
X95.68Y-91.73
X95.68Y-94.27
X95.68Y-96.81
X95.68Y-99.35
X95.68Y-101.89
X95.68Y-104.43
X95.68Y-106.97
X95.68Y-109.51
X95.68Y-112.05
X95.68Y-114.59
X95.68Y-117.13
X95.68Y-119.67
X95.68Y-122.21
X95.68Y-124.75
X95.68Y-127.29
X95.68Y-129.83
X95.68Y-132.37
X95.68Y-134.91
X95.68Y-137.45
X95.68Y-139.99
X95.68Y-142.53
X95.68Y-145.07
X95.68Y-147.61
X98.22Y-89.19
X98.22Y-91.73
X98.22Y-94.27
X98.22Y-96.81
X98.22Y-99.35
X98.22Y-101.89
X98.22Y-104.43
X98.22Y-106.97
X98.22Y-109.51
X98.22Y-112.05
X98.22Y-114.59
X98.22Y-117.13
X98.22Y-119.67
X98.22Y-122.21
X98.22Y-124.75
X98.22Y-127.29
X98.22Y-129.83
X98.22Y-132.37
X98.22Y-134.91
X98.22Y-137.45
X98.22Y-139.99
X98.22Y-142.53
X98.22Y-145.07
X98.22Y-147.61
X100.76Y-89.19
X100.76Y-91.73
X100.76Y-94.27
X100.76Y-96.81
X100.76Y-99.35
X100.76Y-101.89
X100.76Y-104.43
X100.76Y-106.97
X100.76Y-109.51
X100.76Y-112.05
X100.76Y-114.59
X100.76Y-117.13
X100.76Y-119.67
X100.76Y-122.21
X100.76Y-124.75
X100.76Y-127.29
X100.76Y-129.83
X100.76Y-132.37
X100.76Y-134.91
X100.76Y-137.45
X100.76Y-139.99
X100.76Y-142.53
X100.76Y-145.07
X100.76Y-147.61
X101.36Y-86.445
X103.3Y-89.19
X103.3Y-91.73
X103.3Y-94.27
X103.3Y-96.81
X103.3Y-99.35
X103.3Y-101.89
X103.3Y-104.43
X103.3Y-106.97
X103.3Y-109.51
X103.3Y-112.05
X103.3Y-114.59
X103.3Y-117.13
X103.3Y-119.67
X103.3Y-122.21
X103.3Y-124.75
X103.3Y-127.29
X103.3Y-129.83
X103.3Y-132.37
X103.3Y-134.91
X103.3Y-137.45
X103.3Y-139.99
X103.3Y-142.53
X103.3Y-145.07
X103.3Y-147.61
X105.84Y-89.19
X105.84Y-91.73
X105.84Y-94.27
X105.84Y-96.81
X105.84Y-99.35
X105.84Y-101.89
X105.84Y-104.43
X105.84Y-106.97
X105.84Y-109.51
X105.84Y-112.05
X105.84Y-114.59
X105.84Y-117.13
X105.84Y-119.67
X105.84Y-122.21
X105.84Y-124.75
X105.84Y-127.29
X105.84Y-129.83
X105.84Y-132.37
X105.84Y-134.91
X105.84Y-137.45
X105.84Y-139.99
X105.84Y-142.53
X105.84Y-145.07
X105.84Y-147.61
X106.44Y-86.445
X108.38Y-89.19
X108.38Y-91.73
X108.38Y-94.27
X108.38Y-96.81
X108.38Y-99.35
X108.38Y-101.89
X108.38Y-104.43
X108.38Y-106.97
X108.38Y-109.51
X108.38Y-112.05
X108.38Y-114.59
X108.38Y-117.13
X108.38Y-119.67
X108.38Y-122.21
X108.38Y-124.75
X108.38Y-127.29
X108.38Y-129.83
X108.38Y-132.37
X108.38Y-134.91
X108.38Y-137.45
X108.38Y-139.99
X108.38Y-142.53
X108.38Y-145.07
X108.38Y-147.61
X108.98Y-86.445
X110.25Y-64.22
X110.92Y-89.19
X110.92Y-91.73
X110.92Y-94.27
X110.92Y-96.81
X110.92Y-99.35
X110.92Y-101.89
X110.92Y-104.43
X110.92Y-106.97
X110.92Y-109.51
X110.92Y-112.05
X110.92Y-114.59
X110.92Y-117.13
X110.92Y-119.67
X110.92Y-122.21
X110.92Y-124.75
X110.92Y-127.29
X110.92Y-129.83
X110.92Y-132.37
X110.92Y-134.91
X110.92Y-137.45
X110.92Y-139.99
X110.92Y-142.53
X110.92Y-145.07
X110.92Y-147.61
X111.52Y-86.445
X112.79Y-64.22
X113.46Y-89.19
X113.46Y-91.73
X113.46Y-94.27
X113.46Y-96.81
X113.46Y-99.35
X113.46Y-101.89
X113.46Y-104.43
X113.46Y-106.97
X113.46Y-109.51
X113.46Y-112.05
X113.46Y-114.59
X113.46Y-117.13
X113.46Y-119.67
X113.46Y-122.21
X113.46Y-124.75
X113.46Y-127.29
X113.46Y-129.83
X113.46Y-132.37
X113.46Y-134.91
X113.46Y-137.45
X113.46Y-139.99
X113.46Y-142.53
X113.46Y-145.07
X113.46Y-147.61
X114.06Y-86.445
X116.Y-89.19
X116.Y-91.73
X116.Y-94.27
X116.Y-96.81
X116.Y-99.35
X116.Y-101.89
X116.Y-104.43
X116.Y-106.97
X116.Y-109.51
X116.Y-112.05
X116.Y-114.59
X116.Y-117.13
X116.Y-119.67
X116.Y-122.21
X116.Y-124.75
X116.Y-127.29
X116.Y-129.83
X116.Y-132.37
X116.Y-134.91
X116.Y-137.45
X116.Y-139.99
X116.Y-142.53
X116.Y-145.07
X116.Y-147.61
X116.6Y-86.445
X118.54Y-89.19
X118.54Y-91.73
X118.54Y-94.27
X118.54Y-96.81
X118.54Y-99.35
X118.54Y-101.89
X118.54Y-104.43
X118.54Y-106.97
X118.54Y-109.51
X118.54Y-112.05
X118.54Y-114.59
X118.54Y-117.13
X118.54Y-119.67
X118.54Y-122.21
X118.54Y-124.75
X118.54Y-127.29
X118.54Y-129.83
X118.54Y-132.37
X118.54Y-134.91
X118.54Y-137.45
X118.54Y-139.99
X118.54Y-142.53
X118.54Y-145.07
X118.54Y-147.61
X119.14Y-86.445
X121.08Y-89.19
X121.08Y-91.73
X121.08Y-94.27
X121.08Y-96.81
X121.08Y-99.35
X121.08Y-101.89
X121.08Y-104.43
X121.08Y-106.97
X121.08Y-109.51
X121.08Y-112.05
X121.08Y-114.59
X121.08Y-117.13
X121.08Y-119.67
X121.08Y-122.21
X121.08Y-124.75
X121.08Y-127.29
X121.08Y-129.83
X121.08Y-132.37
X121.08Y-134.91
X121.08Y-137.45
X121.08Y-139.99
X121.08Y-142.53
X121.08Y-145.07
X121.08Y-147.61
X123.62Y-89.19
X123.62Y-91.73
X123.62Y-94.27
X123.62Y-96.81
X123.62Y-99.35
X123.62Y-101.89
X123.62Y-104.43
X123.62Y-106.97
X123.62Y-109.51
X123.62Y-112.05
X123.62Y-114.59
X123.62Y-117.13
X123.62Y-119.67
X123.62Y-122.21
X123.62Y-124.75
X123.62Y-127.29
X123.62Y-129.83
X123.62Y-132.37
X123.62Y-134.91
X123.62Y-137.45
X123.62Y-139.99
X123.62Y-142.53
X123.62Y-145.07
X123.62Y-147.61
X126.16Y-89.19
X126.16Y-91.73
X126.16Y-94.27
X126.16Y-96.81
X126.16Y-99.35
X126.16Y-101.89
X126.16Y-104.43
X126.16Y-106.97
X126.16Y-109.51
X126.16Y-112.05
X126.16Y-114.59
X126.16Y-117.13
X126.16Y-119.67
X126.16Y-122.21
X126.16Y-124.75
X126.16Y-127.29
X126.16Y-129.83
X126.16Y-132.37
X126.16Y-134.91
X126.16Y-137.45
X126.16Y-139.99
X126.16Y-142.53
X126.16Y-145.07
X126.16Y-147.61
X128.7Y-53.63
X128.7Y-56.17
X128.7Y-58.71
X128.7Y-61.25
X128.7Y-63.79
X128.7Y-66.33
X128.7Y-68.87
X128.7Y-71.41
X128.7Y-73.95
X128.7Y-76.49
X128.7Y-79.03
X128.7Y-81.57
X128.7Y-84.11
X128.7Y-86.65
X128.7Y-89.19
X128.7Y-91.73
X128.7Y-94.27
X128.7Y-96.81
X128.7Y-99.35
X128.7Y-101.89
X128.7Y-104.43
X128.7Y-106.97
X128.7Y-109.51
X128.7Y-112.05
X128.7Y-114.59
X128.7Y-117.13
X128.7Y-119.67
X128.7Y-122.21
X128.7Y-124.75
X128.7Y-127.29
X128.7Y-129.83
X128.7Y-132.37
X128.7Y-134.91
X128.7Y-137.45
X128.7Y-139.99
X128.7Y-142.53
X128.7Y-145.07
X128.7Y-147.61
X131.24Y-53.63
X131.24Y-56.17
X131.24Y-58.71
X131.24Y-61.25
X131.24Y-63.79
X131.24Y-66.33
X131.24Y-68.87
X131.24Y-71.41
X131.24Y-73.95
X131.24Y-76.49
X131.24Y-79.03
X131.24Y-81.57
X131.24Y-84.11
X131.24Y-86.65
X131.24Y-89.19
X131.24Y-91.73
X131.24Y-94.27
X131.24Y-96.81
X131.24Y-99.35
X131.24Y-101.89
X131.24Y-104.43
X131.24Y-106.97
X131.24Y-109.51
X131.24Y-112.05
X131.24Y-114.59
X131.24Y-117.13
X131.24Y-119.67
X131.24Y-122.21
X131.24Y-124.75
X131.24Y-127.29
X131.24Y-129.83
X131.24Y-132.37
X131.24Y-134.91
X131.24Y-137.45
X131.24Y-139.99
X131.24Y-142.53
X131.24Y-145.07
X131.24Y-147.61
X133.78Y-53.63
X133.78Y-56.17
X133.78Y-58.71
X133.78Y-61.25
X133.78Y-63.79
X133.78Y-66.33
X133.78Y-68.87
X133.78Y-71.41
X133.78Y-73.95
X133.78Y-76.49
X133.78Y-79.03
X133.78Y-81.57
X133.78Y-84.11
X133.78Y-86.65
X133.78Y-89.19
X133.78Y-91.73
X133.78Y-94.27
X133.78Y-96.81
X133.78Y-99.35
X133.78Y-101.89
X133.78Y-104.43
X133.78Y-106.97
X133.78Y-109.51
X133.78Y-112.05
X133.78Y-114.59
X133.78Y-117.13
X133.78Y-119.67
X133.78Y-122.21
X133.78Y-124.75
X133.78Y-127.29
X133.78Y-129.83
X133.78Y-132.37
X133.78Y-134.91
X133.78Y-137.45
X133.78Y-139.99
X133.78Y-142.53
X133.78Y-145.07
X133.78Y-147.61
X136.32Y-53.63
X136.32Y-56.17
X136.32Y-58.71
X136.32Y-61.25
X136.32Y-63.79
X136.32Y-66.33
X136.32Y-68.87
X136.32Y-71.41
X136.32Y-73.95
X136.32Y-76.49
X136.32Y-79.03
X136.32Y-81.57
X136.32Y-84.11
X136.32Y-86.65
X136.32Y-89.19
X136.32Y-91.73
X136.32Y-94.27
X136.32Y-96.81
X136.32Y-99.35
X136.32Y-101.89
X136.32Y-104.43
X136.32Y-106.97
X136.32Y-109.51
X136.32Y-112.05
X136.32Y-114.59
X136.32Y-117.13
X136.32Y-119.67
X136.32Y-122.21
X136.32Y-124.75
X136.32Y-127.29
X136.32Y-129.83
X136.32Y-132.37
X136.32Y-134.91
X136.32Y-137.45
X136.32Y-139.99
X136.32Y-142.53
X136.32Y-145.07
X136.32Y-147.61
X138.86Y-53.63
X138.86Y-56.17
X138.86Y-58.71
X138.86Y-61.25
X138.86Y-63.79
X138.86Y-66.33
X138.86Y-68.87
X138.86Y-71.41
X138.86Y-73.95
X138.86Y-76.49
X138.86Y-79.03
X138.86Y-81.57
X138.86Y-84.11
X138.86Y-86.65
X138.86Y-89.19
X138.86Y-91.73
X138.86Y-94.27
X138.86Y-96.81
X138.86Y-99.35
X138.86Y-101.89
X138.86Y-104.43
X138.86Y-106.97
X138.86Y-109.51
X138.86Y-112.05
X138.86Y-114.59
X138.86Y-117.13
X138.86Y-119.67
X138.86Y-122.21
X138.86Y-124.75
X138.86Y-127.29
X138.86Y-129.83
X138.86Y-132.37
X138.86Y-134.91
X138.86Y-137.45
X138.86Y-139.99
X138.86Y-142.53
X138.86Y-145.07
X138.86Y-147.61
X141.4Y-61.25
X141.4Y-63.79
X141.4Y-66.33
X141.4Y-68.87
X141.4Y-71.41
X141.4Y-73.95
X141.4Y-76.49
X141.4Y-79.03
X141.4Y-81.57
X141.4Y-84.11
X141.4Y-86.65
X141.4Y-89.19
X141.4Y-91.73
X141.4Y-94.27
X141.4Y-96.81
X141.4Y-99.35
X141.4Y-101.89
X141.4Y-104.43
X141.4Y-106.97
X141.4Y-109.51
X141.4Y-112.05
X141.4Y-114.59
X141.4Y-117.13
X141.4Y-119.67
X141.4Y-122.21
X141.4Y-124.75
X141.4Y-127.29
X141.4Y-129.83
X141.4Y-132.37
X141.4Y-134.91
X141.4Y-137.45
X143.94Y-61.25
X143.94Y-63.79
X143.94Y-66.33
X143.94Y-68.87
X143.94Y-71.41
X143.94Y-73.95
X143.94Y-76.49
X143.94Y-79.03
X143.94Y-81.57
X143.94Y-84.11
X143.94Y-86.65
X143.94Y-89.19
X143.94Y-91.73
X143.94Y-94.27
X143.94Y-96.81
X143.94Y-99.35
X143.94Y-101.89
X143.94Y-104.43
X143.94Y-106.97
X143.94Y-109.51
X143.94Y-112.05
X143.94Y-114.59
X143.94Y-117.13
X143.94Y-119.67
X143.94Y-122.21
X143.94Y-124.75
X143.94Y-127.29
X143.94Y-129.83
X143.94Y-132.37
X143.94Y-134.91
X143.94Y-137.45
X146.48Y-61.25
X146.48Y-63.79
X146.48Y-66.33
X146.48Y-68.87
X146.48Y-71.41
X146.48Y-73.95
X146.48Y-76.49
X146.48Y-79.03
X146.48Y-81.57
X146.48Y-84.11
X146.48Y-86.65
X146.48Y-89.19
X146.48Y-91.73
X146.48Y-94.27
X146.48Y-96.81
X146.48Y-99.35
X146.48Y-101.89
X146.48Y-104.43
X146.48Y-106.97
X146.48Y-109.51
X146.48Y-112.05
X146.48Y-114.59
X146.48Y-117.13
X146.48Y-119.67
X146.48Y-122.21
X146.48Y-124.75
X146.48Y-127.29
X146.48Y-129.83
X146.48Y-132.37
X146.48Y-134.91
X146.48Y-137.45
T5
X122.95Y-65.49
X122.95Y-68.03
X122.95Y-70.57
X122.95Y-78.19
X122.95Y-80.73
X122.95Y-83.27
T0
M30
