G04 #@! TF.FileFunction,Legend,Top*
%FSLAX46Y46*%
G04 Gerber Fmt 4.6, Leading zero omitted, Abs format (unit mm)*
G04 Created by KiCad (PCBNEW 4.0.6) date 07/25/17 01:39:03*
%MOMM*%
%LPD*%
G01*
G04 APERTURE LIST*
%ADD10C,0.100000*%
%ADD11C,0.250000*%
%ADD12C,0.120000*%
%ADD13C,0.150000*%
G04 APERTURE END LIST*
D10*
D11*
X121410000Y-80622857D02*
X120648095Y-80622857D01*
X120171905Y-81051429D02*
X119410000Y-80622857D01*
X120171905Y-80194286D01*
X119410000Y-78297143D02*
X120171905Y-78297143D01*
X120648095Y-77868571D02*
X121410000Y-78297143D01*
X120648095Y-78725714D01*
D12*
X96590000Y-61350000D02*
X97290000Y-61350000D01*
X97290000Y-62550000D02*
X96590000Y-62550000D01*
X101100000Y-62550000D02*
X100400000Y-62550000D01*
X100400000Y-61350000D02*
X101100000Y-61350000D01*
X84950000Y-56250000D02*
X93050000Y-56250000D01*
X84950000Y-56210000D02*
X93050000Y-56210000D01*
X84950000Y-56170000D02*
X93050000Y-56170000D01*
X84951000Y-56130000D02*
X93049000Y-56130000D01*
X84953000Y-56090000D02*
X93047000Y-56090000D01*
X84954000Y-56050000D02*
X93046000Y-56050000D01*
X84957000Y-56010000D02*
X93043000Y-56010000D01*
X84959000Y-55970000D02*
X88020000Y-55970000D01*
X89980000Y-55970000D02*
X93041000Y-55970000D01*
X84962000Y-55930000D02*
X88020000Y-55930000D01*
X89980000Y-55930000D02*
X93038000Y-55930000D01*
X84965000Y-55890000D02*
X88020000Y-55890000D01*
X89980000Y-55890000D02*
X93035000Y-55890000D01*
X84969000Y-55850000D02*
X88020000Y-55850000D01*
X89980000Y-55850000D02*
X93031000Y-55850000D01*
X84973000Y-55810000D02*
X88020000Y-55810000D01*
X89980000Y-55810000D02*
X93027000Y-55810000D01*
X84978000Y-55770000D02*
X88020000Y-55770000D01*
X89980000Y-55770000D02*
X93022000Y-55770000D01*
X84983000Y-55730000D02*
X88020000Y-55730000D01*
X89980000Y-55730000D02*
X93017000Y-55730000D01*
X84988000Y-55690000D02*
X88020000Y-55690000D01*
X89980000Y-55690000D02*
X93012000Y-55690000D01*
X84994000Y-55650000D02*
X88020000Y-55650000D01*
X89980000Y-55650000D02*
X93006000Y-55650000D01*
X85000000Y-55610000D02*
X88020000Y-55610000D01*
X89980000Y-55610000D02*
X93000000Y-55610000D01*
X85006000Y-55570000D02*
X88020000Y-55570000D01*
X89980000Y-55570000D02*
X92994000Y-55570000D01*
X85013000Y-55529000D02*
X88020000Y-55529000D01*
X89980000Y-55529000D02*
X92987000Y-55529000D01*
X85021000Y-55489000D02*
X88020000Y-55489000D01*
X89980000Y-55489000D02*
X92979000Y-55489000D01*
X85029000Y-55449000D02*
X88020000Y-55449000D01*
X89980000Y-55449000D02*
X92971000Y-55449000D01*
X85037000Y-55409000D02*
X88020000Y-55409000D01*
X89980000Y-55409000D02*
X92963000Y-55409000D01*
X85045000Y-55369000D02*
X88020000Y-55369000D01*
X89980000Y-55369000D02*
X92955000Y-55369000D01*
X85054000Y-55329000D02*
X88020000Y-55329000D01*
X89980000Y-55329000D02*
X92946000Y-55329000D01*
X85064000Y-55289000D02*
X88020000Y-55289000D01*
X89980000Y-55289000D02*
X92936000Y-55289000D01*
X85074000Y-55249000D02*
X88020000Y-55249000D01*
X89980000Y-55249000D02*
X92926000Y-55249000D01*
X85084000Y-55209000D02*
X88020000Y-55209000D01*
X89980000Y-55209000D02*
X92916000Y-55209000D01*
X85095000Y-55169000D02*
X88020000Y-55169000D01*
X89980000Y-55169000D02*
X92905000Y-55169000D01*
X85106000Y-55129000D02*
X88020000Y-55129000D01*
X89980000Y-55129000D02*
X92894000Y-55129000D01*
X85117000Y-55089000D02*
X88020000Y-55089000D01*
X89980000Y-55089000D02*
X92883000Y-55089000D01*
X85130000Y-55049000D02*
X88020000Y-55049000D01*
X89980000Y-55049000D02*
X92870000Y-55049000D01*
X85142000Y-55009000D02*
X88020000Y-55009000D01*
X89980000Y-55009000D02*
X92858000Y-55009000D01*
X85155000Y-54969000D02*
X88020000Y-54969000D01*
X89980000Y-54969000D02*
X92845000Y-54969000D01*
X85168000Y-54929000D02*
X88020000Y-54929000D01*
X89980000Y-54929000D02*
X92832000Y-54929000D01*
X85182000Y-54889000D02*
X88020000Y-54889000D01*
X89980000Y-54889000D02*
X92818000Y-54889000D01*
X85197000Y-54849000D02*
X88020000Y-54849000D01*
X89980000Y-54849000D02*
X92803000Y-54849000D01*
X85211000Y-54809000D02*
X88020000Y-54809000D01*
X89980000Y-54809000D02*
X92789000Y-54809000D01*
X85227000Y-54769000D02*
X88020000Y-54769000D01*
X89980000Y-54769000D02*
X92773000Y-54769000D01*
X85242000Y-54729000D02*
X88020000Y-54729000D01*
X89980000Y-54729000D02*
X92758000Y-54729000D01*
X85259000Y-54689000D02*
X88020000Y-54689000D01*
X89980000Y-54689000D02*
X92741000Y-54689000D01*
X85275000Y-54649000D02*
X88020000Y-54649000D01*
X89980000Y-54649000D02*
X92725000Y-54649000D01*
X85293000Y-54609000D02*
X88020000Y-54609000D01*
X89980000Y-54609000D02*
X92707000Y-54609000D01*
X85310000Y-54569000D02*
X88020000Y-54569000D01*
X89980000Y-54569000D02*
X92690000Y-54569000D01*
X85329000Y-54529000D02*
X88020000Y-54529000D01*
X89980000Y-54529000D02*
X92671000Y-54529000D01*
X85348000Y-54489000D02*
X88020000Y-54489000D01*
X89980000Y-54489000D02*
X92652000Y-54489000D01*
X85367000Y-54449000D02*
X88020000Y-54449000D01*
X89980000Y-54449000D02*
X92633000Y-54449000D01*
X85387000Y-54409000D02*
X88020000Y-54409000D01*
X89980000Y-54409000D02*
X92613000Y-54409000D01*
X85407000Y-54369000D02*
X88020000Y-54369000D01*
X89980000Y-54369000D02*
X92593000Y-54369000D01*
X85428000Y-54329000D02*
X88020000Y-54329000D01*
X89980000Y-54329000D02*
X92572000Y-54329000D01*
X85450000Y-54289000D02*
X88020000Y-54289000D01*
X89980000Y-54289000D02*
X92550000Y-54289000D01*
X85472000Y-54249000D02*
X88020000Y-54249000D01*
X89980000Y-54249000D02*
X92528000Y-54249000D01*
X85495000Y-54209000D02*
X88020000Y-54209000D01*
X89980000Y-54209000D02*
X92505000Y-54209000D01*
X85518000Y-54169000D02*
X88020000Y-54169000D01*
X89980000Y-54169000D02*
X92482000Y-54169000D01*
X85542000Y-54129000D02*
X88020000Y-54129000D01*
X89980000Y-54129000D02*
X92458000Y-54129000D01*
X85566000Y-54089000D02*
X88020000Y-54089000D01*
X89980000Y-54089000D02*
X92434000Y-54089000D01*
X85592000Y-54049000D02*
X88020000Y-54049000D01*
X89980000Y-54049000D02*
X92408000Y-54049000D01*
X85617000Y-54009000D02*
X92383000Y-54009000D01*
X85644000Y-53969000D02*
X92356000Y-53969000D01*
X85671000Y-53929000D02*
X92329000Y-53929000D01*
X85699000Y-53889000D02*
X92301000Y-53889000D01*
X85728000Y-53849000D02*
X92272000Y-53849000D01*
X85757000Y-53809000D02*
X92243000Y-53809000D01*
X85787000Y-53769000D02*
X92213000Y-53769000D01*
X85818000Y-53729000D02*
X92182000Y-53729000D01*
X85850000Y-53689000D02*
X92150000Y-53689000D01*
X85882000Y-53649000D02*
X92118000Y-53649000D01*
X85916000Y-53609000D02*
X92084000Y-53609000D01*
X85950000Y-53569000D02*
X92050000Y-53569000D01*
X85985000Y-53529000D02*
X92015000Y-53529000D01*
X86021000Y-53489000D02*
X91979000Y-53489000D01*
X86058000Y-53449000D02*
X91942000Y-53449000D01*
X86096000Y-53409000D02*
X91904000Y-53409000D01*
X86135000Y-53369000D02*
X91865000Y-53369000D01*
X86176000Y-53329000D02*
X91824000Y-53329000D01*
X86217000Y-53289000D02*
X91783000Y-53289000D01*
X86260000Y-53249000D02*
X91740000Y-53249000D01*
X86303000Y-53209000D02*
X91697000Y-53209000D01*
X86348000Y-53169000D02*
X91652000Y-53169000D01*
X86395000Y-53129000D02*
X91605000Y-53129000D01*
X86443000Y-53089000D02*
X91557000Y-53089000D01*
X86492000Y-53049000D02*
X91508000Y-53049000D01*
X86543000Y-53009000D02*
X91457000Y-53009000D01*
X86596000Y-52969000D02*
X91404000Y-52969000D01*
X86651000Y-52929000D02*
X91349000Y-52929000D01*
X86707000Y-52889000D02*
X91293000Y-52889000D01*
X86766000Y-52849000D02*
X91234000Y-52849000D01*
X86827000Y-52809000D02*
X91173000Y-52809000D01*
X86891000Y-52769000D02*
X91109000Y-52769000D01*
X86957000Y-52729000D02*
X91043000Y-52729000D01*
X87026000Y-52689000D02*
X90974000Y-52689000D01*
X87098000Y-52649000D02*
X90902000Y-52649000D01*
X87174000Y-52609000D02*
X90826000Y-52609000D01*
X87255000Y-52569000D02*
X90745000Y-52569000D01*
X87340000Y-52529000D02*
X90660000Y-52529000D01*
X87430000Y-52489000D02*
X90570000Y-52489000D01*
X87527000Y-52449000D02*
X90473000Y-52449000D01*
X87631000Y-52409000D02*
X90369000Y-52409000D01*
X87746000Y-52369000D02*
X90254000Y-52369000D01*
X87873000Y-52329000D02*
X90127000Y-52329000D01*
X88017000Y-52289000D02*
X89983000Y-52289000D01*
X88186000Y-52249000D02*
X89814000Y-52249000D01*
X88402000Y-52209000D02*
X89598000Y-52209000D01*
X88754000Y-52169000D02*
X89246000Y-52169000D01*
X89000000Y-59700000D02*
X89000000Y-58500000D01*
X88350000Y-59100000D02*
X89650000Y-59100000D01*
X93090000Y-56250000D02*
G75*
G03X93090000Y-56250000I-4090000J0D01*
G01*
X118600000Y-60950000D02*
X118600000Y-62050000D01*
X118600000Y-62050000D02*
X121200000Y-62050000D01*
X118600000Y-60950000D02*
X121200000Y-60950000D01*
X121620000Y-79460000D02*
X121620000Y-84600000D01*
X121620000Y-84600000D02*
X124280000Y-84600000D01*
X124280000Y-84600000D02*
X124280000Y-79460000D01*
X124280000Y-79460000D02*
X121620000Y-79460000D01*
X121620000Y-78190000D02*
X121620000Y-76860000D01*
X121620000Y-76860000D02*
X122950000Y-76860000D01*
D13*
X103900000Y-62950000D02*
X116600000Y-62950000D01*
X103900000Y-50250000D02*
X103900000Y-62950000D01*
X116600000Y-50250000D02*
X103900000Y-50250000D01*
X116600000Y-62950000D02*
X116600000Y-50250000D01*
D12*
X125570000Y-62910000D02*
X125570000Y-73150000D01*
X120929000Y-62910000D02*
X120929000Y-73150000D01*
X125570000Y-62910000D02*
X120929000Y-62910000D01*
X125570000Y-73150000D02*
X120929000Y-73150000D01*
X124060000Y-62910000D02*
X124060000Y-73150000D01*
X125570000Y-66180000D02*
X124060000Y-66180000D01*
X125570000Y-69881000D02*
X124060000Y-69881000D01*
X86500000Y-82680000D02*
X85500000Y-82680000D01*
X85500000Y-81320000D02*
X86500000Y-81320000D01*
X86500000Y-81180000D02*
X85500000Y-81180000D01*
X85500000Y-79820000D02*
X86500000Y-79820000D01*
X85500000Y-78320000D02*
X86500000Y-78320000D01*
X86500000Y-79680000D02*
X85500000Y-79680000D01*
X86500000Y-73680000D02*
X85500000Y-73680000D01*
X85500000Y-72320000D02*
X86500000Y-72320000D01*
X109820000Y-75000000D02*
X109820000Y-74000000D01*
X111180000Y-74000000D02*
X111180000Y-75000000D01*
X112290000Y-67350000D02*
X113290000Y-67350000D01*
X113290000Y-68710000D02*
X112290000Y-68710000D01*
X121090000Y-68800000D02*
X121090000Y-69800000D01*
X119730000Y-69800000D02*
X119730000Y-68800000D01*
X120900000Y-60180000D02*
X119900000Y-60180000D01*
X119900000Y-58820000D02*
X120900000Y-58820000D01*
D13*
X111520000Y-83270000D02*
X119140000Y-83270000D01*
X111520000Y-70570000D02*
X111520000Y-83270000D01*
X119140000Y-70570000D02*
X111520000Y-70570000D01*
X119140000Y-83270000D02*
X119140000Y-70570000D01*
X81040000Y-82000000D02*
G75*
G03X81040000Y-82000000I-1270000J0D01*
G01*
X75960000Y-87080000D02*
X83580000Y-87080000D01*
X75960000Y-76920000D02*
X75960000Y-87080000D01*
X83580000Y-76920000D02*
X75960000Y-76920000D01*
X83580000Y-87080000D02*
X83580000Y-76920000D01*
X81040000Y-70570000D02*
G75*
G03X81040000Y-70570000I-1270000J0D01*
G01*
X75960000Y-75650000D02*
X83580000Y-75650000D01*
X75960000Y-65490000D02*
X75960000Y-75650000D01*
X83580000Y-65490000D02*
X75960000Y-65490000D01*
X83580000Y-75650000D02*
X83580000Y-65490000D01*
X103820000Y-69380000D02*
X103820000Y-65380000D01*
X105820000Y-65380000D02*
X105820000Y-69380000D01*
X101820000Y-65380000D02*
X105820000Y-65380000D01*
X101820000Y-68380000D02*
X101820000Y-65380000D01*
X99820000Y-68380000D02*
X101820000Y-68380000D01*
X99820000Y-65380000D02*
X99820000Y-68380000D01*
X97820000Y-65380000D02*
X99820000Y-65380000D01*
X97820000Y-68380000D02*
X97820000Y-65380000D01*
X94820000Y-68380000D02*
X97820000Y-68380000D01*
X94820000Y-65380000D02*
X94820000Y-68380000D01*
X91820000Y-65380000D02*
X94820000Y-65380000D01*
X91820000Y-68280000D02*
X91820000Y-65380000D01*
X107820000Y-70180000D02*
X89820000Y-70180000D01*
X89820000Y-84380000D02*
X107820000Y-84380000D01*
X89820000Y-64380000D02*
X89820000Y-84380000D01*
X107820000Y-64380000D02*
X107820000Y-84380000D01*
X89820000Y-64380000D02*
X107820000Y-64380000D01*
D12*
X95710000Y-56570000D02*
X95710000Y-58070000D01*
X95710000Y-58070000D02*
X95980000Y-58070000D01*
X95980000Y-58070000D02*
X95980000Y-60900000D01*
X102610000Y-56570000D02*
X102610000Y-58070000D01*
X102610000Y-58070000D02*
X102340000Y-58070000D01*
X102340000Y-58070000D02*
X102340000Y-59170000D01*
D13*
X96773334Y-63942143D02*
X96725715Y-63989762D01*
X96582858Y-64037381D01*
X96487620Y-64037381D01*
X96344762Y-63989762D01*
X96249524Y-63894524D01*
X96201905Y-63799286D01*
X96154286Y-63608810D01*
X96154286Y-63465952D01*
X96201905Y-63275476D01*
X96249524Y-63180238D01*
X96344762Y-63085000D01*
X96487620Y-63037381D01*
X96582858Y-63037381D01*
X96725715Y-63085000D01*
X96773334Y-63132619D01*
X97725715Y-64037381D02*
X97154286Y-64037381D01*
X97440000Y-64037381D02*
X97440000Y-63037381D01*
X97344762Y-63180238D01*
X97249524Y-63275476D01*
X97154286Y-63323095D01*
X100583334Y-63942143D02*
X100535715Y-63989762D01*
X100392858Y-64037381D01*
X100297620Y-64037381D01*
X100154762Y-63989762D01*
X100059524Y-63894524D01*
X100011905Y-63799286D01*
X99964286Y-63608810D01*
X99964286Y-63465952D01*
X100011905Y-63275476D01*
X100059524Y-63180238D01*
X100154762Y-63085000D01*
X100297620Y-63037381D01*
X100392858Y-63037381D01*
X100535715Y-63085000D01*
X100583334Y-63132619D01*
X100964286Y-63132619D02*
X101011905Y-63085000D01*
X101107143Y-63037381D01*
X101345239Y-63037381D01*
X101440477Y-63085000D01*
X101488096Y-63132619D01*
X101535715Y-63227857D01*
X101535715Y-63323095D01*
X101488096Y-63465952D01*
X100916667Y-64037381D01*
X101535715Y-64037381D01*
X84297143Y-56416666D02*
X84344762Y-56464285D01*
X84392381Y-56607142D01*
X84392381Y-56702380D01*
X84344762Y-56845238D01*
X84249524Y-56940476D01*
X84154286Y-56988095D01*
X83963810Y-57035714D01*
X83820952Y-57035714D01*
X83630476Y-56988095D01*
X83535238Y-56940476D01*
X83440000Y-56845238D01*
X83392381Y-56702380D01*
X83392381Y-56607142D01*
X83440000Y-56464285D01*
X83487619Y-56416666D01*
X83392381Y-56083333D02*
X83392381Y-55464285D01*
X83773333Y-55797619D01*
X83773333Y-55654761D01*
X83820952Y-55559523D01*
X83868571Y-55511904D01*
X83963810Y-55464285D01*
X84201905Y-55464285D01*
X84297143Y-55511904D01*
X84344762Y-55559523D01*
X84392381Y-55654761D01*
X84392381Y-55940476D01*
X84344762Y-56035714D01*
X84297143Y-56083333D01*
X117131905Y-65307381D02*
X117131905Y-64307381D01*
X117370000Y-64307381D01*
X117512858Y-64355000D01*
X117608096Y-64450238D01*
X117655715Y-64545476D01*
X117703334Y-64735952D01*
X117703334Y-64878810D01*
X117655715Y-65069286D01*
X117608096Y-65164524D01*
X117512858Y-65259762D01*
X117370000Y-65307381D01*
X117131905Y-65307381D01*
X118655715Y-65307381D02*
X118084286Y-65307381D01*
X118370000Y-65307381D02*
X118370000Y-64307381D01*
X118274762Y-64450238D01*
X118179524Y-64545476D01*
X118084286Y-64593095D01*
X122616667Y-75312381D02*
X122616667Y-76026667D01*
X122569047Y-76169524D01*
X122473809Y-76264762D01*
X122330952Y-76312381D01*
X122235714Y-76312381D01*
X123616667Y-76312381D02*
X123045238Y-76312381D01*
X123330952Y-76312381D02*
X123330952Y-75312381D01*
X123235714Y-75455238D01*
X123140476Y-75550476D01*
X123045238Y-75598095D01*
X114282381Y-56933333D02*
X114996667Y-56933333D01*
X115139524Y-56980953D01*
X115234762Y-57076191D01*
X115282381Y-57219048D01*
X115282381Y-57314286D01*
X114282381Y-56552381D02*
X114282381Y-55933333D01*
X114663333Y-56266667D01*
X114663333Y-56123809D01*
X114710952Y-56028571D01*
X114758571Y-55980952D01*
X114853810Y-55933333D01*
X115091905Y-55933333D01*
X115187143Y-55980952D01*
X115234762Y-56028571D01*
X115282381Y-56123809D01*
X115282381Y-56409524D01*
X115234762Y-56504762D01*
X115187143Y-56552381D01*
X122854762Y-74292619D02*
X122759524Y-74245000D01*
X122664286Y-74149762D01*
X122521429Y-74006905D01*
X122426190Y-73959286D01*
X122330952Y-73959286D01*
X122378571Y-74197381D02*
X122283333Y-74149762D01*
X122188095Y-74054524D01*
X122140476Y-73864048D01*
X122140476Y-73530714D01*
X122188095Y-73340238D01*
X122283333Y-73245000D01*
X122378571Y-73197381D01*
X122569048Y-73197381D01*
X122664286Y-73245000D01*
X122759524Y-73340238D01*
X122807143Y-73530714D01*
X122807143Y-73864048D01*
X122759524Y-74054524D01*
X122664286Y-74149762D01*
X122569048Y-74197381D01*
X122378571Y-74197381D01*
X123759524Y-74197381D02*
X123188095Y-74197381D01*
X123473809Y-74197381D02*
X123473809Y-73197381D01*
X123378571Y-73340238D01*
X123283333Y-73435476D01*
X123188095Y-73483095D01*
X84683334Y-78007381D02*
X84350000Y-77531190D01*
X84111905Y-78007381D02*
X84111905Y-77007381D01*
X84492858Y-77007381D01*
X84588096Y-77055000D01*
X84635715Y-77102619D01*
X84683334Y-77197857D01*
X84683334Y-77340714D01*
X84635715Y-77435952D01*
X84588096Y-77483571D01*
X84492858Y-77531190D01*
X84111905Y-77531190D01*
X85635715Y-78007381D02*
X85064286Y-78007381D01*
X85350000Y-78007381D02*
X85350000Y-77007381D01*
X85254762Y-77150238D01*
X85159524Y-77245476D01*
X85064286Y-77293095D01*
X84683334Y-76737381D02*
X84350000Y-76261190D01*
X84111905Y-76737381D02*
X84111905Y-75737381D01*
X84492858Y-75737381D01*
X84588096Y-75785000D01*
X84635715Y-75832619D01*
X84683334Y-75927857D01*
X84683334Y-76070714D01*
X84635715Y-76165952D01*
X84588096Y-76213571D01*
X84492858Y-76261190D01*
X84111905Y-76261190D01*
X85064286Y-75832619D02*
X85111905Y-75785000D01*
X85207143Y-75737381D01*
X85445239Y-75737381D01*
X85540477Y-75785000D01*
X85588096Y-75832619D01*
X85635715Y-75927857D01*
X85635715Y-76023095D01*
X85588096Y-76165952D01*
X85016667Y-76737381D01*
X85635715Y-76737381D01*
X84683334Y-75467381D02*
X84350000Y-74991190D01*
X84111905Y-75467381D02*
X84111905Y-74467381D01*
X84492858Y-74467381D01*
X84588096Y-74515000D01*
X84635715Y-74562619D01*
X84683334Y-74657857D01*
X84683334Y-74800714D01*
X84635715Y-74895952D01*
X84588096Y-74943571D01*
X84492858Y-74991190D01*
X84111905Y-74991190D01*
X85016667Y-74467381D02*
X85635715Y-74467381D01*
X85302381Y-74848333D01*
X85445239Y-74848333D01*
X85540477Y-74895952D01*
X85588096Y-74943571D01*
X85635715Y-75038810D01*
X85635715Y-75276905D01*
X85588096Y-75372143D01*
X85540477Y-75419762D01*
X85445239Y-75467381D01*
X85159524Y-75467381D01*
X85064286Y-75419762D01*
X85016667Y-75372143D01*
X85833334Y-72002381D02*
X85500000Y-71526190D01*
X85261905Y-72002381D02*
X85261905Y-71002381D01*
X85642858Y-71002381D01*
X85738096Y-71050000D01*
X85785715Y-71097619D01*
X85833334Y-71192857D01*
X85833334Y-71335714D01*
X85785715Y-71430952D01*
X85738096Y-71478571D01*
X85642858Y-71526190D01*
X85261905Y-71526190D01*
X86690477Y-71335714D02*
X86690477Y-72002381D01*
X86452381Y-70954762D02*
X86214286Y-71669048D01*
X86833334Y-71669048D01*
X110702381Y-77721666D02*
X110226190Y-78055000D01*
X110702381Y-78293095D02*
X109702381Y-78293095D01*
X109702381Y-77912142D01*
X109750000Y-77816904D01*
X109797619Y-77769285D01*
X109892857Y-77721666D01*
X110035714Y-77721666D01*
X110130952Y-77769285D01*
X110178571Y-77816904D01*
X110226190Y-77912142D01*
X110226190Y-78293095D01*
X109702381Y-76816904D02*
X109702381Y-77293095D01*
X110178571Y-77340714D01*
X110130952Y-77293095D01*
X110083333Y-77197857D01*
X110083333Y-76959761D01*
X110130952Y-76864523D01*
X110178571Y-76816904D01*
X110273810Y-76769285D01*
X110511905Y-76769285D01*
X110607143Y-76816904D01*
X110654762Y-76864523D01*
X110702381Y-76959761D01*
X110702381Y-77197857D01*
X110654762Y-77293095D01*
X110607143Y-77340714D01*
X112623334Y-69932381D02*
X112290000Y-69456190D01*
X112051905Y-69932381D02*
X112051905Y-68932381D01*
X112432858Y-68932381D01*
X112528096Y-68980000D01*
X112575715Y-69027619D01*
X112623334Y-69122857D01*
X112623334Y-69265714D01*
X112575715Y-69360952D01*
X112528096Y-69408571D01*
X112432858Y-69456190D01*
X112051905Y-69456190D01*
X113480477Y-68932381D02*
X113290000Y-68932381D01*
X113194762Y-68980000D01*
X113147143Y-69027619D01*
X113051905Y-69170476D01*
X113004286Y-69360952D01*
X113004286Y-69741905D01*
X113051905Y-69837143D01*
X113099524Y-69884762D01*
X113194762Y-69932381D01*
X113385239Y-69932381D01*
X113480477Y-69884762D01*
X113528096Y-69837143D01*
X113575715Y-69741905D01*
X113575715Y-69503810D01*
X113528096Y-69408571D01*
X113480477Y-69360952D01*
X113385239Y-69313333D01*
X113194762Y-69313333D01*
X113099524Y-69360952D01*
X113051905Y-69408571D01*
X113004286Y-69503810D01*
X119412381Y-69466666D02*
X118936190Y-69800000D01*
X119412381Y-70038095D02*
X118412381Y-70038095D01*
X118412381Y-69657142D01*
X118460000Y-69561904D01*
X118507619Y-69514285D01*
X118602857Y-69466666D01*
X118745714Y-69466666D01*
X118840952Y-69514285D01*
X118888571Y-69561904D01*
X118936190Y-69657142D01*
X118936190Y-70038095D01*
X118412381Y-69133333D02*
X118412381Y-68466666D01*
X119412381Y-68895238D01*
X117703334Y-64037381D02*
X117370000Y-63561190D01*
X117131905Y-64037381D02*
X117131905Y-63037381D01*
X117512858Y-63037381D01*
X117608096Y-63085000D01*
X117655715Y-63132619D01*
X117703334Y-63227857D01*
X117703334Y-63370714D01*
X117655715Y-63465952D01*
X117608096Y-63513571D01*
X117512858Y-63561190D01*
X117131905Y-63561190D01*
X118274762Y-63465952D02*
X118179524Y-63418333D01*
X118131905Y-63370714D01*
X118084286Y-63275476D01*
X118084286Y-63227857D01*
X118131905Y-63132619D01*
X118179524Y-63085000D01*
X118274762Y-63037381D01*
X118465239Y-63037381D01*
X118560477Y-63085000D01*
X118608096Y-63132619D01*
X118655715Y-63227857D01*
X118655715Y-63275476D01*
X118608096Y-63370714D01*
X118560477Y-63418333D01*
X118465239Y-63465952D01*
X118274762Y-63465952D01*
X118179524Y-63513571D01*
X118131905Y-63561190D01*
X118084286Y-63656429D01*
X118084286Y-63846905D01*
X118131905Y-63942143D01*
X118179524Y-63989762D01*
X118274762Y-64037381D01*
X118465239Y-64037381D01*
X118560477Y-63989762D01*
X118608096Y-63942143D01*
X118655715Y-63846905D01*
X118655715Y-63656429D01*
X118608096Y-63561190D01*
X118560477Y-63513571D01*
X118465239Y-63465952D01*
X113242381Y-78126428D02*
X112766190Y-78459762D01*
X113242381Y-78697857D02*
X112242381Y-78697857D01*
X112242381Y-78316904D01*
X112290000Y-78221666D01*
X112337619Y-78174047D01*
X112432857Y-78126428D01*
X112575714Y-78126428D01*
X112670952Y-78174047D01*
X112718571Y-78221666D01*
X112766190Y-78316904D01*
X112766190Y-78697857D01*
X113242381Y-77221666D02*
X113242381Y-77697857D01*
X112242381Y-77697857D01*
X113242381Y-76364523D02*
X113242381Y-76935952D01*
X113242381Y-76650238D02*
X112242381Y-76650238D01*
X112385238Y-76745476D01*
X112480476Y-76840714D01*
X112528095Y-76935952D01*
X77634762Y-83333333D02*
X77682381Y-83190476D01*
X77682381Y-82952380D01*
X77634762Y-82857142D01*
X77587143Y-82809523D01*
X77491905Y-82761904D01*
X77396667Y-82761904D01*
X77301429Y-82809523D01*
X77253810Y-82857142D01*
X77206190Y-82952380D01*
X77158571Y-83142857D01*
X77110952Y-83238095D01*
X77063333Y-83285714D01*
X76968095Y-83333333D01*
X76872857Y-83333333D01*
X76777619Y-83285714D01*
X76730000Y-83238095D01*
X76682381Y-83142857D01*
X76682381Y-82904761D01*
X76730000Y-82761904D01*
X76682381Y-82428571D02*
X77682381Y-82190476D01*
X76968095Y-81999999D01*
X77682381Y-81809523D01*
X76682381Y-81571428D01*
X77682381Y-80666666D02*
X77682381Y-81238095D01*
X77682381Y-80952381D02*
X76682381Y-80952381D01*
X76825238Y-81047619D01*
X76920476Y-81142857D01*
X76968095Y-81238095D01*
X77634762Y-71903333D02*
X77682381Y-71760476D01*
X77682381Y-71522380D01*
X77634762Y-71427142D01*
X77587143Y-71379523D01*
X77491905Y-71331904D01*
X77396667Y-71331904D01*
X77301429Y-71379523D01*
X77253810Y-71427142D01*
X77206190Y-71522380D01*
X77158571Y-71712857D01*
X77110952Y-71808095D01*
X77063333Y-71855714D01*
X76968095Y-71903333D01*
X76872857Y-71903333D01*
X76777619Y-71855714D01*
X76730000Y-71808095D01*
X76682381Y-71712857D01*
X76682381Y-71474761D01*
X76730000Y-71331904D01*
X76682381Y-70998571D02*
X77682381Y-70760476D01*
X76968095Y-70569999D01*
X77682381Y-70379523D01*
X76682381Y-70141428D01*
X76777619Y-69808095D02*
X76730000Y-69760476D01*
X76682381Y-69665238D01*
X76682381Y-69427142D01*
X76730000Y-69331904D01*
X76777619Y-69284285D01*
X76872857Y-69236666D01*
X76968095Y-69236666D01*
X77110952Y-69284285D01*
X77682381Y-69855714D01*
X77682381Y-69236666D01*
X97558095Y-84832381D02*
X97558095Y-85641905D01*
X97605714Y-85737143D01*
X97653333Y-85784762D01*
X97748571Y-85832381D01*
X97939048Y-85832381D01*
X98034286Y-85784762D01*
X98081905Y-85737143D01*
X98129524Y-85641905D01*
X98129524Y-84832381D01*
X99129524Y-85832381D02*
X98558095Y-85832381D01*
X98843809Y-85832381D02*
X98843809Y-84832381D01*
X98748571Y-84975238D01*
X98653333Y-85070476D01*
X98558095Y-85118095D01*
X94112381Y-56361905D02*
X94921905Y-56361905D01*
X95017143Y-56314286D01*
X95064762Y-56266667D01*
X95112381Y-56171429D01*
X95112381Y-55980952D01*
X95064762Y-55885714D01*
X95017143Y-55838095D01*
X94921905Y-55790476D01*
X94112381Y-55790476D01*
X94112381Y-55409524D02*
X94112381Y-54790476D01*
X94493333Y-55123810D01*
X94493333Y-54980952D01*
X94540952Y-54885714D01*
X94588571Y-54838095D01*
X94683810Y-54790476D01*
X94921905Y-54790476D01*
X95017143Y-54838095D01*
X95064762Y-54885714D01*
X95112381Y-54980952D01*
X95112381Y-55266667D01*
X95064762Y-55361905D01*
X95017143Y-55409524D01*
M02*
