G04 #@! TF.FileFunction,Legend,Bot*
%FSLAX46Y46*%
G04 Gerber Fmt 4.6, Leading zero omitted, Abs format (unit mm)*
G04 Created by KiCad (PCBNEW 4.0.6) date 07/25/17 01:39:03*
%MOMM*%
%LPD*%
G01*
G04 APERTURE LIST*
%ADD10C,0.100000*%
%ADD11C,0.300000*%
G04 APERTURE END LIST*
D10*
D11*
X117848571Y-53868571D02*
X117491428Y-55368571D01*
X117205714Y-54297143D01*
X116920000Y-55368571D01*
X116562857Y-53868571D01*
X115134285Y-55368571D02*
X115634285Y-54654286D01*
X115991428Y-55368571D02*
X115991428Y-53868571D01*
X115420000Y-53868571D01*
X115277142Y-53940000D01*
X115205714Y-54011429D01*
X115134285Y-54154286D01*
X115134285Y-54368571D01*
X115205714Y-54511429D01*
X115277142Y-54582857D01*
X115420000Y-54654286D01*
X115991428Y-54654286D01*
X114205714Y-53868571D02*
X113920000Y-53868571D01*
X113777142Y-53940000D01*
X113634285Y-54082857D01*
X113562857Y-54368571D01*
X113562857Y-54868571D01*
X113634285Y-55154286D01*
X113777142Y-55297143D01*
X113920000Y-55368571D01*
X114205714Y-55368571D01*
X114348571Y-55297143D01*
X114491428Y-55154286D01*
X114562857Y-54868571D01*
X114562857Y-54368571D01*
X114491428Y-54082857D01*
X114348571Y-53940000D01*
X114205714Y-53868571D01*
X112634285Y-53868571D02*
X112348571Y-53868571D01*
X112205713Y-53940000D01*
X112062856Y-54082857D01*
X111991428Y-54368571D01*
X111991428Y-54868571D01*
X112062856Y-55154286D01*
X112205713Y-55297143D01*
X112348571Y-55368571D01*
X112634285Y-55368571D01*
X112777142Y-55297143D01*
X112919999Y-55154286D01*
X112991428Y-54868571D01*
X112991428Y-54368571D01*
X112919999Y-54082857D01*
X112777142Y-53940000D01*
X112634285Y-53868571D01*
X111348570Y-55368571D02*
X111348570Y-53868571D01*
X110848570Y-54940000D01*
X110348570Y-53868571D01*
X110348570Y-55368571D01*
X109348570Y-53868571D02*
X109205713Y-53868571D01*
X109062856Y-53940000D01*
X108991427Y-54011429D01*
X108919998Y-54154286D01*
X108848570Y-54440000D01*
X108848570Y-54797143D01*
X108919998Y-55082857D01*
X108991427Y-55225714D01*
X109062856Y-55297143D01*
X109205713Y-55368571D01*
X109348570Y-55368571D01*
X109491427Y-55297143D01*
X109562856Y-55225714D01*
X109634284Y-55082857D01*
X109705713Y-54797143D01*
X109705713Y-54440000D01*
X109634284Y-54154286D01*
X109562856Y-54011429D01*
X109491427Y-53940000D01*
X109348570Y-53868571D01*
X108277142Y-54011429D02*
X108205713Y-53940000D01*
X108062856Y-53868571D01*
X107705713Y-53868571D01*
X107562856Y-53940000D01*
X107491427Y-54011429D01*
X107419999Y-54154286D01*
X107419999Y-54297143D01*
X107491427Y-54511429D01*
X108348570Y-55368571D01*
X107419999Y-55368571D01*
X104777142Y-55368571D02*
X105277142Y-54654286D01*
X105634285Y-55368571D02*
X105634285Y-53868571D01*
X105062857Y-53868571D01*
X104919999Y-53940000D01*
X104848571Y-54011429D01*
X104777142Y-54154286D01*
X104777142Y-54368571D01*
X104848571Y-54511429D01*
X104919999Y-54582857D01*
X105062857Y-54654286D01*
X105634285Y-54654286D01*
X103562857Y-55297143D02*
X103705714Y-55368571D01*
X103991428Y-55368571D01*
X104134285Y-55297143D01*
X104205714Y-55154286D01*
X104205714Y-54582857D01*
X104134285Y-54440000D01*
X103991428Y-54368571D01*
X103705714Y-54368571D01*
X103562857Y-54440000D01*
X103491428Y-54582857D01*
X103491428Y-54725714D01*
X104205714Y-54868571D01*
X102634285Y-55368571D02*
X102777143Y-55297143D01*
X102848571Y-55154286D01*
X102848571Y-53868571D01*
X101420000Y-55368571D02*
X101420000Y-54582857D01*
X101491429Y-54440000D01*
X101634286Y-54368571D01*
X101920000Y-54368571D01*
X102062857Y-54440000D01*
X101420000Y-55297143D02*
X101562857Y-55368571D01*
X101920000Y-55368571D01*
X102062857Y-55297143D01*
X102134286Y-55154286D01*
X102134286Y-55011429D01*
X102062857Y-54868571D01*
X101920000Y-54797143D01*
X101562857Y-54797143D01*
X101420000Y-54725714D01*
X100848571Y-54368571D02*
X100491428Y-55368571D01*
X100134286Y-54368571D02*
X100491428Y-55368571D01*
X100634286Y-55725714D01*
X100705714Y-55797143D01*
X100848571Y-55868571D01*
X97920000Y-54582857D02*
X97705714Y-54654286D01*
X97634286Y-54725714D01*
X97562857Y-54868571D01*
X97562857Y-55082857D01*
X97634286Y-55225714D01*
X97705714Y-55297143D01*
X97848572Y-55368571D01*
X98420000Y-55368571D01*
X98420000Y-53868571D01*
X97920000Y-53868571D01*
X97777143Y-53940000D01*
X97705714Y-54011429D01*
X97634286Y-54154286D01*
X97634286Y-54297143D01*
X97705714Y-54440000D01*
X97777143Y-54511429D01*
X97920000Y-54582857D01*
X98420000Y-54582857D01*
X96705714Y-55368571D02*
X96848572Y-55297143D01*
X96920000Y-55225714D01*
X96991429Y-55082857D01*
X96991429Y-54654286D01*
X96920000Y-54511429D01*
X96848572Y-54440000D01*
X96705714Y-54368571D01*
X96491429Y-54368571D01*
X96348572Y-54440000D01*
X96277143Y-54511429D01*
X96205714Y-54654286D01*
X96205714Y-55082857D01*
X96277143Y-55225714D01*
X96348572Y-55297143D01*
X96491429Y-55368571D01*
X96705714Y-55368571D01*
X94920000Y-55368571D02*
X94920000Y-54582857D01*
X94991429Y-54440000D01*
X95134286Y-54368571D01*
X95420000Y-54368571D01*
X95562857Y-54440000D01*
X94920000Y-55297143D02*
X95062857Y-55368571D01*
X95420000Y-55368571D01*
X95562857Y-55297143D01*
X95634286Y-55154286D01*
X95634286Y-55011429D01*
X95562857Y-54868571D01*
X95420000Y-54797143D01*
X95062857Y-54797143D01*
X94920000Y-54725714D01*
X94205714Y-55368571D02*
X94205714Y-54368571D01*
X94205714Y-54654286D02*
X94134286Y-54511429D01*
X94062857Y-54440000D01*
X93920000Y-54368571D01*
X93777143Y-54368571D01*
X92634286Y-55368571D02*
X92634286Y-53868571D01*
X92634286Y-55297143D02*
X92777143Y-55368571D01*
X93062857Y-55368571D01*
X93205715Y-55297143D01*
X93277143Y-55225714D01*
X93348572Y-55082857D01*
X93348572Y-54654286D01*
X93277143Y-54511429D01*
X93205715Y-54440000D01*
X93062857Y-54368571D01*
X92777143Y-54368571D01*
X92634286Y-54440000D01*
X114241427Y-57204286D02*
X114312855Y-57132857D01*
X114455712Y-57061429D01*
X114598570Y-57061429D01*
X114741427Y-57132857D01*
X114812855Y-57204286D01*
X114884284Y-57347143D01*
X114884284Y-57490000D01*
X114812855Y-57632857D01*
X114741427Y-57704286D01*
X114598570Y-57775714D01*
X114455712Y-57775714D01*
X114312855Y-57704286D01*
X114241427Y-57632857D01*
X114241427Y-57061429D02*
X114241427Y-57632857D01*
X114169998Y-57704286D01*
X114098570Y-57704286D01*
X113955712Y-57632857D01*
X113884284Y-57490000D01*
X113884284Y-57132857D01*
X114027141Y-56918571D01*
X114241427Y-56775714D01*
X114527141Y-56704286D01*
X114812855Y-56775714D01*
X115027141Y-56918571D01*
X115169998Y-57132857D01*
X115241427Y-57418571D01*
X115169998Y-57704286D01*
X115027141Y-57918571D01*
X114812855Y-58061429D01*
X114527141Y-58132857D01*
X114241427Y-58061429D01*
X114027141Y-57918571D01*
X112812856Y-56418571D02*
X112812856Y-57490000D01*
X112884284Y-57704286D01*
X113027141Y-57847143D01*
X113241427Y-57918571D01*
X113384284Y-57918571D01*
X112098570Y-57918571D02*
X112098570Y-56418571D01*
X111527142Y-56418571D01*
X111384284Y-56490000D01*
X111312856Y-56561429D01*
X111241427Y-56704286D01*
X111241427Y-56918571D01*
X111312856Y-57061429D01*
X111384284Y-57132857D01*
X111527142Y-57204286D01*
X112098570Y-57204286D01*
X110741427Y-56418571D02*
X109812856Y-56418571D01*
X110312856Y-56990000D01*
X110098570Y-56990000D01*
X109955713Y-57061429D01*
X109884284Y-57132857D01*
X109812856Y-57275714D01*
X109812856Y-57632857D01*
X109884284Y-57775714D01*
X109955713Y-57847143D01*
X110098570Y-57918571D01*
X110527142Y-57918571D01*
X110669999Y-57847143D01*
X110741427Y-57775714D01*
X108312856Y-57775714D02*
X108384285Y-57847143D01*
X108598571Y-57918571D01*
X108741428Y-57918571D01*
X108955713Y-57847143D01*
X109098571Y-57704286D01*
X109169999Y-57561429D01*
X109241428Y-57275714D01*
X109241428Y-57061429D01*
X109169999Y-56775714D01*
X109098571Y-56632857D01*
X108955713Y-56490000D01*
X108741428Y-56418571D01*
X108598571Y-56418571D01*
X108384285Y-56490000D01*
X108312856Y-56561429D01*
X107384285Y-57204286D02*
X107384285Y-57918571D01*
X107884285Y-56418571D02*
X107384285Y-57204286D01*
X106884285Y-56418571D01*
X105527142Y-57775714D02*
X105598571Y-57847143D01*
X105812857Y-57918571D01*
X105955714Y-57918571D01*
X106169999Y-57847143D01*
X106312857Y-57704286D01*
X106384285Y-57561429D01*
X106455714Y-57275714D01*
X106455714Y-57061429D01*
X106384285Y-56775714D01*
X106312857Y-56632857D01*
X106169999Y-56490000D01*
X105955714Y-56418571D01*
X105812857Y-56418571D01*
X105598571Y-56490000D01*
X105527142Y-56561429D01*
X103812857Y-56561429D02*
X103741428Y-56490000D01*
X103598571Y-56418571D01*
X103241428Y-56418571D01*
X103098571Y-56490000D01*
X103027142Y-56561429D01*
X102955714Y-56704286D01*
X102955714Y-56847143D01*
X103027142Y-57061429D01*
X103884285Y-57918571D01*
X102955714Y-57918571D01*
X102027143Y-56418571D02*
X101884286Y-56418571D01*
X101741429Y-56490000D01*
X101670000Y-56561429D01*
X101598571Y-56704286D01*
X101527143Y-56990000D01*
X101527143Y-57347143D01*
X101598571Y-57632857D01*
X101670000Y-57775714D01*
X101741429Y-57847143D01*
X101884286Y-57918571D01*
X102027143Y-57918571D01*
X102170000Y-57847143D01*
X102241429Y-57775714D01*
X102312857Y-57632857D01*
X102384286Y-57347143D01*
X102384286Y-56990000D01*
X102312857Y-56704286D01*
X102241429Y-56561429D01*
X102170000Y-56490000D01*
X102027143Y-56418571D01*
X100098572Y-57918571D02*
X100955715Y-57918571D01*
X100527143Y-57918571D02*
X100527143Y-56418571D01*
X100670000Y-56632857D01*
X100812858Y-56775714D01*
X100955715Y-56847143D01*
X99598572Y-56418571D02*
X98598572Y-56418571D01*
X99241429Y-57918571D01*
X98027144Y-57775714D02*
X97955716Y-57847143D01*
X98027144Y-57918571D01*
X98098573Y-57847143D01*
X98027144Y-57775714D01*
X98027144Y-57918571D01*
X97027144Y-56418571D02*
X96884287Y-56418571D01*
X96741430Y-56490000D01*
X96670001Y-56561429D01*
X96598572Y-56704286D01*
X96527144Y-56990000D01*
X96527144Y-57347143D01*
X96598572Y-57632857D01*
X96670001Y-57775714D01*
X96741430Y-57847143D01*
X96884287Y-57918571D01*
X97027144Y-57918571D01*
X97170001Y-57847143D01*
X97241430Y-57775714D01*
X97312858Y-57632857D01*
X97384287Y-57347143D01*
X97384287Y-56990000D01*
X97312858Y-56704286D01*
X97241430Y-56561429D01*
X97170001Y-56490000D01*
X97027144Y-56418571D01*
X96027144Y-56418571D02*
X95027144Y-56418571D01*
X95670001Y-57918571D01*
X89251429Y-84849285D02*
X90751429Y-84849285D01*
X90751429Y-83849285D02*
X90751429Y-83563571D01*
X90680000Y-83420713D01*
X90537143Y-83277856D01*
X90251429Y-83206428D01*
X89751429Y-83206428D01*
X89465714Y-83277856D01*
X89322857Y-83420713D01*
X89251429Y-83563571D01*
X89251429Y-83849285D01*
X89322857Y-83992142D01*
X89465714Y-84134999D01*
X89751429Y-84206428D01*
X90251429Y-84206428D01*
X90537143Y-84134999D01*
X90680000Y-83992142D01*
X90751429Y-83849285D01*
X89251429Y-81777856D02*
X89251429Y-82634999D01*
X89251429Y-82206427D02*
X90751429Y-82206427D01*
X90537143Y-82349284D01*
X90394286Y-82492142D01*
X90322857Y-82634999D01*
X90751429Y-81277856D02*
X90751429Y-80349285D01*
X90180000Y-80849285D01*
X90180000Y-80634999D01*
X90108571Y-80492142D01*
X90037143Y-80420713D01*
X89894286Y-80349285D01*
X89537143Y-80349285D01*
X89394286Y-80420713D01*
X89322857Y-80492142D01*
X89251429Y-80634999D01*
X89251429Y-81063571D01*
X89322857Y-81206428D01*
X89394286Y-81277856D01*
X86711429Y-84849285D02*
X88211429Y-84849285D01*
X88211429Y-83849285D02*
X88211429Y-83563571D01*
X88140000Y-83420713D01*
X87997143Y-83277856D01*
X87711429Y-83206428D01*
X87211429Y-83206428D01*
X86925714Y-83277856D01*
X86782857Y-83420713D01*
X86711429Y-83563571D01*
X86711429Y-83849285D01*
X86782857Y-83992142D01*
X86925714Y-84134999D01*
X87211429Y-84206428D01*
X87711429Y-84206428D01*
X87997143Y-84134999D01*
X88140000Y-83992142D01*
X88211429Y-83849285D01*
X86711429Y-81777856D02*
X86711429Y-82634999D01*
X86711429Y-82206427D02*
X88211429Y-82206427D01*
X87997143Y-82349284D01*
X87854286Y-82492142D01*
X87782857Y-82634999D01*
X88068571Y-81206428D02*
X88140000Y-81134999D01*
X88211429Y-80992142D01*
X88211429Y-80634999D01*
X88140000Y-80492142D01*
X88068571Y-80420713D01*
X87925714Y-80349285D01*
X87782857Y-80349285D01*
X87568571Y-80420713D01*
X86711429Y-81277856D01*
X86711429Y-80349285D01*
X84171429Y-84849285D02*
X85671429Y-84849285D01*
X85671429Y-83849285D02*
X85671429Y-83563571D01*
X85600000Y-83420713D01*
X85457143Y-83277856D01*
X85171429Y-83206428D01*
X84671429Y-83206428D01*
X84385714Y-83277856D01*
X84242857Y-83420713D01*
X84171429Y-83563571D01*
X84171429Y-83849285D01*
X84242857Y-83992142D01*
X84385714Y-84134999D01*
X84671429Y-84206428D01*
X85171429Y-84206428D01*
X85457143Y-84134999D01*
X85600000Y-83992142D01*
X85671429Y-83849285D01*
X84171429Y-81777856D02*
X84171429Y-82634999D01*
X84171429Y-82206427D02*
X85671429Y-82206427D01*
X85457143Y-82349284D01*
X85314286Y-82492142D01*
X85242857Y-82634999D01*
X85171429Y-80492142D02*
X84171429Y-80492142D01*
X85742857Y-80849285D02*
X84671429Y-81206428D01*
X84671429Y-80277856D01*
X119096429Y-85119286D02*
X120596429Y-85119286D01*
X119096429Y-84262143D01*
X120596429Y-84262143D01*
X120596429Y-83262143D02*
X120596429Y-82976429D01*
X120525000Y-82833571D01*
X120382143Y-82690714D01*
X120096429Y-82619286D01*
X119596429Y-82619286D01*
X119310714Y-82690714D01*
X119167857Y-82833571D01*
X119096429Y-82976429D01*
X119096429Y-83262143D01*
X119167857Y-83405000D01*
X119310714Y-83547857D01*
X119596429Y-83619286D01*
X120096429Y-83619286D01*
X120382143Y-83547857D01*
X120525000Y-83405000D01*
X120596429Y-83262143D01*
X115286429Y-85083571D02*
X116786429Y-85083571D01*
X115286429Y-84226428D01*
X116786429Y-84226428D01*
X115429286Y-82654999D02*
X115357857Y-82726428D01*
X115286429Y-82940714D01*
X115286429Y-83083571D01*
X115357857Y-83297856D01*
X115500714Y-83440714D01*
X115643571Y-83512142D01*
X115929286Y-83583571D01*
X116143571Y-83583571D01*
X116429286Y-83512142D01*
X116572143Y-83440714D01*
X116715000Y-83297856D01*
X116786429Y-83083571D01*
X116786429Y-82940714D01*
X116715000Y-82726428D01*
X116643571Y-82654999D01*
X113524286Y-83813571D02*
X113452857Y-83885000D01*
X113381429Y-84099286D01*
X113381429Y-84242143D01*
X113452857Y-84456428D01*
X113595714Y-84599286D01*
X113738571Y-84670714D01*
X114024286Y-84742143D01*
X114238571Y-84742143D01*
X114524286Y-84670714D01*
X114667143Y-84599286D01*
X114810000Y-84456428D01*
X114881429Y-84242143D01*
X114881429Y-84099286D01*
X114810000Y-83885000D01*
X114738571Y-83813571D01*
X114881429Y-82885000D02*
X114881429Y-82599286D01*
X114810000Y-82456428D01*
X114667143Y-82313571D01*
X114381429Y-82242143D01*
X113881429Y-82242143D01*
X113595714Y-82313571D01*
X113452857Y-82456428D01*
X113381429Y-82599286D01*
X113381429Y-82885000D01*
X113452857Y-83027857D01*
X113595714Y-83170714D01*
X113881429Y-83242143D01*
X114381429Y-83242143D01*
X114667143Y-83170714D01*
X114810000Y-83027857D01*
X114881429Y-82885000D01*
X113381429Y-81599285D02*
X114881429Y-81599285D01*
X113810000Y-81099285D01*
X114881429Y-80599285D01*
X113381429Y-80599285D01*
X111706429Y-85206429D02*
X111706429Y-84349286D01*
X110206429Y-84777857D02*
X111706429Y-84777857D01*
X111706429Y-83563572D02*
X111706429Y-83277858D01*
X111635000Y-83135000D01*
X111492143Y-82992143D01*
X111206429Y-82920715D01*
X110706429Y-82920715D01*
X110420714Y-82992143D01*
X110277857Y-83135000D01*
X110206429Y-83277858D01*
X110206429Y-83563572D01*
X110277857Y-83706429D01*
X110420714Y-83849286D01*
X110706429Y-83920715D01*
X111206429Y-83920715D01*
X111492143Y-83849286D01*
X111635000Y-83706429D01*
X111706429Y-83563572D01*
X111706429Y-82277857D02*
X110492143Y-82277857D01*
X110349286Y-82206429D01*
X110277857Y-82135000D01*
X110206429Y-81992143D01*
X110206429Y-81706429D01*
X110277857Y-81563571D01*
X110349286Y-81492143D01*
X110492143Y-81420714D01*
X111706429Y-81420714D01*
X111706429Y-80920714D02*
X111706429Y-80063571D01*
X110206429Y-80492142D02*
X111706429Y-80492142D01*
X108301429Y-84135000D02*
X109801429Y-84135000D01*
X109801429Y-83135000D02*
X109801429Y-82849286D01*
X109730000Y-82706428D01*
X109587143Y-82563571D01*
X109301429Y-82492143D01*
X108801429Y-82492143D01*
X108515714Y-82563571D01*
X108372857Y-82706428D01*
X108301429Y-82849286D01*
X108301429Y-83135000D01*
X108372857Y-83277857D01*
X108515714Y-83420714D01*
X108801429Y-83492143D01*
X109301429Y-83492143D01*
X109587143Y-83420714D01*
X109730000Y-83277857D01*
X109801429Y-83135000D01*
X109801429Y-81134999D02*
X109801429Y-81849285D01*
X109087143Y-81920714D01*
X109158571Y-81849285D01*
X109230000Y-81706428D01*
X109230000Y-81349285D01*
X109158571Y-81206428D01*
X109087143Y-81134999D01*
X108944286Y-81063571D01*
X108587143Y-81063571D01*
X108444286Y-81134999D01*
X108372857Y-81206428D01*
X108301429Y-81349285D01*
X108301429Y-81706428D01*
X108372857Y-81849285D01*
X108444286Y-81920714D01*
X105761429Y-84135000D02*
X107261429Y-84135000D01*
X107261429Y-83135000D02*
X107261429Y-82849286D01*
X107190000Y-82706428D01*
X107047143Y-82563571D01*
X106761429Y-82492143D01*
X106261429Y-82492143D01*
X105975714Y-82563571D01*
X105832857Y-82706428D01*
X105761429Y-82849286D01*
X105761429Y-83135000D01*
X105832857Y-83277857D01*
X105975714Y-83420714D01*
X106261429Y-83492143D01*
X106761429Y-83492143D01*
X107047143Y-83420714D01*
X107190000Y-83277857D01*
X107261429Y-83135000D01*
X106761429Y-81206428D02*
X105761429Y-81206428D01*
X107332857Y-81563571D02*
X106261429Y-81920714D01*
X106261429Y-80992142D01*
X102110000Y-83777857D02*
X102181429Y-83920714D01*
X102181429Y-84135000D01*
X102110000Y-84349285D01*
X101967143Y-84492143D01*
X101824286Y-84563571D01*
X101538571Y-84635000D01*
X101324286Y-84635000D01*
X101038571Y-84563571D01*
X100895714Y-84492143D01*
X100752857Y-84349285D01*
X100681429Y-84135000D01*
X100681429Y-83992143D01*
X100752857Y-83777857D01*
X100824286Y-83706428D01*
X101324286Y-83706428D01*
X101324286Y-83992143D01*
X100681429Y-83063571D02*
X102181429Y-83063571D01*
X100681429Y-82206428D01*
X102181429Y-82206428D01*
X100681429Y-81492142D02*
X102181429Y-81492142D01*
X102181429Y-81134999D01*
X102110000Y-80920714D01*
X101967143Y-80777856D01*
X101824286Y-80706428D01*
X101538571Y-80634999D01*
X101324286Y-80634999D01*
X101038571Y-80706428D01*
X100895714Y-80777856D01*
X100752857Y-80920714D01*
X100681429Y-81134999D01*
X100681429Y-81492142D01*
X96466429Y-84849285D02*
X96466429Y-83920714D01*
X95895000Y-84420714D01*
X95895000Y-84206428D01*
X95823571Y-84063571D01*
X95752143Y-83992142D01*
X95609286Y-83920714D01*
X95252143Y-83920714D01*
X95109286Y-83992142D01*
X95037857Y-84063571D01*
X94966429Y-84206428D01*
X94966429Y-84635000D01*
X95037857Y-84777857D01*
X95109286Y-84849285D01*
X95109286Y-83277857D02*
X95037857Y-83206429D01*
X94966429Y-83277857D01*
X95037857Y-83349286D01*
X95109286Y-83277857D01*
X94966429Y-83277857D01*
X96466429Y-82706428D02*
X96466429Y-81777857D01*
X95895000Y-82277857D01*
X95895000Y-82063571D01*
X95823571Y-81920714D01*
X95752143Y-81849285D01*
X95609286Y-81777857D01*
X95252143Y-81777857D01*
X95109286Y-81849285D01*
X95037857Y-81920714D01*
X94966429Y-82063571D01*
X94966429Y-82492143D01*
X95037857Y-82635000D01*
X95109286Y-82706428D01*
X96466429Y-81349286D02*
X94966429Y-80849286D01*
X96466429Y-80349286D01*
M02*
