G04 #@! TF.FileFunction,Copper,L1,Top,Signal*
%FSLAX46Y46*%
G04 Gerber Fmt 4.6, Leading zero omitted, Abs format (unit mm)*
G04 Created by KiCad (PCBNEW 4.0.6) date 07/25/17 01:39:03*
%MOMM*%
%LPD*%
G01*
G04 APERTURE LIST*
%ADD10C,0.100000*%
%ADD11C,2.000000*%
%ADD12R,1.200000X0.750000*%
%ADD13R,1.600000X1.600000*%
%ADD14C,1.600000*%
%ADD15R,1.200000X0.900000*%
%ADD16R,1.700000X1.700000*%
%ADD17O,1.700000X1.700000*%
%ADD18C,1.524000*%
%ADD19R,1.800000X1.800000*%
%ADD20O,1.800000X1.800000*%
%ADD21R,0.900000X1.200000*%
%ADD22R,2.000000X0.900000*%
%ADD23R,1.200000X2.200000*%
%ADD24R,5.800000X6.400000*%
%ADD25R,2.750000X3.050000*%
%ADD26C,0.600000*%
%ADD27C,0.250000*%
%ADD28C,0.254000*%
G04 APERTURE END LIST*
D10*
D11*
X72820000Y-53630000D03*
X70280000Y-56170000D03*
X72820000Y-56170000D03*
X72820000Y-58710000D03*
X70280000Y-53630000D03*
X70280000Y-58710000D03*
X67740000Y-58710000D03*
X67740000Y-53630000D03*
X65200000Y-56170000D03*
X67740000Y-56170000D03*
X65200000Y-53630000D03*
X65200000Y-58710000D03*
X60120000Y-53630000D03*
X62660000Y-56170000D03*
X60120000Y-56170000D03*
X62660000Y-53630000D03*
X62660000Y-58710000D03*
X60120000Y-58710000D03*
X72820000Y-61250000D03*
X70280000Y-61250000D03*
X67740000Y-61250000D03*
X52500000Y-61250000D03*
X57580000Y-61250000D03*
X55040000Y-61250000D03*
X60120000Y-61250000D03*
X62660000Y-61250000D03*
X65200000Y-61250000D03*
X67740000Y-63790000D03*
X70280000Y-66330000D03*
X72820000Y-66330000D03*
X67740000Y-66330000D03*
X70280000Y-63790000D03*
X72820000Y-63790000D03*
X62660000Y-66330000D03*
X65200000Y-63790000D03*
X65200000Y-66330000D03*
X62660000Y-63790000D03*
X60120000Y-63790000D03*
X60120000Y-66330000D03*
X52500000Y-66330000D03*
X55040000Y-63790000D03*
X57580000Y-63790000D03*
X55040000Y-66330000D03*
X52500000Y-63790000D03*
X57580000Y-66330000D03*
X67740000Y-71410000D03*
X65200000Y-73950000D03*
X67740000Y-73950000D03*
X67740000Y-68870000D03*
X65200000Y-71410000D03*
X62660000Y-68870000D03*
X65200000Y-68870000D03*
X62660000Y-71410000D03*
X62660000Y-73950000D03*
X57580000Y-71410000D03*
X57580000Y-68870000D03*
X60120000Y-71410000D03*
X60120000Y-68870000D03*
X60120000Y-73950000D03*
X55040000Y-68870000D03*
X55040000Y-71410000D03*
X52500000Y-68870000D03*
X52500000Y-73950000D03*
X52500000Y-71410000D03*
X70280000Y-68870000D03*
X70280000Y-73950000D03*
X72820000Y-68870000D03*
X70280000Y-71410000D03*
X72820000Y-73950000D03*
X72820000Y-71410000D03*
X55040000Y-73950000D03*
X57580000Y-73950000D03*
X67740000Y-76490000D03*
X70280000Y-79030000D03*
X72820000Y-79030000D03*
X67740000Y-79030000D03*
X70280000Y-76490000D03*
X72820000Y-76490000D03*
X62660000Y-79030000D03*
X65200000Y-76490000D03*
X65200000Y-79030000D03*
X62660000Y-76490000D03*
X60120000Y-76490000D03*
X60120000Y-79030000D03*
X52500000Y-79030000D03*
X55040000Y-76490000D03*
X57580000Y-76490000D03*
X55040000Y-79030000D03*
X52500000Y-76490000D03*
X57580000Y-79030000D03*
X67740000Y-84110000D03*
X65200000Y-86650000D03*
X67740000Y-86650000D03*
X67740000Y-81570000D03*
X65200000Y-84110000D03*
X62660000Y-81570000D03*
X65200000Y-81570000D03*
X62660000Y-84110000D03*
X62660000Y-86650000D03*
X57580000Y-84110000D03*
X57580000Y-81570000D03*
X60120000Y-84110000D03*
X60120000Y-81570000D03*
X60120000Y-86650000D03*
X55040000Y-81570000D03*
X55040000Y-84110000D03*
X52500000Y-81570000D03*
X52500000Y-86650000D03*
X52500000Y-84110000D03*
X70280000Y-81570000D03*
X70280000Y-86650000D03*
X72820000Y-81570000D03*
X70280000Y-84110000D03*
X72820000Y-86650000D03*
X72820000Y-84110000D03*
X55040000Y-86650000D03*
X57580000Y-86650000D03*
X133780000Y-53630000D03*
X133780000Y-56170000D03*
X138860000Y-53630000D03*
X136320000Y-53630000D03*
X133780000Y-58710000D03*
X138860000Y-58710000D03*
X136320000Y-58710000D03*
X136320000Y-56170000D03*
X138860000Y-56170000D03*
X131240000Y-53630000D03*
X131240000Y-56170000D03*
X128700000Y-53630000D03*
X131240000Y-58710000D03*
X128700000Y-56170000D03*
X128700000Y-58710000D03*
X143940000Y-61250000D03*
X141400000Y-61250000D03*
X146480000Y-61250000D03*
X136320000Y-61250000D03*
X138860000Y-61250000D03*
X128700000Y-61250000D03*
X133780000Y-61250000D03*
X131240000Y-61250000D03*
X133780000Y-71410000D03*
X131240000Y-71410000D03*
X128700000Y-71410000D03*
X131240000Y-68870000D03*
X128700000Y-68870000D03*
X133780000Y-68870000D03*
X143940000Y-71410000D03*
X146480000Y-71410000D03*
X141400000Y-71410000D03*
X146480000Y-68870000D03*
X141400000Y-68870000D03*
X141400000Y-63790000D03*
X143940000Y-63790000D03*
X143940000Y-68870000D03*
X141400000Y-66330000D03*
X143940000Y-66330000D03*
X128700000Y-66330000D03*
X128700000Y-63790000D03*
X131240000Y-63790000D03*
X131240000Y-66330000D03*
X133780000Y-63790000D03*
X133780000Y-66330000D03*
X138860000Y-71410000D03*
X138860000Y-66330000D03*
X136320000Y-71410000D03*
X138860000Y-68870000D03*
X136320000Y-66330000D03*
X136320000Y-68870000D03*
X138860000Y-63790000D03*
X146480000Y-63790000D03*
X136320000Y-63790000D03*
X146480000Y-66330000D03*
X136320000Y-79030000D03*
X133780000Y-79030000D03*
X133780000Y-76490000D03*
X133780000Y-73950000D03*
X136320000Y-76490000D03*
X131240000Y-73950000D03*
X128700000Y-73950000D03*
X131240000Y-76490000D03*
X146480000Y-79030000D03*
X146480000Y-73950000D03*
X146480000Y-76490000D03*
X143940000Y-76490000D03*
X141400000Y-76490000D03*
X143940000Y-79030000D03*
X141400000Y-79030000D03*
X143940000Y-73950000D03*
X141400000Y-73950000D03*
X138860000Y-73950000D03*
X136320000Y-73950000D03*
X138860000Y-76490000D03*
X138860000Y-79030000D03*
X128700000Y-76490000D03*
X128700000Y-79030000D03*
X131240000Y-79030000D03*
X131240000Y-86650000D03*
X133780000Y-86650000D03*
X128700000Y-81570000D03*
X131240000Y-84110000D03*
X133780000Y-84110000D03*
X131240000Y-81570000D03*
X133780000Y-81570000D03*
X128700000Y-84110000D03*
X128700000Y-86650000D03*
X141400000Y-81570000D03*
X146480000Y-81570000D03*
X143940000Y-81570000D03*
X146480000Y-84110000D03*
X143940000Y-84110000D03*
X143940000Y-86650000D03*
X141400000Y-86650000D03*
X141400000Y-84110000D03*
X146480000Y-86650000D03*
X136320000Y-81570000D03*
X138860000Y-86650000D03*
X136320000Y-84110000D03*
X136320000Y-86650000D03*
X138860000Y-84110000D03*
X138860000Y-81570000D03*
X136320000Y-94270000D03*
X136320000Y-96810000D03*
X146480000Y-94270000D03*
X143940000Y-89190000D03*
X146480000Y-91730000D03*
X146480000Y-89190000D03*
X143940000Y-91730000D03*
X138860000Y-89190000D03*
X136320000Y-89190000D03*
X141400000Y-91730000D03*
X141400000Y-89190000D03*
X136320000Y-91730000D03*
X138860000Y-91730000D03*
X138860000Y-96810000D03*
X143940000Y-94270000D03*
X141400000Y-96810000D03*
X141400000Y-94270000D03*
X138860000Y-94270000D03*
X146480000Y-96810000D03*
X143940000Y-96810000D03*
X133780000Y-91730000D03*
X131240000Y-89190000D03*
X131240000Y-91730000D03*
X133780000Y-89190000D03*
X121080000Y-94270000D03*
X121080000Y-96810000D03*
X123620000Y-94270000D03*
X123620000Y-96810000D03*
X126160000Y-94270000D03*
X128700000Y-96810000D03*
X126160000Y-96810000D03*
X128700000Y-94270000D03*
X121080000Y-91730000D03*
X121080000Y-89190000D03*
X128700000Y-89190000D03*
X126160000Y-91730000D03*
X128700000Y-91730000D03*
X123620000Y-91730000D03*
X123620000Y-89190000D03*
X126160000Y-89190000D03*
X133780000Y-94270000D03*
X133780000Y-96810000D03*
X131240000Y-96810000D03*
X131240000Y-94270000D03*
X88060000Y-89190000D03*
X88060000Y-91730000D03*
X85520000Y-89190000D03*
X85520000Y-91730000D03*
X67740000Y-89190000D03*
X67740000Y-91730000D03*
X70280000Y-91730000D03*
X70280000Y-89190000D03*
X82980000Y-91730000D03*
X82980000Y-89190000D03*
X77900000Y-91730000D03*
X77900000Y-94270000D03*
X80440000Y-91730000D03*
X80440000Y-89190000D03*
X77900000Y-89190000D03*
X70280000Y-94270000D03*
X72820000Y-89190000D03*
X75360000Y-91730000D03*
X75360000Y-94270000D03*
X75360000Y-89190000D03*
X72820000Y-94270000D03*
X72820000Y-91730000D03*
X75360000Y-96810000D03*
X77900000Y-96810000D03*
X65200000Y-96810000D03*
X67740000Y-96810000D03*
X72820000Y-96810000D03*
X70280000Y-96810000D03*
X67740000Y-94270000D03*
X65200000Y-89190000D03*
X65200000Y-91730000D03*
X65200000Y-94270000D03*
X57580000Y-96810000D03*
X60120000Y-94270000D03*
X57580000Y-94270000D03*
X62660000Y-89190000D03*
X60120000Y-89190000D03*
X60120000Y-91730000D03*
X62660000Y-91730000D03*
X62660000Y-94270000D03*
X62660000Y-96810000D03*
X60120000Y-96810000D03*
X52500000Y-91730000D03*
X55040000Y-94270000D03*
X52500000Y-94270000D03*
X52500000Y-89190000D03*
X55040000Y-96810000D03*
X52500000Y-96810000D03*
X57580000Y-89190000D03*
X55040000Y-89190000D03*
X57580000Y-91730000D03*
X55040000Y-91730000D03*
X80440000Y-94270000D03*
X82980000Y-94270000D03*
X82980000Y-96810000D03*
X80440000Y-96810000D03*
X85520000Y-94270000D03*
X88060000Y-94270000D03*
X88060000Y-96810000D03*
X85520000Y-96810000D03*
X90600000Y-96810000D03*
X93140000Y-94270000D03*
X93140000Y-96810000D03*
X90600000Y-94270000D03*
X90600000Y-91730000D03*
X93140000Y-91730000D03*
X93140000Y-89190000D03*
X90600000Y-89190000D03*
X95680000Y-91730000D03*
X100760000Y-89190000D03*
X100760000Y-91730000D03*
X98220000Y-91730000D03*
X95680000Y-89190000D03*
X98220000Y-89190000D03*
X103300000Y-96810000D03*
X105840000Y-96810000D03*
X105840000Y-94270000D03*
X103300000Y-94270000D03*
X103300000Y-89190000D03*
X105840000Y-89190000D03*
X103300000Y-91730000D03*
X105840000Y-91730000D03*
X95680000Y-94270000D03*
X98220000Y-96810000D03*
X95680000Y-96810000D03*
X100760000Y-94270000D03*
X100760000Y-96810000D03*
X98220000Y-94270000D03*
X118540000Y-94270000D03*
X116000000Y-96810000D03*
X116000000Y-94270000D03*
X118540000Y-96810000D03*
X118540000Y-91730000D03*
X116000000Y-89190000D03*
X116000000Y-91730000D03*
X118540000Y-89190000D03*
X113460000Y-96810000D03*
X108380000Y-94270000D03*
X110920000Y-96810000D03*
X113460000Y-94270000D03*
X110920000Y-94270000D03*
X108380000Y-96810000D03*
X108380000Y-91730000D03*
X113460000Y-91730000D03*
X113460000Y-89190000D03*
X110920000Y-89190000D03*
X110920000Y-91730000D03*
X108380000Y-89190000D03*
X60120000Y-104430000D03*
X62660000Y-104430000D03*
X60120000Y-101890000D03*
X60120000Y-99350000D03*
X62660000Y-101890000D03*
X62660000Y-99350000D03*
X52500000Y-114590000D03*
X52500000Y-117130000D03*
X55040000Y-117130000D03*
X55040000Y-114590000D03*
X60120000Y-117130000D03*
X62660000Y-114590000D03*
X62660000Y-117130000D03*
X60120000Y-114590000D03*
X55040000Y-101890000D03*
X57580000Y-101890000D03*
X52500000Y-99350000D03*
X57580000Y-99350000D03*
X52500000Y-101890000D03*
X55040000Y-99350000D03*
X57580000Y-114590000D03*
X57580000Y-117130000D03*
X55040000Y-112050000D03*
X52500000Y-112050000D03*
X55040000Y-104430000D03*
X52500000Y-104430000D03*
X57580000Y-104430000D03*
X52500000Y-106970000D03*
X52500000Y-109510000D03*
X55040000Y-106970000D03*
X55040000Y-109510000D03*
X57580000Y-109510000D03*
X57580000Y-106970000D03*
X60120000Y-106970000D03*
X62660000Y-106970000D03*
X62660000Y-112050000D03*
X62660000Y-109510000D03*
X60120000Y-109510000D03*
X57580000Y-112050000D03*
X60120000Y-112050000D03*
X77900000Y-117130000D03*
X77900000Y-114590000D03*
X70280000Y-117130000D03*
X65200000Y-117130000D03*
X67740000Y-117130000D03*
X70280000Y-109510000D03*
X65200000Y-114590000D03*
X70280000Y-114590000D03*
X67740000Y-114590000D03*
X70280000Y-112050000D03*
X67740000Y-112050000D03*
X65200000Y-109510000D03*
X67740000Y-109510000D03*
X65200000Y-112050000D03*
X75360000Y-114590000D03*
X72820000Y-117130000D03*
X75360000Y-117130000D03*
X72820000Y-114590000D03*
X77900000Y-109510000D03*
X72820000Y-109510000D03*
X75360000Y-109510000D03*
X75360000Y-112050000D03*
X77900000Y-112050000D03*
X72820000Y-112050000D03*
X85520000Y-104430000D03*
X85520000Y-106970000D03*
X88060000Y-106970000D03*
X88060000Y-104430000D03*
X88060000Y-101890000D03*
X70280000Y-101890000D03*
X67740000Y-99350000D03*
X67740000Y-101890000D03*
X72820000Y-101890000D03*
X72820000Y-99350000D03*
X70280000Y-99350000D03*
X75360000Y-99350000D03*
X77900000Y-99350000D03*
X75360000Y-101890000D03*
X77900000Y-101890000D03*
X80440000Y-99350000D03*
X70280000Y-106970000D03*
X72820000Y-104430000D03*
X72820000Y-106970000D03*
X75360000Y-106970000D03*
X75360000Y-104430000D03*
X70280000Y-104430000D03*
X67740000Y-106970000D03*
X65200000Y-101890000D03*
X65200000Y-99350000D03*
X67740000Y-104430000D03*
X65200000Y-104430000D03*
X65200000Y-106970000D03*
X77900000Y-104430000D03*
X77900000Y-106970000D03*
X82980000Y-106970000D03*
X80440000Y-101890000D03*
X80440000Y-104430000D03*
X80440000Y-106970000D03*
X82980000Y-104430000D03*
X85520000Y-99350000D03*
X88060000Y-99350000D03*
X82980000Y-99350000D03*
X85520000Y-101890000D03*
X82980000Y-101890000D03*
X116000000Y-117130000D03*
X116000000Y-114590000D03*
X118540000Y-117130000D03*
X118540000Y-114590000D03*
X113460000Y-117130000D03*
X110920000Y-114590000D03*
X113460000Y-114590000D03*
X110920000Y-117130000D03*
X110920000Y-109510000D03*
X110920000Y-112050000D03*
X113460000Y-112050000D03*
X113460000Y-109510000D03*
X116000000Y-112050000D03*
X116000000Y-109510000D03*
X118540000Y-109510000D03*
X118540000Y-112050000D03*
X123620000Y-117130000D03*
X121080000Y-114590000D03*
X121080000Y-117130000D03*
X123620000Y-114590000D03*
X136320000Y-109510000D03*
X131240000Y-109510000D03*
X133780000Y-112050000D03*
X131240000Y-112050000D03*
X133780000Y-109510000D03*
X133780000Y-114590000D03*
X136320000Y-117130000D03*
X133780000Y-117130000D03*
X136320000Y-112050000D03*
X136320000Y-114590000D03*
X123620000Y-109510000D03*
X123620000Y-112050000D03*
X121080000Y-109510000D03*
X121080000Y-112050000D03*
X126160000Y-109510000D03*
X128700000Y-112050000D03*
X128700000Y-109510000D03*
X126160000Y-112050000D03*
X126160000Y-114590000D03*
X126160000Y-117130000D03*
X131240000Y-114590000D03*
X128700000Y-114590000D03*
X131240000Y-117130000D03*
X128700000Y-117130000D03*
X108380000Y-101890000D03*
X108380000Y-99350000D03*
X110920000Y-99350000D03*
X113460000Y-99350000D03*
X110920000Y-101890000D03*
X113460000Y-101890000D03*
X116000000Y-106970000D03*
X121080000Y-104430000D03*
X116000000Y-104430000D03*
X123620000Y-104430000D03*
X123620000Y-106970000D03*
X121080000Y-106970000D03*
X118540000Y-106970000D03*
X118540000Y-104430000D03*
X126160000Y-101890000D03*
X128700000Y-106970000D03*
X128700000Y-104430000D03*
X126160000Y-104430000D03*
X128700000Y-101890000D03*
X126160000Y-99350000D03*
X128700000Y-99350000D03*
X126160000Y-106970000D03*
X116000000Y-99350000D03*
X116000000Y-101890000D03*
X121080000Y-101890000D03*
X123620000Y-101890000D03*
X123620000Y-99350000D03*
X121080000Y-99350000D03*
X118540000Y-99350000D03*
X118540000Y-101890000D03*
X108380000Y-106970000D03*
X113460000Y-106970000D03*
X110920000Y-106970000D03*
X108380000Y-104430000D03*
X110920000Y-104430000D03*
X113460000Y-104430000D03*
X146480000Y-101890000D03*
X146480000Y-106970000D03*
X146480000Y-104430000D03*
X146480000Y-99350000D03*
X143940000Y-99350000D03*
X136320000Y-99350000D03*
X136320000Y-101890000D03*
X133780000Y-99350000D03*
X131240000Y-99350000D03*
X136320000Y-106970000D03*
X133780000Y-106970000D03*
X136320000Y-104430000D03*
X133780000Y-104430000D03*
X133780000Y-101890000D03*
X131240000Y-104430000D03*
X131240000Y-101890000D03*
X131240000Y-106970000D03*
X141400000Y-101890000D03*
X138860000Y-101890000D03*
X141400000Y-99350000D03*
X138860000Y-99350000D03*
X143940000Y-104430000D03*
X143940000Y-101890000D03*
X141400000Y-104430000D03*
X138860000Y-104430000D03*
X138860000Y-109510000D03*
X138860000Y-112050000D03*
X138860000Y-106970000D03*
X141400000Y-109510000D03*
X143940000Y-106970000D03*
X141400000Y-106970000D03*
X141400000Y-112050000D03*
X105840000Y-106970000D03*
X103300000Y-106970000D03*
X100760000Y-106970000D03*
X100760000Y-104430000D03*
X100760000Y-101890000D03*
X98220000Y-99350000D03*
X98220000Y-101890000D03*
X98220000Y-104430000D03*
X100760000Y-99350000D03*
X90600000Y-99350000D03*
X95680000Y-99350000D03*
X93140000Y-101890000D03*
X90600000Y-101890000D03*
X95680000Y-101890000D03*
X93140000Y-99350000D03*
X105840000Y-101890000D03*
X105840000Y-104430000D03*
X103300000Y-99350000D03*
X105840000Y-99350000D03*
X103300000Y-101890000D03*
X103300000Y-104430000D03*
X98220000Y-106970000D03*
X90600000Y-104430000D03*
X95680000Y-106970000D03*
X93140000Y-106970000D03*
X90600000Y-106970000D03*
X95680000Y-104430000D03*
X93140000Y-104430000D03*
X146480000Y-109510000D03*
X146480000Y-114590000D03*
X143940000Y-109510000D03*
X146480000Y-112050000D03*
X143940000Y-112050000D03*
X138860000Y-114590000D03*
X141400000Y-114590000D03*
X143940000Y-114590000D03*
X138860000Y-117130000D03*
X143940000Y-117130000D03*
X141400000Y-117130000D03*
X146480000Y-117130000D03*
X100760000Y-117130000D03*
X103300000Y-117130000D03*
X100760000Y-114590000D03*
X103300000Y-114590000D03*
X105840000Y-109510000D03*
X108380000Y-112050000D03*
X105840000Y-112050000D03*
X108380000Y-109510000D03*
X108380000Y-114590000D03*
X105840000Y-117130000D03*
X105840000Y-114590000D03*
X108380000Y-117130000D03*
X100760000Y-109510000D03*
X100760000Y-112050000D03*
X103300000Y-112050000D03*
X103300000Y-109510000D03*
X95680000Y-109510000D03*
X98220000Y-112050000D03*
X95680000Y-112050000D03*
X98220000Y-109510000D03*
X93140000Y-112050000D03*
X93140000Y-109510000D03*
X90600000Y-112050000D03*
X90600000Y-109510000D03*
X82980000Y-109510000D03*
X85520000Y-109510000D03*
X80440000Y-112050000D03*
X80440000Y-109510000D03*
X82980000Y-114590000D03*
X80440000Y-114590000D03*
X82980000Y-112050000D03*
X85520000Y-114590000D03*
X88060000Y-114590000D03*
X88060000Y-109510000D03*
X88060000Y-112050000D03*
X85520000Y-112050000D03*
X85520000Y-117130000D03*
X82980000Y-117130000D03*
X80440000Y-117130000D03*
X90600000Y-117130000D03*
X88060000Y-117130000D03*
X93140000Y-117130000D03*
X93140000Y-114590000D03*
X90600000Y-114590000D03*
X95680000Y-114590000D03*
X95680000Y-117130000D03*
X98220000Y-117130000D03*
X98220000Y-114590000D03*
X55040000Y-124750000D03*
X55040000Y-127290000D03*
X57580000Y-127290000D03*
X57580000Y-124750000D03*
X60120000Y-124750000D03*
X67740000Y-127290000D03*
X62660000Y-124750000D03*
X60120000Y-127290000D03*
X62660000Y-127290000D03*
X65200000Y-127290000D03*
X65200000Y-124750000D03*
X67740000Y-124750000D03*
X52500000Y-124750000D03*
X52500000Y-119670000D03*
X52500000Y-122210000D03*
X52500000Y-127290000D03*
X60120000Y-122210000D03*
X55040000Y-122210000D03*
X57580000Y-122210000D03*
X60120000Y-119670000D03*
X55040000Y-119670000D03*
X62660000Y-119670000D03*
X62660000Y-122210000D03*
X57580000Y-119670000D03*
X65200000Y-122210000D03*
X65200000Y-119670000D03*
X70280000Y-127290000D03*
X70280000Y-124750000D03*
X67740000Y-119670000D03*
X70280000Y-119670000D03*
X67740000Y-122210000D03*
X70280000Y-122210000D03*
X146480000Y-122210000D03*
X146480000Y-124750000D03*
X146480000Y-119670000D03*
X141400000Y-122210000D03*
X138860000Y-119670000D03*
X141400000Y-119670000D03*
X138860000Y-122210000D03*
X143940000Y-119670000D03*
X143940000Y-124750000D03*
X141400000Y-124750000D03*
X143940000Y-122210000D03*
X138860000Y-124750000D03*
X146480000Y-127290000D03*
X141400000Y-127290000D03*
X143940000Y-127290000D03*
X138860000Y-127290000D03*
X72820000Y-122210000D03*
X75360000Y-119670000D03*
X77900000Y-122210000D03*
X77900000Y-119670000D03*
X72820000Y-119670000D03*
X75360000Y-122210000D03*
X72820000Y-124750000D03*
X72820000Y-127290000D03*
X77900000Y-124750000D03*
X77900000Y-127290000D03*
X75360000Y-127290000D03*
X75360000Y-124750000D03*
X116000000Y-127290000D03*
X116000000Y-119670000D03*
X116000000Y-122210000D03*
X116000000Y-124750000D03*
X105840000Y-127290000D03*
X108380000Y-127290000D03*
X113460000Y-127290000D03*
X110920000Y-127290000D03*
X108380000Y-124750000D03*
X108380000Y-122210000D03*
X108380000Y-119670000D03*
X110920000Y-119670000D03*
X113460000Y-119670000D03*
X110920000Y-124750000D03*
X110920000Y-122210000D03*
X113460000Y-122210000D03*
X113460000Y-124750000D03*
X105840000Y-122210000D03*
X105840000Y-124750000D03*
X100760000Y-124750000D03*
X103300000Y-119670000D03*
X100760000Y-119670000D03*
X105840000Y-119670000D03*
X103300000Y-122210000D03*
X100760000Y-122210000D03*
X133780000Y-127290000D03*
X136320000Y-124750000D03*
X133780000Y-124750000D03*
X136320000Y-119670000D03*
X136320000Y-122210000D03*
X136320000Y-127290000D03*
X131240000Y-124750000D03*
X121080000Y-124750000D03*
X123620000Y-124750000D03*
X123620000Y-127290000D03*
X121080000Y-127290000D03*
X118540000Y-127290000D03*
X133780000Y-119670000D03*
X133780000Y-122210000D03*
X126160000Y-122210000D03*
X128700000Y-122210000D03*
X131240000Y-119670000D03*
X126160000Y-119670000D03*
X128700000Y-119670000D03*
X131240000Y-122210000D03*
X118540000Y-124750000D03*
X121080000Y-122210000D03*
X123620000Y-122210000D03*
X123620000Y-119670000D03*
X121080000Y-119670000D03*
X118540000Y-119670000D03*
X118540000Y-122210000D03*
X126160000Y-127290000D03*
X128700000Y-127290000D03*
X131240000Y-127290000D03*
X128700000Y-124750000D03*
X126160000Y-124750000D03*
X98220000Y-119670000D03*
X98220000Y-122210000D03*
X90600000Y-119670000D03*
X93140000Y-119670000D03*
X95680000Y-119670000D03*
X93140000Y-122210000D03*
X90600000Y-122210000D03*
X95680000Y-122210000D03*
X85520000Y-124750000D03*
X85520000Y-119670000D03*
X88060000Y-119670000D03*
X88060000Y-124750000D03*
X88060000Y-122210000D03*
X85520000Y-122210000D03*
X82980000Y-124750000D03*
X82980000Y-122210000D03*
X80440000Y-122210000D03*
X80440000Y-119670000D03*
X80440000Y-124750000D03*
X82980000Y-119670000D03*
X82980000Y-127290000D03*
X85520000Y-127290000D03*
X88060000Y-127290000D03*
X80440000Y-127290000D03*
X98220000Y-124750000D03*
X100760000Y-127290000D03*
X98220000Y-127290000D03*
X103300000Y-127290000D03*
X103300000Y-124750000D03*
X90600000Y-124750000D03*
X93140000Y-124750000D03*
X93140000Y-127290000D03*
X90600000Y-127290000D03*
X95680000Y-124750000D03*
X95680000Y-127290000D03*
X133780000Y-137450000D03*
X133780000Y-129830000D03*
X136320000Y-137450000D03*
X136320000Y-129830000D03*
X136320000Y-134910000D03*
X136320000Y-132370000D03*
X133780000Y-132370000D03*
X133780000Y-134910000D03*
X143940000Y-134910000D03*
X141400000Y-134910000D03*
X138860000Y-134910000D03*
X138860000Y-129830000D03*
X138860000Y-132370000D03*
X141400000Y-132370000D03*
X143940000Y-132370000D03*
X141400000Y-129830000D03*
X143940000Y-129830000D03*
X146480000Y-134910000D03*
X146480000Y-137450000D03*
X146480000Y-132370000D03*
X146480000Y-129830000D03*
X141400000Y-137450000D03*
X138860000Y-137450000D03*
X143940000Y-137450000D03*
X105840000Y-132370000D03*
X103300000Y-129830000D03*
X108380000Y-132370000D03*
X105840000Y-129830000D03*
X103300000Y-132370000D03*
X108380000Y-129830000D03*
X98220000Y-129830000D03*
X98220000Y-134910000D03*
X100760000Y-134910000D03*
X98220000Y-132370000D03*
X100760000Y-132370000D03*
X100760000Y-129830000D03*
X100760000Y-137450000D03*
X98220000Y-137450000D03*
X103300000Y-137450000D03*
X105840000Y-134910000D03*
X103300000Y-134910000D03*
X105840000Y-137450000D03*
X108380000Y-137450000D03*
X108380000Y-134910000D03*
X82980000Y-134910000D03*
X82980000Y-137450000D03*
X85520000Y-134910000D03*
X88060000Y-134910000D03*
X88060000Y-137450000D03*
X88060000Y-132370000D03*
X85520000Y-132370000D03*
X85520000Y-137450000D03*
X88060000Y-129830000D03*
X85520000Y-129830000D03*
X82980000Y-129830000D03*
X82980000Y-132370000D03*
X90600000Y-134910000D03*
X93140000Y-137450000D03*
X90600000Y-137450000D03*
X95680000Y-134910000D03*
X93140000Y-134910000D03*
X95680000Y-137450000D03*
X90600000Y-129830000D03*
X93140000Y-129830000D03*
X95680000Y-129830000D03*
X93140000Y-132370000D03*
X90600000Y-132370000D03*
X95680000Y-132370000D03*
X131240000Y-132370000D03*
X131240000Y-134910000D03*
X131240000Y-137450000D03*
X123620000Y-134910000D03*
X121080000Y-137450000D03*
X121080000Y-134910000D03*
X123620000Y-137450000D03*
X126160000Y-137450000D03*
X126160000Y-134910000D03*
X118540000Y-137450000D03*
X118540000Y-134910000D03*
X110920000Y-134910000D03*
X113460000Y-137450000D03*
X113460000Y-134910000D03*
X116000000Y-134910000D03*
X110920000Y-137450000D03*
X116000000Y-137450000D03*
X110920000Y-132370000D03*
X116000000Y-132370000D03*
X116000000Y-129830000D03*
X110920000Y-129830000D03*
X113460000Y-132370000D03*
X113460000Y-129830000D03*
X128700000Y-137450000D03*
X131240000Y-129830000D03*
X128700000Y-132370000D03*
X128700000Y-134910000D03*
X128700000Y-129830000D03*
X123620000Y-129830000D03*
X121080000Y-132370000D03*
X126160000Y-132370000D03*
X118540000Y-129830000D03*
X118540000Y-132370000D03*
X123620000Y-132370000D03*
X126160000Y-129830000D03*
X121080000Y-129830000D03*
X52500000Y-134910000D03*
X52500000Y-137450000D03*
X55040000Y-134910000D03*
X55040000Y-137450000D03*
X57580000Y-137450000D03*
X57580000Y-134910000D03*
X60120000Y-132370000D03*
X60120000Y-134910000D03*
X62660000Y-134910000D03*
X60120000Y-137450000D03*
X62660000Y-137450000D03*
X52500000Y-132370000D03*
X52500000Y-129830000D03*
X57580000Y-129830000D03*
X55040000Y-129830000D03*
X55040000Y-132370000D03*
X57580000Y-132370000D03*
X60120000Y-129830000D03*
X62660000Y-129830000D03*
X65200000Y-137450000D03*
X65200000Y-132370000D03*
X65200000Y-134910000D03*
X62660000Y-132370000D03*
X65200000Y-129830000D03*
X67740000Y-137450000D03*
X67740000Y-134910000D03*
X70280000Y-137450000D03*
X72820000Y-134910000D03*
X72820000Y-137450000D03*
X70280000Y-134910000D03*
X75360000Y-129830000D03*
X80440000Y-132370000D03*
X77900000Y-132370000D03*
X77900000Y-129830000D03*
X80440000Y-129830000D03*
X75360000Y-132370000D03*
X67740000Y-129830000D03*
X70280000Y-129830000D03*
X72820000Y-129830000D03*
X70280000Y-132370000D03*
X67740000Y-132370000D03*
X72820000Y-132370000D03*
X80440000Y-137450000D03*
X77900000Y-137450000D03*
X75360000Y-137450000D03*
X80440000Y-134910000D03*
X75360000Y-134910000D03*
X77900000Y-134910000D03*
X138860000Y-147610000D03*
X138860000Y-145070000D03*
X138860000Y-142530000D03*
X138860000Y-139990000D03*
X136320000Y-145070000D03*
X136320000Y-147610000D03*
X136320000Y-139990000D03*
X136320000Y-142530000D03*
X123620000Y-139990000D03*
X121080000Y-139990000D03*
X121080000Y-145070000D03*
X121080000Y-142530000D03*
X131240000Y-139990000D03*
X128700000Y-142530000D03*
X126160000Y-139990000D03*
X128700000Y-139990000D03*
X126160000Y-142530000D03*
X131240000Y-145070000D03*
X131240000Y-142530000D03*
X128700000Y-147610000D03*
X126160000Y-147610000D03*
X126160000Y-145070000D03*
X131240000Y-147610000D03*
X128700000Y-145070000D03*
X133780000Y-147610000D03*
X133780000Y-145070000D03*
X133780000Y-139990000D03*
X133780000Y-142530000D03*
X121080000Y-147610000D03*
X123620000Y-147610000D03*
X123620000Y-142530000D03*
X123620000Y-145070000D03*
X105840000Y-139990000D03*
X108380000Y-139990000D03*
X108380000Y-147610000D03*
X105840000Y-147610000D03*
X105840000Y-142530000D03*
X108380000Y-145070000D03*
X105840000Y-145070000D03*
X108380000Y-142530000D03*
X110920000Y-145070000D03*
X113460000Y-145070000D03*
X116000000Y-145070000D03*
X116000000Y-147610000D03*
X113460000Y-147610000D03*
X110920000Y-147610000D03*
X118540000Y-139990000D03*
X118540000Y-147610000D03*
X118540000Y-142530000D03*
X118540000Y-145070000D03*
X110920000Y-139990000D03*
X116000000Y-142530000D03*
X116000000Y-139990000D03*
X113460000Y-139990000D03*
X113460000Y-142530000D03*
X110920000Y-142530000D03*
X90600000Y-145070000D03*
X90600000Y-147610000D03*
X90600000Y-142530000D03*
X90600000Y-139990000D03*
X98220000Y-145070000D03*
X100760000Y-145070000D03*
X103300000Y-147610000D03*
X103300000Y-145070000D03*
X100760000Y-147610000D03*
X98220000Y-147610000D03*
X93140000Y-139990000D03*
X93140000Y-145070000D03*
X95680000Y-145070000D03*
X93140000Y-147610000D03*
X95680000Y-147610000D03*
X93140000Y-142530000D03*
X95680000Y-139990000D03*
X98220000Y-139990000D03*
X98220000Y-142530000D03*
X100760000Y-139990000D03*
X103300000Y-142530000D03*
X103300000Y-139990000D03*
X95680000Y-142530000D03*
X100760000Y-142530000D03*
X88060000Y-147610000D03*
X88060000Y-145070000D03*
X88060000Y-142530000D03*
X85520000Y-142530000D03*
X85520000Y-145070000D03*
X85520000Y-147610000D03*
X88060000Y-139990000D03*
X85520000Y-139990000D03*
X82980000Y-147610000D03*
X82980000Y-145070000D03*
X82980000Y-142530000D03*
X80440000Y-142530000D03*
X80440000Y-145070000D03*
X80440000Y-147610000D03*
X82980000Y-139990000D03*
X80440000Y-139990000D03*
X77900000Y-147610000D03*
X77900000Y-145070000D03*
X77900000Y-142530000D03*
X75360000Y-142530000D03*
X75360000Y-145070000D03*
X75360000Y-147610000D03*
X77900000Y-139990000D03*
X75360000Y-139990000D03*
X72820000Y-147610000D03*
X72820000Y-145070000D03*
X72820000Y-142530000D03*
X70280000Y-142530000D03*
X70280000Y-145070000D03*
X70280000Y-147610000D03*
X72820000Y-139990000D03*
X70280000Y-139990000D03*
X67740000Y-147610000D03*
X67740000Y-145070000D03*
X67740000Y-142530000D03*
X65200000Y-142530000D03*
X65200000Y-145070000D03*
X65200000Y-147610000D03*
X67740000Y-139990000D03*
X65200000Y-139990000D03*
X62660000Y-147610000D03*
X62660000Y-145070000D03*
X62660000Y-142530000D03*
X62660000Y-139990000D03*
X60120000Y-139990000D03*
X60120000Y-142530000D03*
X60120000Y-145070000D03*
D12*
X95990000Y-61950000D03*
X97890000Y-61950000D03*
X101700000Y-61950000D03*
X99800000Y-61950000D03*
D13*
X89000000Y-57500000D03*
D14*
X89000000Y-55000000D03*
D15*
X119300000Y-61500000D03*
X121500000Y-61500000D03*
D16*
X122950000Y-78190000D03*
D17*
X122950000Y-80730000D03*
X122950000Y-83270000D03*
D18*
X105170000Y-61680000D03*
X107710000Y-61680000D03*
X110250000Y-61680000D03*
X112790000Y-61680000D03*
X105170000Y-51520000D03*
X115330000Y-61680000D03*
X115330000Y-51520000D03*
D11*
X110250000Y-64220000D03*
X112790000Y-64220000D03*
X84850000Y-86445000D03*
X87390000Y-86445000D03*
X89930000Y-86445000D03*
X111520000Y-86445000D03*
X108980000Y-86445000D03*
X106440000Y-86445000D03*
D19*
X122950000Y-65490000D03*
D20*
X122950000Y-68030000D03*
X122950000Y-70570000D03*
D15*
X84900000Y-82000000D03*
X87100000Y-82000000D03*
X84900000Y-80500000D03*
X87100000Y-80500000D03*
X87100000Y-79000000D03*
X84900000Y-79000000D03*
X84900000Y-73000000D03*
X87100000Y-73000000D03*
D21*
X110500000Y-73400000D03*
X110500000Y-75600000D03*
D15*
X113890000Y-68030000D03*
X111690000Y-68030000D03*
D21*
X120410000Y-70400000D03*
X120410000Y-68200000D03*
D15*
X119300000Y-59500000D03*
X121500000Y-59500000D03*
D18*
X117870000Y-82000000D03*
X117870000Y-74380000D03*
X117870000Y-71840000D03*
X112790000Y-71840000D03*
X112790000Y-74380000D03*
X112790000Y-82000000D03*
X82310000Y-78190000D03*
X77230000Y-78190000D03*
X82310000Y-85810000D03*
X77230000Y-85810000D03*
X82310000Y-66760000D03*
X77230000Y-66760000D03*
X82310000Y-74380000D03*
X77230000Y-74380000D03*
D22*
X89820000Y-71330000D03*
X89820000Y-72830000D03*
X89820000Y-74330000D03*
X89820000Y-75830000D03*
X89820000Y-77330000D03*
X89820000Y-78830000D03*
X89820000Y-80330000D03*
X89820000Y-81830000D03*
X89820000Y-83330000D03*
X107740000Y-83330000D03*
X107740000Y-81830000D03*
X107740000Y-80330000D03*
X107740000Y-78830000D03*
X107740000Y-77330000D03*
X107740000Y-75830000D03*
X107740000Y-74330000D03*
X107740000Y-72830000D03*
X107740000Y-71330000D03*
D23*
X96880000Y-59800000D03*
X99160000Y-59800000D03*
X101440000Y-59800000D03*
D24*
X99160000Y-53500000D03*
D25*
X100685000Y-51825000D03*
X97635000Y-55175000D03*
X97635000Y-51825000D03*
X100685000Y-55175000D03*
D11*
X116600000Y-86445000D03*
X119140000Y-86445000D03*
X114060000Y-86445000D03*
X95645000Y-86445000D03*
X101360000Y-86445000D03*
X60120000Y-147610000D03*
D26*
X110250000Y-71840000D03*
X83580000Y-73110000D03*
X83580000Y-80095000D03*
X84850000Y-74380000D03*
X86120000Y-75650000D03*
X87390000Y-77555000D03*
X109500000Y-74500000D03*
X110500000Y-77500000D03*
X87390000Y-66760000D03*
X104535000Y-75650000D03*
D27*
X94000000Y-52000000D02*
X95880999Y-52000000D01*
X119300000Y-59500000D02*
X107350000Y-59500000D01*
X107350000Y-59500000D02*
X105170000Y-61680000D01*
X95990000Y-61950000D02*
X95990000Y-62605000D01*
X104535000Y-63585000D02*
X105170000Y-62950000D01*
X95990000Y-62605000D02*
X96915000Y-63530000D01*
X96915000Y-63530000D02*
X97795000Y-63530000D01*
X97795000Y-63530000D02*
X97850000Y-63585000D01*
X97850000Y-63585000D02*
X104535000Y-63585000D01*
X105170000Y-62950000D02*
X105170000Y-61680000D01*
X96880000Y-59800000D02*
X96880000Y-60300000D01*
X96880000Y-60300000D02*
X95990000Y-61190000D01*
X95990000Y-61190000D02*
X95990000Y-61325000D01*
X95990000Y-61325000D02*
X95990000Y-61950000D01*
X122950000Y-83270000D02*
X124125001Y-82094999D01*
X124125001Y-82094999D02*
X124125001Y-71745001D01*
X124125001Y-71745001D02*
X123849999Y-71469999D01*
X123849999Y-71469999D02*
X122950000Y-70570000D01*
X99160000Y-59800000D02*
X99160000Y-61310000D01*
X99160000Y-61310000D02*
X99800000Y-61950000D01*
X104175000Y-55175000D02*
X105000000Y-56000000D01*
X100685000Y-55175000D02*
X104175000Y-55175000D01*
X100685000Y-51825000D02*
X100685000Y-55175000D01*
X97635000Y-51825000D02*
X100685000Y-51825000D01*
X97635000Y-55175000D02*
X97635000Y-51825000D01*
X100685000Y-55175000D02*
X97635000Y-55175000D01*
X100685000Y-55175000D02*
X100685000Y-55025000D01*
X100685000Y-55025000D02*
X104190000Y-51520000D01*
X104190000Y-51520000D02*
X105170000Y-51520000D01*
X97635000Y-51825000D02*
X104865000Y-51825000D01*
X104865000Y-51825000D02*
X105170000Y-51520000D01*
X95835000Y-55000000D02*
X94000000Y-55000000D01*
X97635000Y-55175000D02*
X96010000Y-55175000D01*
X96010000Y-55175000D02*
X95835000Y-55000000D01*
X95000000Y-58000000D02*
X93000000Y-60000000D01*
X99000000Y-58000000D02*
X95000000Y-58000000D01*
X99160000Y-58160000D02*
X99000000Y-58000000D01*
X99160000Y-59800000D02*
X99160000Y-58160000D01*
X100260000Y-61680000D02*
X97200000Y-61680000D01*
X110250000Y-72300000D02*
X110250000Y-71840000D01*
X110500000Y-73400000D02*
X110500000Y-72550000D01*
X110500000Y-72550000D02*
X110250000Y-72300000D01*
X101700000Y-61950000D02*
X101700000Y-60060000D01*
X101700000Y-60060000D02*
X101440000Y-59800000D01*
X101440000Y-59800000D02*
X101440000Y-58450000D01*
X101440000Y-58450000D02*
X100490000Y-57500000D01*
X100490000Y-57500000D02*
X90050000Y-57500000D01*
X90050000Y-57500000D02*
X89000000Y-57500000D01*
X83580000Y-73110000D02*
X84790000Y-73110000D01*
X84790000Y-73110000D02*
X84900000Y-73000000D01*
X84900000Y-80500000D02*
X83985000Y-80500000D01*
X83985000Y-80500000D02*
X83580000Y-80095000D01*
X84900000Y-82000000D02*
X84900000Y-80500000D01*
X89820000Y-71330000D02*
X85870000Y-71330000D01*
X85870000Y-71330000D02*
X84900000Y-72300000D01*
X84900000Y-72300000D02*
X84900000Y-73000000D01*
X121500000Y-59500000D02*
X121500000Y-61500000D01*
X108990000Y-80330000D02*
X109820000Y-79500000D01*
X109820000Y-79500000D02*
X119690000Y-79500000D01*
X121000000Y-78190000D02*
X122950000Y-78190000D01*
X119690000Y-79500000D02*
X121000000Y-78190000D01*
X107740000Y-80330000D02*
X108990000Y-80330000D01*
X122950000Y-80730000D02*
X110500000Y-80730000D01*
X107740000Y-81830000D02*
X108990000Y-81830000D01*
X108990000Y-81830000D02*
X110090000Y-80730000D01*
X110090000Y-80730000D02*
X110500000Y-80730000D01*
X110250000Y-64220000D02*
X109250001Y-63220001D01*
X109250001Y-63220001D02*
X107710000Y-61680000D01*
X110250000Y-61680000D02*
X112790000Y-64220000D01*
X89820000Y-74330000D02*
X84900000Y-74330000D01*
X84900000Y-74330000D02*
X84850000Y-74380000D01*
X86120000Y-75650000D02*
X89640000Y-75650000D01*
X89640000Y-75650000D02*
X89820000Y-75830000D01*
X87390000Y-77555000D02*
X89595000Y-77555000D01*
X89595000Y-77555000D02*
X89820000Y-77330000D01*
X109500000Y-74500000D02*
X107910000Y-74500000D01*
X107910000Y-74500000D02*
X107740000Y-74330000D01*
X110500000Y-77500000D02*
X107910000Y-77500000D01*
X107910000Y-77500000D02*
X107740000Y-77330000D01*
X107075000Y-85175000D02*
X107740000Y-84510000D01*
X107075000Y-85175000D02*
X107075000Y-85810000D01*
X107075000Y-85810000D02*
X106440000Y-86445000D01*
X107740000Y-84510000D02*
X107740000Y-83330000D01*
X113890000Y-68030000D02*
X120240000Y-68030000D01*
X120240000Y-68030000D02*
X120410000Y-68200000D01*
X120410000Y-68200000D02*
X120410000Y-66880000D01*
X120410000Y-66880000D02*
X121800000Y-65490000D01*
X121800000Y-65490000D02*
X122950000Y-65490000D01*
X117870000Y-74380000D02*
X118947630Y-74380000D01*
X118947630Y-74380000D02*
X121327630Y-72000000D01*
X121327630Y-72000000D02*
X121327630Y-69652370D01*
X121327630Y-69652370D02*
X122050001Y-68929999D01*
X122050001Y-68929999D02*
X122950000Y-68030000D01*
X82310000Y-78190000D02*
X82310000Y-85810000D01*
X82310000Y-85810000D02*
X83635001Y-84484999D01*
X83635001Y-84484999D02*
X84465001Y-84484999D01*
X84465001Y-84484999D02*
X86950000Y-82000000D01*
X86950000Y-82000000D02*
X87100000Y-82000000D01*
X87100000Y-82000000D02*
X89650000Y-82000000D01*
X89650000Y-82000000D02*
X89820000Y-81830000D01*
X89820000Y-80330000D02*
X87270000Y-80330000D01*
X87270000Y-80330000D02*
X87100000Y-80500000D01*
X87100000Y-79000000D02*
X89650000Y-79000000D01*
X89650000Y-79000000D02*
X89820000Y-78830000D01*
X87100000Y-73000000D02*
X89650000Y-73000000D01*
X89650000Y-73000000D02*
X89820000Y-72830000D01*
X82310000Y-74380000D02*
X82310000Y-66760000D01*
X87390000Y-66760000D02*
X82310000Y-66760000D01*
X106310000Y-75650000D02*
X104535000Y-75650000D01*
X107740000Y-75830000D02*
X106490000Y-75830000D01*
X106490000Y-75830000D02*
X106310000Y-75650000D01*
X110500000Y-75600000D02*
X110500000Y-75750000D01*
X110500000Y-75750000D02*
X110420000Y-75830000D01*
X110420000Y-75830000D02*
X108990000Y-75830000D01*
X108990000Y-75830000D02*
X107740000Y-75830000D01*
X108990000Y-72830000D02*
X109615000Y-72205000D01*
X110120000Y-70570000D02*
X110120000Y-69430000D01*
X109615000Y-72205000D02*
X109615000Y-71075000D01*
X109615000Y-71075000D02*
X110120000Y-70570000D01*
X110120000Y-69430000D02*
X110140000Y-69430000D01*
X110140000Y-69430000D02*
X111540000Y-68030000D01*
X111540000Y-68030000D02*
X111690000Y-68030000D01*
X107740000Y-72830000D02*
X108990000Y-72830000D01*
X114060000Y-85175000D02*
X114060000Y-85810000D01*
X114060000Y-83270000D02*
X114060000Y-85175000D01*
X114060000Y-85175000D02*
X114060000Y-86445000D01*
X114060000Y-83270000D02*
X116600000Y-83270000D01*
X116600000Y-83270000D02*
X117870000Y-82000000D01*
X112790000Y-82000000D02*
X114060000Y-83270000D01*
D28*
G36*
X95625000Y-51240000D02*
X94000000Y-51240000D01*
X93709161Y-51297852D01*
X93462599Y-51462599D01*
X93297852Y-51709161D01*
X93240000Y-52000000D01*
X93297852Y-52290839D01*
X93462599Y-52537401D01*
X93709161Y-52702148D01*
X94000000Y-52760000D01*
X95625000Y-52760000D01*
X95625000Y-53476309D01*
X95634813Y-53500000D01*
X95625000Y-53523691D01*
X95625000Y-56740000D01*
X90447440Y-56740000D01*
X90447440Y-56700000D01*
X90403162Y-56464683D01*
X90264090Y-56248559D01*
X90051890Y-56103569D01*
X89813799Y-56055354D01*
X89828139Y-56007745D01*
X89000000Y-55179605D01*
X88171861Y-56007745D01*
X88186145Y-56055167D01*
X87964683Y-56096838D01*
X87748559Y-56235910D01*
X87603569Y-56448110D01*
X87552560Y-56700000D01*
X87552560Y-58300000D01*
X87596838Y-58535317D01*
X87735910Y-58751441D01*
X87948110Y-58896431D01*
X88200000Y-58947440D01*
X89800000Y-58947440D01*
X90035317Y-58903162D01*
X90251441Y-58764090D01*
X90396431Y-58551890D01*
X90447440Y-58300000D01*
X90447440Y-58260000D01*
X95812099Y-58260000D01*
X95683569Y-58448110D01*
X95632560Y-58700000D01*
X95632560Y-60472638D01*
X95452599Y-60652599D01*
X95287852Y-60899161D01*
X95278011Y-60948632D01*
X95154683Y-60971838D01*
X94938559Y-61110910D01*
X94793569Y-61323110D01*
X94742560Y-61575000D01*
X94742560Y-62325000D01*
X94786838Y-62560317D01*
X94925910Y-62776441D01*
X95138110Y-62921431D01*
X95331060Y-62960504D01*
X95452599Y-63142401D01*
X96377599Y-64067401D01*
X96624161Y-64232148D01*
X96915000Y-64290000D01*
X97573499Y-64290000D01*
X97850000Y-64345000D01*
X104535000Y-64345000D01*
X104825839Y-64287148D01*
X105072401Y-64122401D01*
X105707401Y-63487401D01*
X105872148Y-63240839D01*
X105930000Y-62950000D01*
X105930000Y-62877531D01*
X105960303Y-62865010D01*
X106353629Y-62472370D01*
X106439949Y-62264488D01*
X106524990Y-62470303D01*
X106917630Y-62863629D01*
X107430900Y-63076757D01*
X107986661Y-63077242D01*
X108019055Y-63063857D01*
X108683725Y-63728527D01*
X108615284Y-63893352D01*
X108614716Y-64543795D01*
X108863106Y-65144943D01*
X109322637Y-65605278D01*
X109923352Y-65854716D01*
X110573795Y-65855284D01*
X111174943Y-65606894D01*
X111520199Y-65262241D01*
X111862637Y-65605278D01*
X112463352Y-65854716D01*
X113113795Y-65855284D01*
X113714943Y-65606894D01*
X114175278Y-65147363D01*
X114424716Y-64546648D01*
X114425284Y-63896205D01*
X114176894Y-63295057D01*
X113717363Y-62834722D01*
X113641994Y-62803426D01*
X113785457Y-62660213D01*
X114529392Y-62660213D01*
X114598857Y-62902397D01*
X115122302Y-63089144D01*
X115677368Y-63061362D01*
X116061143Y-62902397D01*
X116130608Y-62660213D01*
X115330000Y-61859605D01*
X114529392Y-62660213D01*
X113785457Y-62660213D01*
X113973629Y-62472370D01*
X114053395Y-62280273D01*
X114107603Y-62411143D01*
X114349787Y-62480608D01*
X115150395Y-61680000D01*
X115509605Y-61680000D01*
X116310213Y-62480608D01*
X116552397Y-62411143D01*
X116739144Y-61887698D01*
X116734042Y-61785750D01*
X118065000Y-61785750D01*
X118065000Y-62076310D01*
X118161673Y-62309699D01*
X118340302Y-62488327D01*
X118573691Y-62585000D01*
X119014250Y-62585000D01*
X119173000Y-62426250D01*
X119173000Y-61627000D01*
X118223750Y-61627000D01*
X118065000Y-61785750D01*
X116734042Y-61785750D01*
X116711362Y-61332632D01*
X116552397Y-60948857D01*
X116310213Y-60879392D01*
X115509605Y-61680000D01*
X115150395Y-61680000D01*
X114349787Y-60879392D01*
X114107603Y-60948857D01*
X114057491Y-61089318D01*
X113975010Y-60889697D01*
X113785432Y-60699787D01*
X114529392Y-60699787D01*
X115330000Y-61500395D01*
X116130608Y-60699787D01*
X116061143Y-60457603D01*
X115537698Y-60270856D01*
X114982632Y-60298638D01*
X114598857Y-60457603D01*
X114529392Y-60699787D01*
X113785432Y-60699787D01*
X113582370Y-60496371D01*
X113069100Y-60283243D01*
X112513339Y-60282758D01*
X111999697Y-60494990D01*
X111606371Y-60887630D01*
X111520051Y-61095512D01*
X111435010Y-60889697D01*
X111042370Y-60496371D01*
X110529100Y-60283243D01*
X109973339Y-60282758D01*
X109459697Y-60494990D01*
X109066371Y-60887630D01*
X108980051Y-61095512D01*
X108895010Y-60889697D01*
X108502370Y-60496371D01*
X107989100Y-60283243D01*
X107641862Y-60282940D01*
X107664802Y-60260000D01*
X118144895Y-60260000D01*
X118235910Y-60401441D01*
X118375750Y-60496990D01*
X118340302Y-60511673D01*
X118161673Y-60690301D01*
X118065000Y-60923690D01*
X118065000Y-61214250D01*
X118223750Y-61373000D01*
X119173000Y-61373000D01*
X119173000Y-61353000D01*
X119427000Y-61353000D01*
X119427000Y-61373000D01*
X119447000Y-61373000D01*
X119447000Y-61627000D01*
X119427000Y-61627000D01*
X119427000Y-62426250D01*
X119585750Y-62585000D01*
X120026309Y-62585000D01*
X120259698Y-62488327D01*
X120400936Y-62347090D01*
X120435910Y-62401441D01*
X120648110Y-62546431D01*
X120900000Y-62597440D01*
X122100000Y-62597440D01*
X122335317Y-62553162D01*
X122551441Y-62414090D01*
X122696431Y-62201890D01*
X122747440Y-61950000D01*
X122747440Y-61050000D01*
X122703162Y-60814683D01*
X122564090Y-60598559D01*
X122418917Y-60499367D01*
X122551441Y-60414090D01*
X122696431Y-60201890D01*
X122747440Y-59950000D01*
X122747440Y-59050000D01*
X122703162Y-58814683D01*
X122564090Y-58598559D01*
X122351890Y-58453569D01*
X122100000Y-58402560D01*
X120900000Y-58402560D01*
X120664683Y-58446838D01*
X120448559Y-58585910D01*
X120400866Y-58655711D01*
X120364090Y-58598559D01*
X120151890Y-58453569D01*
X119900000Y-58402560D01*
X118700000Y-58402560D01*
X118464683Y-58446838D01*
X118248559Y-58585910D01*
X118143274Y-58740000D01*
X107350000Y-58740000D01*
X107059161Y-58797852D01*
X106812599Y-58962599D01*
X105479381Y-60295817D01*
X105449100Y-60283243D01*
X104893339Y-60282758D01*
X104379697Y-60494990D01*
X103986371Y-60887630D01*
X103773243Y-61400900D01*
X103772758Y-61956661D01*
X103984990Y-62470303D01*
X104279685Y-62765513D01*
X104220198Y-62825000D01*
X102695635Y-62825000D01*
X102751441Y-62789090D01*
X102896431Y-62576890D01*
X102947440Y-62325000D01*
X102947440Y-61575000D01*
X102903162Y-61339683D01*
X102764090Y-61123559D01*
X102656987Y-61050379D01*
X102687440Y-60900000D01*
X102687440Y-58700000D01*
X102643162Y-58464683D01*
X102504090Y-58248559D01*
X102291890Y-58103569D01*
X102075758Y-58059801D01*
X101977401Y-57912599D01*
X101399802Y-57335000D01*
X102186310Y-57335000D01*
X102419699Y-57238327D01*
X102598327Y-57059698D01*
X102695000Y-56826309D01*
X102695000Y-53523691D01*
X102685187Y-53500000D01*
X102695000Y-53476309D01*
X102695000Y-52500213D01*
X104369392Y-52500213D01*
X104438857Y-52742397D01*
X104962302Y-52929144D01*
X105517368Y-52901362D01*
X105901143Y-52742397D01*
X105970608Y-52500213D01*
X114529392Y-52500213D01*
X114598857Y-52742397D01*
X115122302Y-52929144D01*
X115677368Y-52901362D01*
X116061143Y-52742397D01*
X116130608Y-52500213D01*
X115330000Y-51699605D01*
X114529392Y-52500213D01*
X105970608Y-52500213D01*
X105170000Y-51699605D01*
X104369392Y-52500213D01*
X102695000Y-52500213D01*
X102695000Y-50710000D01*
X104180392Y-50710000D01*
X104189785Y-50719393D01*
X103947603Y-50788857D01*
X103760856Y-51312302D01*
X103788638Y-51867368D01*
X103947603Y-52251143D01*
X104189787Y-52320608D01*
X104990395Y-51520000D01*
X104976253Y-51505858D01*
X105155858Y-51326253D01*
X105170000Y-51340395D01*
X105184143Y-51326253D01*
X105363748Y-51505858D01*
X105349605Y-51520000D01*
X106150213Y-52320608D01*
X106392397Y-52251143D01*
X106579144Y-51727698D01*
X106551362Y-51172632D01*
X106392397Y-50788857D01*
X106150215Y-50719393D01*
X106159608Y-50710000D01*
X114340392Y-50710000D01*
X114349785Y-50719393D01*
X114107603Y-50788857D01*
X113920856Y-51312302D01*
X113948638Y-51867368D01*
X114107603Y-52251143D01*
X114349787Y-52320608D01*
X115150395Y-51520000D01*
X115136253Y-51505858D01*
X115315858Y-51326253D01*
X115330000Y-51340395D01*
X115344143Y-51326253D01*
X115523748Y-51505858D01*
X115509605Y-51520000D01*
X116310213Y-52320608D01*
X116552397Y-52251143D01*
X116739144Y-51727698D01*
X116711362Y-51172632D01*
X116552397Y-50788857D01*
X116310215Y-50719393D01*
X116319608Y-50710000D01*
X125873000Y-50710000D01*
X125873000Y-87554748D01*
X125836205Y-87554716D01*
X125235057Y-87803106D01*
X125165041Y-87873000D01*
X124615522Y-87873000D01*
X124547363Y-87804722D01*
X123946648Y-87555284D01*
X123296205Y-87554716D01*
X122695057Y-87803106D01*
X122625041Y-87873000D01*
X122075522Y-87873000D01*
X122007363Y-87804722D01*
X121406648Y-87555284D01*
X120756205Y-87554716D01*
X120155057Y-87803106D01*
X120085041Y-87873000D01*
X119965459Y-87873000D01*
X120064943Y-87831894D01*
X120525278Y-87372363D01*
X120774716Y-86771648D01*
X120775284Y-86121205D01*
X120526894Y-85520057D01*
X120067363Y-85059722D01*
X119466648Y-84810284D01*
X118816205Y-84809716D01*
X118215057Y-85058106D01*
X117869801Y-85402759D01*
X117527363Y-85059722D01*
X116926648Y-84810284D01*
X116276205Y-84809716D01*
X115675057Y-85058106D01*
X115329801Y-85402759D01*
X114987363Y-85059722D01*
X114820000Y-84990227D01*
X114820000Y-84030000D01*
X116600000Y-84030000D01*
X116890839Y-83972148D01*
X117137401Y-83807401D01*
X117317912Y-83626890D01*
X121508524Y-83626890D01*
X121678355Y-84036924D01*
X122068642Y-84465183D01*
X122593108Y-84711486D01*
X122823000Y-84590819D01*
X122823000Y-83397000D01*
X123077000Y-83397000D01*
X123077000Y-84590819D01*
X123306892Y-84711486D01*
X123831358Y-84465183D01*
X124221645Y-84036924D01*
X124391476Y-83626890D01*
X124270155Y-83397000D01*
X123077000Y-83397000D01*
X122823000Y-83397000D01*
X121629845Y-83397000D01*
X121508524Y-83626890D01*
X117317912Y-83626890D01*
X117560619Y-83384183D01*
X117590900Y-83396757D01*
X118146661Y-83397242D01*
X118660303Y-83185010D01*
X119053629Y-82792370D01*
X119266757Y-82279100D01*
X119267242Y-81723339D01*
X119170829Y-81490000D01*
X121677046Y-81490000D01*
X121870853Y-81780054D01*
X122211553Y-82007702D01*
X122068642Y-82074817D01*
X121678355Y-82503076D01*
X121508524Y-82913110D01*
X121629845Y-83143000D01*
X122823000Y-83143000D01*
X122823000Y-83123000D01*
X123077000Y-83123000D01*
X123077000Y-83143000D01*
X124270155Y-83143000D01*
X124391476Y-82913110D01*
X124221645Y-82503076D01*
X123831358Y-82074817D01*
X123688447Y-82007702D01*
X124029147Y-81780054D01*
X124351054Y-81298285D01*
X124464093Y-80730000D01*
X124351054Y-80161715D01*
X124029147Y-79679946D01*
X123987548Y-79652150D01*
X124035317Y-79643162D01*
X124251441Y-79504090D01*
X124396431Y-79291890D01*
X124447440Y-79040000D01*
X124447440Y-77340000D01*
X124403162Y-77104683D01*
X124264090Y-76888559D01*
X124051890Y-76743569D01*
X123800000Y-76692560D01*
X122100000Y-76692560D01*
X121864683Y-76736838D01*
X121648559Y-76875910D01*
X121503569Y-77088110D01*
X121452560Y-77340000D01*
X121452560Y-77430000D01*
X121000000Y-77430000D01*
X120709161Y-77487852D01*
X120462599Y-77652599D01*
X119375198Y-78740000D01*
X109820000Y-78740000D01*
X109529160Y-78797852D01*
X109282599Y-78962599D01*
X109252224Y-78992974D01*
X109216250Y-78957000D01*
X107867000Y-78957000D01*
X107867000Y-78977000D01*
X107613000Y-78977000D01*
X107613000Y-78957000D01*
X106263750Y-78957000D01*
X106105000Y-79115750D01*
X106105000Y-79406310D01*
X106176755Y-79579541D01*
X106143569Y-79628110D01*
X106092560Y-79880000D01*
X106092560Y-80780000D01*
X106136838Y-81015317D01*
X106177481Y-81078478D01*
X106143569Y-81128110D01*
X106092560Y-81380000D01*
X106092560Y-82280000D01*
X106136838Y-82515317D01*
X106177481Y-82578478D01*
X106143569Y-82628110D01*
X106092560Y-82880000D01*
X106092560Y-83780000D01*
X106136838Y-84015317D01*
X106275910Y-84231441D01*
X106488110Y-84376431D01*
X106740000Y-84427440D01*
X106747758Y-84427440D01*
X106537599Y-84637599D01*
X106422416Y-84809983D01*
X106116205Y-84809716D01*
X105515057Y-85058106D01*
X105054722Y-85517637D01*
X104805284Y-86118352D01*
X104804716Y-86768795D01*
X105053106Y-87369943D01*
X105318928Y-87636230D01*
X104915057Y-87803106D01*
X104845041Y-87873000D01*
X104295522Y-87873000D01*
X104227363Y-87804722D01*
X103626648Y-87555284D01*
X102976205Y-87554716D01*
X102375057Y-87803106D01*
X102305041Y-87873000D01*
X102213470Y-87873000D01*
X102234264Y-87864387D01*
X102332927Y-87597532D01*
X101360000Y-86624605D01*
X100425442Y-87559163D01*
X99835057Y-87803106D01*
X99765041Y-87873000D01*
X99215522Y-87873000D01*
X99147363Y-87804722D01*
X98546648Y-87555284D01*
X97896205Y-87554716D01*
X97295057Y-87803106D01*
X97225041Y-87873000D01*
X96675522Y-87873000D01*
X96607363Y-87804722D01*
X96600159Y-87801731D01*
X97030278Y-87372363D01*
X97279716Y-86771648D01*
X97280232Y-86180461D01*
X99714092Y-86180461D01*
X99738144Y-86830460D01*
X99940613Y-87319264D01*
X100207468Y-87417927D01*
X101180395Y-86445000D01*
X101539605Y-86445000D01*
X102512532Y-87417927D01*
X102779387Y-87319264D01*
X103005908Y-86709539D01*
X102981856Y-86059540D01*
X102779387Y-85570736D01*
X102512532Y-85472073D01*
X101539605Y-86445000D01*
X101180395Y-86445000D01*
X100207468Y-85472073D01*
X99940613Y-85570736D01*
X99714092Y-86180461D01*
X97280232Y-86180461D01*
X97280284Y-86121205D01*
X97031894Y-85520057D01*
X96804703Y-85292468D01*
X100387073Y-85292468D01*
X101360000Y-86265395D01*
X102332927Y-85292468D01*
X102234264Y-85025613D01*
X101624539Y-84799092D01*
X100974540Y-84823144D01*
X100485736Y-85025613D01*
X100387073Y-85292468D01*
X96804703Y-85292468D01*
X96572363Y-85059722D01*
X95971648Y-84810284D01*
X95321205Y-84809716D01*
X94720057Y-85058106D01*
X94259722Y-85517637D01*
X94010284Y-86118352D01*
X94009716Y-86768795D01*
X94258106Y-87369943D01*
X94717637Y-87830278D01*
X94724841Y-87833269D01*
X94685041Y-87873000D01*
X94135522Y-87873000D01*
X94067363Y-87804722D01*
X93466648Y-87555284D01*
X92816205Y-87554716D01*
X92215057Y-87803106D01*
X92145041Y-87873000D01*
X91595522Y-87873000D01*
X91527363Y-87804722D01*
X91071701Y-87615515D01*
X91315278Y-87372363D01*
X91564716Y-86771648D01*
X91565284Y-86121205D01*
X91316894Y-85520057D01*
X90857363Y-85059722D01*
X90256648Y-84810284D01*
X89606205Y-84809716D01*
X89005057Y-85058106D01*
X88659801Y-85402759D01*
X88317363Y-85059722D01*
X87716648Y-84810284D01*
X87066205Y-84809716D01*
X86465057Y-85058106D01*
X86119801Y-85402759D01*
X85777363Y-85059722D01*
X85203407Y-84821395D01*
X86409052Y-83615750D01*
X88185000Y-83615750D01*
X88185000Y-83906310D01*
X88281673Y-84139699D01*
X88460302Y-84318327D01*
X88693691Y-84415000D01*
X89534250Y-84415000D01*
X89693000Y-84256250D01*
X89693000Y-83457000D01*
X89947000Y-83457000D01*
X89947000Y-84256250D01*
X90105750Y-84415000D01*
X90946309Y-84415000D01*
X91179698Y-84318327D01*
X91358327Y-84139699D01*
X91455000Y-83906310D01*
X91455000Y-83615750D01*
X91296250Y-83457000D01*
X89947000Y-83457000D01*
X89693000Y-83457000D01*
X88343750Y-83457000D01*
X88185000Y-83615750D01*
X86409052Y-83615750D01*
X86927362Y-83097440D01*
X87700000Y-83097440D01*
X87935317Y-83053162D01*
X88151441Y-82914090D01*
X88185000Y-82864975D01*
X88185000Y-83044250D01*
X88343750Y-83203000D01*
X89693000Y-83203000D01*
X89693000Y-83183000D01*
X89947000Y-83183000D01*
X89947000Y-83203000D01*
X91296250Y-83203000D01*
X91455000Y-83044250D01*
X91455000Y-82753690D01*
X91383245Y-82580459D01*
X91416431Y-82531890D01*
X91467440Y-82280000D01*
X91467440Y-81380000D01*
X91423162Y-81144683D01*
X91382519Y-81081522D01*
X91416431Y-81031890D01*
X91467440Y-80780000D01*
X91467440Y-79880000D01*
X91423162Y-79644683D01*
X91382519Y-79581522D01*
X91416431Y-79531890D01*
X91467440Y-79280000D01*
X91467440Y-78380000D01*
X91423162Y-78144683D01*
X91382519Y-78081522D01*
X91416431Y-78031890D01*
X91467440Y-77780000D01*
X91467440Y-76880000D01*
X91423162Y-76644683D01*
X91382519Y-76581522D01*
X91416431Y-76531890D01*
X91467440Y-76280000D01*
X91467440Y-75835167D01*
X103599838Y-75835167D01*
X103741883Y-76178943D01*
X104004673Y-76442192D01*
X104348201Y-76584838D01*
X104720167Y-76585162D01*
X105063943Y-76443117D01*
X105097118Y-76410000D01*
X106016353Y-76410000D01*
X106131498Y-76486938D01*
X106136838Y-76515317D01*
X106177481Y-76578478D01*
X106143569Y-76628110D01*
X106092560Y-76880000D01*
X106092560Y-77780000D01*
X106136838Y-78015317D01*
X106177538Y-78078567D01*
X106105000Y-78253690D01*
X106105000Y-78544250D01*
X106263750Y-78703000D01*
X107613000Y-78703000D01*
X107613000Y-78683000D01*
X107867000Y-78683000D01*
X107867000Y-78703000D01*
X109216250Y-78703000D01*
X109375000Y-78544250D01*
X109375000Y-78260000D01*
X109937537Y-78260000D01*
X109969673Y-78292192D01*
X110313201Y-78434838D01*
X110685167Y-78435162D01*
X111028943Y-78293117D01*
X111292192Y-78030327D01*
X111434838Y-77686799D01*
X111435162Y-77314833D01*
X111293117Y-76971057D01*
X111134971Y-76812635D01*
X111185317Y-76803162D01*
X111401441Y-76664090D01*
X111546431Y-76451890D01*
X111597440Y-76200000D01*
X111597440Y-75152031D01*
X111604990Y-75170303D01*
X111997630Y-75563629D01*
X112510900Y-75776757D01*
X113066661Y-75777242D01*
X113580303Y-75565010D01*
X113973629Y-75172370D01*
X114186757Y-74659100D01*
X114187242Y-74103339D01*
X113975010Y-73589697D01*
X113582370Y-73196371D01*
X113374488Y-73110051D01*
X113580303Y-73025010D01*
X113973629Y-72632370D01*
X114186757Y-72119100D01*
X114187242Y-71563339D01*
X113975010Y-71049697D01*
X113582370Y-70656371D01*
X113069100Y-70443243D01*
X112513339Y-70442758D01*
X111999697Y-70654990D01*
X111606371Y-71047630D01*
X111393243Y-71560900D01*
X111392758Y-72116661D01*
X111604990Y-72630303D01*
X111997630Y-73023629D01*
X112205512Y-73109949D01*
X111999697Y-73194990D01*
X111606371Y-73587630D01*
X111597440Y-73609138D01*
X111597440Y-72800000D01*
X111553162Y-72564683D01*
X111414090Y-72348559D01*
X111201890Y-72203569D01*
X111159231Y-72194930D01*
X111131967Y-72154126D01*
X111184838Y-72026799D01*
X111185162Y-71654833D01*
X111043117Y-71311057D01*
X110780327Y-71047808D01*
X110715270Y-71020794D01*
X110822148Y-70860839D01*
X110880000Y-70570000D01*
X110880000Y-69764802D01*
X111517362Y-69127440D01*
X112290000Y-69127440D01*
X112525317Y-69083162D01*
X112741441Y-68944090D01*
X112789134Y-68874289D01*
X112825910Y-68931441D01*
X113038110Y-69076431D01*
X113290000Y-69127440D01*
X114490000Y-69127440D01*
X114725317Y-69083162D01*
X114941441Y-68944090D01*
X115046726Y-68790000D01*
X119312560Y-68790000D01*
X119312560Y-68800000D01*
X119356838Y-69035317D01*
X119495910Y-69251441D01*
X119564006Y-69297969D01*
X119421673Y-69440302D01*
X119325000Y-69673691D01*
X119325000Y-70114250D01*
X119483750Y-70273000D01*
X120283000Y-70273000D01*
X120283000Y-70253000D01*
X120537000Y-70253000D01*
X120537000Y-70273000D01*
X120557000Y-70273000D01*
X120557000Y-70527000D01*
X120537000Y-70527000D01*
X120537000Y-71476250D01*
X120567630Y-71506880D01*
X120567630Y-71685198D01*
X118859242Y-73393586D01*
X118662370Y-73196371D01*
X118454488Y-73110051D01*
X118660303Y-73025010D01*
X119053629Y-72632370D01*
X119266757Y-72119100D01*
X119267242Y-71563339D01*
X119055010Y-71049697D01*
X118691698Y-70685750D01*
X119325000Y-70685750D01*
X119325000Y-71126309D01*
X119421673Y-71359698D01*
X119600301Y-71538327D01*
X119833690Y-71635000D01*
X120124250Y-71635000D01*
X120283000Y-71476250D01*
X120283000Y-70527000D01*
X119483750Y-70527000D01*
X119325000Y-70685750D01*
X118691698Y-70685750D01*
X118662370Y-70656371D01*
X118149100Y-70443243D01*
X117593339Y-70442758D01*
X117079697Y-70654990D01*
X116686371Y-71047630D01*
X116473243Y-71560900D01*
X116472758Y-72116661D01*
X116684990Y-72630303D01*
X117077630Y-73023629D01*
X117285512Y-73109949D01*
X117079697Y-73194990D01*
X116686371Y-73587630D01*
X116473243Y-74100900D01*
X116472758Y-74656661D01*
X116684990Y-75170303D01*
X117077630Y-75563629D01*
X117590900Y-75776757D01*
X118146661Y-75777242D01*
X118660303Y-75565010D01*
X119053629Y-75172370D01*
X119077824Y-75114103D01*
X119238469Y-75082148D01*
X119485031Y-74917401D01*
X121865031Y-72537401D01*
X122029778Y-72290840D01*
X122087630Y-72000000D01*
X122087630Y-71821796D01*
X122153583Y-71882240D01*
X122585260Y-72061036D01*
X122823000Y-71940378D01*
X122823000Y-70697000D01*
X123077000Y-70697000D01*
X123077000Y-71940378D01*
X123314740Y-72061036D01*
X123746417Y-71882240D01*
X124187966Y-71477576D01*
X124441046Y-70934742D01*
X124320997Y-70697000D01*
X123077000Y-70697000D01*
X122823000Y-70697000D01*
X122803000Y-70697000D01*
X122803000Y-70443000D01*
X122823000Y-70443000D01*
X122823000Y-70423000D01*
X123077000Y-70423000D01*
X123077000Y-70443000D01*
X124320997Y-70443000D01*
X124441046Y-70205258D01*
X124187966Y-69662424D01*
X123797418Y-69304501D01*
X124035409Y-69145481D01*
X124368155Y-68647491D01*
X124485000Y-68060072D01*
X124485000Y-67999928D01*
X124368155Y-67412509D01*
X124087163Y-66991974D01*
X124301441Y-66854090D01*
X124446431Y-66641890D01*
X124497440Y-66390000D01*
X124497440Y-64590000D01*
X124453162Y-64354683D01*
X124314090Y-64138559D01*
X124101890Y-63993569D01*
X123850000Y-63942560D01*
X122050000Y-63942560D01*
X121814683Y-63986838D01*
X121598559Y-64125910D01*
X121453569Y-64338110D01*
X121402560Y-64590000D01*
X121402560Y-64859080D01*
X121262599Y-64952599D01*
X119872599Y-66342599D01*
X119707852Y-66589161D01*
X119650000Y-66880000D01*
X119650000Y-67044895D01*
X119508559Y-67135910D01*
X119416939Y-67270000D01*
X115045105Y-67270000D01*
X114954090Y-67128559D01*
X114741890Y-66983569D01*
X114490000Y-66932560D01*
X113290000Y-66932560D01*
X113054683Y-66976838D01*
X112838559Y-67115910D01*
X112790866Y-67185711D01*
X112754090Y-67128559D01*
X112541890Y-66983569D01*
X112290000Y-66932560D01*
X111090000Y-66932560D01*
X110854683Y-66976838D01*
X110638559Y-67115910D01*
X110493569Y-67328110D01*
X110442560Y-67580000D01*
X110442560Y-68052638D01*
X109642872Y-68852326D01*
X109582599Y-68892599D01*
X109417852Y-69139161D01*
X109360000Y-69430000D01*
X109360000Y-70255198D01*
X109186612Y-70428586D01*
X109099698Y-70341673D01*
X108866309Y-70245000D01*
X108025750Y-70245000D01*
X107867000Y-70403750D01*
X107867000Y-71203000D01*
X107887000Y-71203000D01*
X107887000Y-71457000D01*
X107867000Y-71457000D01*
X107867000Y-71477000D01*
X107613000Y-71477000D01*
X107613000Y-71457000D01*
X106263750Y-71457000D01*
X106105000Y-71615750D01*
X106105000Y-71906310D01*
X106176755Y-72079541D01*
X106143569Y-72128110D01*
X106092560Y-72380000D01*
X106092560Y-73280000D01*
X106136838Y-73515317D01*
X106177481Y-73578478D01*
X106143569Y-73628110D01*
X106092560Y-73880000D01*
X106092560Y-74780000D01*
X106113258Y-74890000D01*
X105097463Y-74890000D01*
X105065327Y-74857808D01*
X104721799Y-74715162D01*
X104349833Y-74714838D01*
X104006057Y-74856883D01*
X103742808Y-75119673D01*
X103600162Y-75463201D01*
X103599838Y-75835167D01*
X91467440Y-75835167D01*
X91467440Y-75380000D01*
X91423162Y-75144683D01*
X91382519Y-75081522D01*
X91416431Y-75031890D01*
X91467440Y-74780000D01*
X91467440Y-73880000D01*
X91423162Y-73644683D01*
X91382519Y-73581522D01*
X91416431Y-73531890D01*
X91467440Y-73280000D01*
X91467440Y-72380000D01*
X91423162Y-72144683D01*
X91382519Y-72081522D01*
X91416431Y-72031890D01*
X91467440Y-71780000D01*
X91467440Y-70880000D01*
X91443674Y-70753690D01*
X106105000Y-70753690D01*
X106105000Y-71044250D01*
X106263750Y-71203000D01*
X107613000Y-71203000D01*
X107613000Y-70403750D01*
X107454250Y-70245000D01*
X106613691Y-70245000D01*
X106380302Y-70341673D01*
X106201673Y-70520301D01*
X106105000Y-70753690D01*
X91443674Y-70753690D01*
X91423162Y-70644683D01*
X91284090Y-70428559D01*
X91071890Y-70283569D01*
X90820000Y-70232560D01*
X88820000Y-70232560D01*
X88584683Y-70276838D01*
X88368559Y-70415910D01*
X88263274Y-70570000D01*
X85870000Y-70570000D01*
X85579161Y-70627852D01*
X85332599Y-70792599D01*
X84362599Y-71762599D01*
X84264634Y-71909215D01*
X84064683Y-71946838D01*
X83848559Y-72085910D01*
X83782984Y-72181883D01*
X83766799Y-72175162D01*
X83394833Y-72174838D01*
X83070000Y-72309056D01*
X83070000Y-67957531D01*
X83100303Y-67945010D01*
X83493629Y-67552370D01*
X83507070Y-67520000D01*
X86827537Y-67520000D01*
X86859673Y-67552192D01*
X87203201Y-67694838D01*
X87575167Y-67695162D01*
X87918943Y-67553117D01*
X88182192Y-67290327D01*
X88324838Y-66946799D01*
X88325162Y-66574833D01*
X88183117Y-66231057D01*
X87920327Y-65967808D01*
X87576799Y-65825162D01*
X87204833Y-65824838D01*
X86861057Y-65966883D01*
X86827882Y-66000000D01*
X83507531Y-66000000D01*
X83495010Y-65969697D01*
X83102370Y-65576371D01*
X82589100Y-65363243D01*
X82033339Y-65362758D01*
X81519697Y-65574990D01*
X81126371Y-65967630D01*
X80913243Y-66480900D01*
X80912758Y-67036661D01*
X81124990Y-67550303D01*
X81517630Y-67943629D01*
X81550000Y-67957070D01*
X81550000Y-73182469D01*
X81519697Y-73194990D01*
X81126371Y-73587630D01*
X80913243Y-74100900D01*
X80912758Y-74656661D01*
X81124990Y-75170303D01*
X81517630Y-75563629D01*
X82030900Y-75776757D01*
X82586661Y-75777242D01*
X83100303Y-75565010D01*
X83493629Y-75172370D01*
X83706757Y-74659100D01*
X83707242Y-74103339D01*
X83683174Y-74045091D01*
X83765167Y-74045162D01*
X83940328Y-73972787D01*
X83992020Y-74008107D01*
X83915162Y-74193201D01*
X83914838Y-74565167D01*
X84056883Y-74908943D01*
X84319673Y-75172192D01*
X84663201Y-75314838D01*
X85035167Y-75315162D01*
X85290430Y-75209690D01*
X85185162Y-75463201D01*
X85184838Y-75835167D01*
X85326883Y-76178943D01*
X85589673Y-76442192D01*
X85933201Y-76584838D01*
X86305167Y-76585162D01*
X86648943Y-76443117D01*
X86682118Y-76410000D01*
X88197021Y-76410000D01*
X88216838Y-76515317D01*
X88257481Y-76578478D01*
X88223569Y-76628110D01*
X88189773Y-76795000D01*
X87952463Y-76795000D01*
X87920327Y-76762808D01*
X87576799Y-76620162D01*
X87204833Y-76619838D01*
X86861057Y-76761883D01*
X86597808Y-77024673D01*
X86455162Y-77368201D01*
X86454838Y-77740167D01*
X86521937Y-77902560D01*
X86500000Y-77902560D01*
X86264683Y-77946838D01*
X86048559Y-78085910D01*
X86002031Y-78154006D01*
X85859698Y-78011673D01*
X85626309Y-77915000D01*
X85185750Y-77915000D01*
X85027000Y-78073750D01*
X85027000Y-78873000D01*
X85047000Y-78873000D01*
X85047000Y-79127000D01*
X85027000Y-79127000D01*
X85027000Y-79147000D01*
X84773000Y-79147000D01*
X84773000Y-79127000D01*
X83823750Y-79127000D01*
X83783608Y-79167142D01*
X83766799Y-79160162D01*
X83394833Y-79159838D01*
X83260071Y-79215520D01*
X83493629Y-78982370D01*
X83665000Y-78569662D01*
X83665000Y-78714250D01*
X83823750Y-78873000D01*
X84773000Y-78873000D01*
X84773000Y-78073750D01*
X84614250Y-77915000D01*
X84173691Y-77915000D01*
X83940302Y-78011673D01*
X83761673Y-78190301D01*
X83706885Y-78322571D01*
X83707242Y-77913339D01*
X83495010Y-77399697D01*
X83102370Y-77006371D01*
X82589100Y-76793243D01*
X82033339Y-76792758D01*
X81519697Y-77004990D01*
X81126371Y-77397630D01*
X80913243Y-77910900D01*
X80912758Y-78466661D01*
X81124990Y-78980303D01*
X81517630Y-79373629D01*
X81550000Y-79387070D01*
X81550000Y-84612469D01*
X81519697Y-84624990D01*
X81126371Y-85017630D01*
X80913243Y-85530900D01*
X80912758Y-86086661D01*
X81124990Y-86600303D01*
X81517630Y-86993629D01*
X82030900Y-87206757D01*
X82586661Y-87207242D01*
X83100303Y-86995010D01*
X83247480Y-86848090D01*
X83463106Y-87369943D01*
X83889878Y-87797462D01*
X83306648Y-87555284D01*
X82656205Y-87554716D01*
X82055057Y-87803106D01*
X81985041Y-87873000D01*
X81435522Y-87873000D01*
X81367363Y-87804722D01*
X80766648Y-87555284D01*
X80116205Y-87554716D01*
X79515057Y-87803106D01*
X79445041Y-87873000D01*
X78895522Y-87873000D01*
X78827363Y-87804722D01*
X78226648Y-87555284D01*
X77576205Y-87554716D01*
X76975057Y-87803106D01*
X76905041Y-87873000D01*
X76355522Y-87873000D01*
X76287363Y-87804722D01*
X75686648Y-87555284D01*
X75127000Y-87554795D01*
X75127000Y-86790213D01*
X76429392Y-86790213D01*
X76498857Y-87032397D01*
X77022302Y-87219144D01*
X77577368Y-87191362D01*
X77961143Y-87032397D01*
X78030608Y-86790213D01*
X77230000Y-85989605D01*
X76429392Y-86790213D01*
X75127000Y-86790213D01*
X75127000Y-85602302D01*
X75820856Y-85602302D01*
X75848638Y-86157368D01*
X76007603Y-86541143D01*
X76249787Y-86610608D01*
X77050395Y-85810000D01*
X77409605Y-85810000D01*
X78210213Y-86610608D01*
X78452397Y-86541143D01*
X78639144Y-86017698D01*
X78611362Y-85462632D01*
X78452397Y-85078857D01*
X78210213Y-85009392D01*
X77409605Y-85810000D01*
X77050395Y-85810000D01*
X76249787Y-85009392D01*
X76007603Y-85078857D01*
X75820856Y-85602302D01*
X75127000Y-85602302D01*
X75127000Y-84829787D01*
X76429392Y-84829787D01*
X77230000Y-85630395D01*
X78030608Y-84829787D01*
X77961143Y-84587603D01*
X77437698Y-84400856D01*
X76882632Y-84428638D01*
X76498857Y-84587603D01*
X76429392Y-84829787D01*
X75127000Y-84829787D01*
X75127000Y-79170213D01*
X76429392Y-79170213D01*
X76498857Y-79412397D01*
X77022302Y-79599144D01*
X77577368Y-79571362D01*
X77961143Y-79412397D01*
X78030608Y-79170213D01*
X77230000Y-78369605D01*
X76429392Y-79170213D01*
X75127000Y-79170213D01*
X75127000Y-77982302D01*
X75820856Y-77982302D01*
X75848638Y-78537368D01*
X76007603Y-78921143D01*
X76249787Y-78990608D01*
X77050395Y-78190000D01*
X77409605Y-78190000D01*
X78210213Y-78990608D01*
X78452397Y-78921143D01*
X78639144Y-78397698D01*
X78611362Y-77842632D01*
X78452397Y-77458857D01*
X78210213Y-77389392D01*
X77409605Y-78190000D01*
X77050395Y-78190000D01*
X76249787Y-77389392D01*
X76007603Y-77458857D01*
X75820856Y-77982302D01*
X75127000Y-77982302D01*
X75127000Y-77209787D01*
X76429392Y-77209787D01*
X77230000Y-78010395D01*
X78030608Y-77209787D01*
X77961143Y-76967603D01*
X77437698Y-76780856D01*
X76882632Y-76808638D01*
X76498857Y-76967603D01*
X76429392Y-77209787D01*
X75127000Y-77209787D01*
X75127000Y-75360213D01*
X76429392Y-75360213D01*
X76498857Y-75602397D01*
X77022302Y-75789144D01*
X77577368Y-75761362D01*
X77961143Y-75602397D01*
X78030608Y-75360213D01*
X77230000Y-74559605D01*
X76429392Y-75360213D01*
X75127000Y-75360213D01*
X75127000Y-74172302D01*
X75820856Y-74172302D01*
X75848638Y-74727368D01*
X76007603Y-75111143D01*
X76249787Y-75180608D01*
X77050395Y-74380000D01*
X77409605Y-74380000D01*
X78210213Y-75180608D01*
X78452397Y-75111143D01*
X78639144Y-74587698D01*
X78611362Y-74032632D01*
X78452397Y-73648857D01*
X78210213Y-73579392D01*
X77409605Y-74380000D01*
X77050395Y-74380000D01*
X76249787Y-73579392D01*
X76007603Y-73648857D01*
X75820856Y-74172302D01*
X75127000Y-74172302D01*
X75127000Y-73399787D01*
X76429392Y-73399787D01*
X77230000Y-74200395D01*
X78030608Y-73399787D01*
X77961143Y-73157603D01*
X77437698Y-72970856D01*
X76882632Y-72998638D01*
X76498857Y-73157603D01*
X76429392Y-73399787D01*
X75127000Y-73399787D01*
X75127000Y-67740213D01*
X76429392Y-67740213D01*
X76498857Y-67982397D01*
X77022302Y-68169144D01*
X77577368Y-68141362D01*
X77961143Y-67982397D01*
X78030608Y-67740213D01*
X77230000Y-66939605D01*
X76429392Y-67740213D01*
X75127000Y-67740213D01*
X75127000Y-66552302D01*
X75820856Y-66552302D01*
X75848638Y-67107368D01*
X76007603Y-67491143D01*
X76249787Y-67560608D01*
X77050395Y-66760000D01*
X77409605Y-66760000D01*
X78210213Y-67560608D01*
X78452397Y-67491143D01*
X78639144Y-66967698D01*
X78611362Y-66412632D01*
X78452397Y-66028857D01*
X78210213Y-65959392D01*
X77409605Y-66760000D01*
X77050395Y-66760000D01*
X76249787Y-65959392D01*
X76007603Y-66028857D01*
X75820856Y-66552302D01*
X75127000Y-66552302D01*
X75127000Y-65779787D01*
X76429392Y-65779787D01*
X77230000Y-66580395D01*
X78030608Y-65779787D01*
X77961143Y-65537603D01*
X77437698Y-65350856D01*
X76882632Y-65378638D01*
X76498857Y-65537603D01*
X76429392Y-65779787D01*
X75127000Y-65779787D01*
X75127000Y-54783223D01*
X87553035Y-54783223D01*
X87580222Y-55353454D01*
X87746136Y-55754005D01*
X87992255Y-55828139D01*
X88820395Y-55000000D01*
X89179605Y-55000000D01*
X90007745Y-55828139D01*
X90253864Y-55754005D01*
X90446965Y-55216777D01*
X90419778Y-54646546D01*
X90253864Y-54245995D01*
X90007745Y-54171861D01*
X89179605Y-55000000D01*
X88820395Y-55000000D01*
X87992255Y-54171861D01*
X87746136Y-54245995D01*
X87553035Y-54783223D01*
X75127000Y-54783223D01*
X75127000Y-53992255D01*
X88171861Y-53992255D01*
X89000000Y-54820395D01*
X89828139Y-53992255D01*
X89754005Y-53746136D01*
X89216777Y-53553035D01*
X88646546Y-53580222D01*
X88245995Y-53746136D01*
X88171861Y-53992255D01*
X75127000Y-53992255D01*
X75127000Y-50710000D01*
X95625000Y-50710000D01*
X95625000Y-51240000D01*
X95625000Y-51240000D01*
G37*
X95625000Y-51240000D02*
X94000000Y-51240000D01*
X93709161Y-51297852D01*
X93462599Y-51462599D01*
X93297852Y-51709161D01*
X93240000Y-52000000D01*
X93297852Y-52290839D01*
X93462599Y-52537401D01*
X93709161Y-52702148D01*
X94000000Y-52760000D01*
X95625000Y-52760000D01*
X95625000Y-53476309D01*
X95634813Y-53500000D01*
X95625000Y-53523691D01*
X95625000Y-56740000D01*
X90447440Y-56740000D01*
X90447440Y-56700000D01*
X90403162Y-56464683D01*
X90264090Y-56248559D01*
X90051890Y-56103569D01*
X89813799Y-56055354D01*
X89828139Y-56007745D01*
X89000000Y-55179605D01*
X88171861Y-56007745D01*
X88186145Y-56055167D01*
X87964683Y-56096838D01*
X87748559Y-56235910D01*
X87603569Y-56448110D01*
X87552560Y-56700000D01*
X87552560Y-58300000D01*
X87596838Y-58535317D01*
X87735910Y-58751441D01*
X87948110Y-58896431D01*
X88200000Y-58947440D01*
X89800000Y-58947440D01*
X90035317Y-58903162D01*
X90251441Y-58764090D01*
X90396431Y-58551890D01*
X90447440Y-58300000D01*
X90447440Y-58260000D01*
X95812099Y-58260000D01*
X95683569Y-58448110D01*
X95632560Y-58700000D01*
X95632560Y-60472638D01*
X95452599Y-60652599D01*
X95287852Y-60899161D01*
X95278011Y-60948632D01*
X95154683Y-60971838D01*
X94938559Y-61110910D01*
X94793569Y-61323110D01*
X94742560Y-61575000D01*
X94742560Y-62325000D01*
X94786838Y-62560317D01*
X94925910Y-62776441D01*
X95138110Y-62921431D01*
X95331060Y-62960504D01*
X95452599Y-63142401D01*
X96377599Y-64067401D01*
X96624161Y-64232148D01*
X96915000Y-64290000D01*
X97573499Y-64290000D01*
X97850000Y-64345000D01*
X104535000Y-64345000D01*
X104825839Y-64287148D01*
X105072401Y-64122401D01*
X105707401Y-63487401D01*
X105872148Y-63240839D01*
X105930000Y-62950000D01*
X105930000Y-62877531D01*
X105960303Y-62865010D01*
X106353629Y-62472370D01*
X106439949Y-62264488D01*
X106524990Y-62470303D01*
X106917630Y-62863629D01*
X107430900Y-63076757D01*
X107986661Y-63077242D01*
X108019055Y-63063857D01*
X108683725Y-63728527D01*
X108615284Y-63893352D01*
X108614716Y-64543795D01*
X108863106Y-65144943D01*
X109322637Y-65605278D01*
X109923352Y-65854716D01*
X110573795Y-65855284D01*
X111174943Y-65606894D01*
X111520199Y-65262241D01*
X111862637Y-65605278D01*
X112463352Y-65854716D01*
X113113795Y-65855284D01*
X113714943Y-65606894D01*
X114175278Y-65147363D01*
X114424716Y-64546648D01*
X114425284Y-63896205D01*
X114176894Y-63295057D01*
X113717363Y-62834722D01*
X113641994Y-62803426D01*
X113785457Y-62660213D01*
X114529392Y-62660213D01*
X114598857Y-62902397D01*
X115122302Y-63089144D01*
X115677368Y-63061362D01*
X116061143Y-62902397D01*
X116130608Y-62660213D01*
X115330000Y-61859605D01*
X114529392Y-62660213D01*
X113785457Y-62660213D01*
X113973629Y-62472370D01*
X114053395Y-62280273D01*
X114107603Y-62411143D01*
X114349787Y-62480608D01*
X115150395Y-61680000D01*
X115509605Y-61680000D01*
X116310213Y-62480608D01*
X116552397Y-62411143D01*
X116739144Y-61887698D01*
X116734042Y-61785750D01*
X118065000Y-61785750D01*
X118065000Y-62076310D01*
X118161673Y-62309699D01*
X118340302Y-62488327D01*
X118573691Y-62585000D01*
X119014250Y-62585000D01*
X119173000Y-62426250D01*
X119173000Y-61627000D01*
X118223750Y-61627000D01*
X118065000Y-61785750D01*
X116734042Y-61785750D01*
X116711362Y-61332632D01*
X116552397Y-60948857D01*
X116310213Y-60879392D01*
X115509605Y-61680000D01*
X115150395Y-61680000D01*
X114349787Y-60879392D01*
X114107603Y-60948857D01*
X114057491Y-61089318D01*
X113975010Y-60889697D01*
X113785432Y-60699787D01*
X114529392Y-60699787D01*
X115330000Y-61500395D01*
X116130608Y-60699787D01*
X116061143Y-60457603D01*
X115537698Y-60270856D01*
X114982632Y-60298638D01*
X114598857Y-60457603D01*
X114529392Y-60699787D01*
X113785432Y-60699787D01*
X113582370Y-60496371D01*
X113069100Y-60283243D01*
X112513339Y-60282758D01*
X111999697Y-60494990D01*
X111606371Y-60887630D01*
X111520051Y-61095512D01*
X111435010Y-60889697D01*
X111042370Y-60496371D01*
X110529100Y-60283243D01*
X109973339Y-60282758D01*
X109459697Y-60494990D01*
X109066371Y-60887630D01*
X108980051Y-61095512D01*
X108895010Y-60889697D01*
X108502370Y-60496371D01*
X107989100Y-60283243D01*
X107641862Y-60282940D01*
X107664802Y-60260000D01*
X118144895Y-60260000D01*
X118235910Y-60401441D01*
X118375750Y-60496990D01*
X118340302Y-60511673D01*
X118161673Y-60690301D01*
X118065000Y-60923690D01*
X118065000Y-61214250D01*
X118223750Y-61373000D01*
X119173000Y-61373000D01*
X119173000Y-61353000D01*
X119427000Y-61353000D01*
X119427000Y-61373000D01*
X119447000Y-61373000D01*
X119447000Y-61627000D01*
X119427000Y-61627000D01*
X119427000Y-62426250D01*
X119585750Y-62585000D01*
X120026309Y-62585000D01*
X120259698Y-62488327D01*
X120400936Y-62347090D01*
X120435910Y-62401441D01*
X120648110Y-62546431D01*
X120900000Y-62597440D01*
X122100000Y-62597440D01*
X122335317Y-62553162D01*
X122551441Y-62414090D01*
X122696431Y-62201890D01*
X122747440Y-61950000D01*
X122747440Y-61050000D01*
X122703162Y-60814683D01*
X122564090Y-60598559D01*
X122418917Y-60499367D01*
X122551441Y-60414090D01*
X122696431Y-60201890D01*
X122747440Y-59950000D01*
X122747440Y-59050000D01*
X122703162Y-58814683D01*
X122564090Y-58598559D01*
X122351890Y-58453569D01*
X122100000Y-58402560D01*
X120900000Y-58402560D01*
X120664683Y-58446838D01*
X120448559Y-58585910D01*
X120400866Y-58655711D01*
X120364090Y-58598559D01*
X120151890Y-58453569D01*
X119900000Y-58402560D01*
X118700000Y-58402560D01*
X118464683Y-58446838D01*
X118248559Y-58585910D01*
X118143274Y-58740000D01*
X107350000Y-58740000D01*
X107059161Y-58797852D01*
X106812599Y-58962599D01*
X105479381Y-60295817D01*
X105449100Y-60283243D01*
X104893339Y-60282758D01*
X104379697Y-60494990D01*
X103986371Y-60887630D01*
X103773243Y-61400900D01*
X103772758Y-61956661D01*
X103984990Y-62470303D01*
X104279685Y-62765513D01*
X104220198Y-62825000D01*
X102695635Y-62825000D01*
X102751441Y-62789090D01*
X102896431Y-62576890D01*
X102947440Y-62325000D01*
X102947440Y-61575000D01*
X102903162Y-61339683D01*
X102764090Y-61123559D01*
X102656987Y-61050379D01*
X102687440Y-60900000D01*
X102687440Y-58700000D01*
X102643162Y-58464683D01*
X102504090Y-58248559D01*
X102291890Y-58103569D01*
X102075758Y-58059801D01*
X101977401Y-57912599D01*
X101399802Y-57335000D01*
X102186310Y-57335000D01*
X102419699Y-57238327D01*
X102598327Y-57059698D01*
X102695000Y-56826309D01*
X102695000Y-53523691D01*
X102685187Y-53500000D01*
X102695000Y-53476309D01*
X102695000Y-52500213D01*
X104369392Y-52500213D01*
X104438857Y-52742397D01*
X104962302Y-52929144D01*
X105517368Y-52901362D01*
X105901143Y-52742397D01*
X105970608Y-52500213D01*
X114529392Y-52500213D01*
X114598857Y-52742397D01*
X115122302Y-52929144D01*
X115677368Y-52901362D01*
X116061143Y-52742397D01*
X116130608Y-52500213D01*
X115330000Y-51699605D01*
X114529392Y-52500213D01*
X105970608Y-52500213D01*
X105170000Y-51699605D01*
X104369392Y-52500213D01*
X102695000Y-52500213D01*
X102695000Y-50710000D01*
X104180392Y-50710000D01*
X104189785Y-50719393D01*
X103947603Y-50788857D01*
X103760856Y-51312302D01*
X103788638Y-51867368D01*
X103947603Y-52251143D01*
X104189787Y-52320608D01*
X104990395Y-51520000D01*
X104976253Y-51505858D01*
X105155858Y-51326253D01*
X105170000Y-51340395D01*
X105184143Y-51326253D01*
X105363748Y-51505858D01*
X105349605Y-51520000D01*
X106150213Y-52320608D01*
X106392397Y-52251143D01*
X106579144Y-51727698D01*
X106551362Y-51172632D01*
X106392397Y-50788857D01*
X106150215Y-50719393D01*
X106159608Y-50710000D01*
X114340392Y-50710000D01*
X114349785Y-50719393D01*
X114107603Y-50788857D01*
X113920856Y-51312302D01*
X113948638Y-51867368D01*
X114107603Y-52251143D01*
X114349787Y-52320608D01*
X115150395Y-51520000D01*
X115136253Y-51505858D01*
X115315858Y-51326253D01*
X115330000Y-51340395D01*
X115344143Y-51326253D01*
X115523748Y-51505858D01*
X115509605Y-51520000D01*
X116310213Y-52320608D01*
X116552397Y-52251143D01*
X116739144Y-51727698D01*
X116711362Y-51172632D01*
X116552397Y-50788857D01*
X116310215Y-50719393D01*
X116319608Y-50710000D01*
X125873000Y-50710000D01*
X125873000Y-87554748D01*
X125836205Y-87554716D01*
X125235057Y-87803106D01*
X125165041Y-87873000D01*
X124615522Y-87873000D01*
X124547363Y-87804722D01*
X123946648Y-87555284D01*
X123296205Y-87554716D01*
X122695057Y-87803106D01*
X122625041Y-87873000D01*
X122075522Y-87873000D01*
X122007363Y-87804722D01*
X121406648Y-87555284D01*
X120756205Y-87554716D01*
X120155057Y-87803106D01*
X120085041Y-87873000D01*
X119965459Y-87873000D01*
X120064943Y-87831894D01*
X120525278Y-87372363D01*
X120774716Y-86771648D01*
X120775284Y-86121205D01*
X120526894Y-85520057D01*
X120067363Y-85059722D01*
X119466648Y-84810284D01*
X118816205Y-84809716D01*
X118215057Y-85058106D01*
X117869801Y-85402759D01*
X117527363Y-85059722D01*
X116926648Y-84810284D01*
X116276205Y-84809716D01*
X115675057Y-85058106D01*
X115329801Y-85402759D01*
X114987363Y-85059722D01*
X114820000Y-84990227D01*
X114820000Y-84030000D01*
X116600000Y-84030000D01*
X116890839Y-83972148D01*
X117137401Y-83807401D01*
X117317912Y-83626890D01*
X121508524Y-83626890D01*
X121678355Y-84036924D01*
X122068642Y-84465183D01*
X122593108Y-84711486D01*
X122823000Y-84590819D01*
X122823000Y-83397000D01*
X123077000Y-83397000D01*
X123077000Y-84590819D01*
X123306892Y-84711486D01*
X123831358Y-84465183D01*
X124221645Y-84036924D01*
X124391476Y-83626890D01*
X124270155Y-83397000D01*
X123077000Y-83397000D01*
X122823000Y-83397000D01*
X121629845Y-83397000D01*
X121508524Y-83626890D01*
X117317912Y-83626890D01*
X117560619Y-83384183D01*
X117590900Y-83396757D01*
X118146661Y-83397242D01*
X118660303Y-83185010D01*
X119053629Y-82792370D01*
X119266757Y-82279100D01*
X119267242Y-81723339D01*
X119170829Y-81490000D01*
X121677046Y-81490000D01*
X121870853Y-81780054D01*
X122211553Y-82007702D01*
X122068642Y-82074817D01*
X121678355Y-82503076D01*
X121508524Y-82913110D01*
X121629845Y-83143000D01*
X122823000Y-83143000D01*
X122823000Y-83123000D01*
X123077000Y-83123000D01*
X123077000Y-83143000D01*
X124270155Y-83143000D01*
X124391476Y-82913110D01*
X124221645Y-82503076D01*
X123831358Y-82074817D01*
X123688447Y-82007702D01*
X124029147Y-81780054D01*
X124351054Y-81298285D01*
X124464093Y-80730000D01*
X124351054Y-80161715D01*
X124029147Y-79679946D01*
X123987548Y-79652150D01*
X124035317Y-79643162D01*
X124251441Y-79504090D01*
X124396431Y-79291890D01*
X124447440Y-79040000D01*
X124447440Y-77340000D01*
X124403162Y-77104683D01*
X124264090Y-76888559D01*
X124051890Y-76743569D01*
X123800000Y-76692560D01*
X122100000Y-76692560D01*
X121864683Y-76736838D01*
X121648559Y-76875910D01*
X121503569Y-77088110D01*
X121452560Y-77340000D01*
X121452560Y-77430000D01*
X121000000Y-77430000D01*
X120709161Y-77487852D01*
X120462599Y-77652599D01*
X119375198Y-78740000D01*
X109820000Y-78740000D01*
X109529160Y-78797852D01*
X109282599Y-78962599D01*
X109252224Y-78992974D01*
X109216250Y-78957000D01*
X107867000Y-78957000D01*
X107867000Y-78977000D01*
X107613000Y-78977000D01*
X107613000Y-78957000D01*
X106263750Y-78957000D01*
X106105000Y-79115750D01*
X106105000Y-79406310D01*
X106176755Y-79579541D01*
X106143569Y-79628110D01*
X106092560Y-79880000D01*
X106092560Y-80780000D01*
X106136838Y-81015317D01*
X106177481Y-81078478D01*
X106143569Y-81128110D01*
X106092560Y-81380000D01*
X106092560Y-82280000D01*
X106136838Y-82515317D01*
X106177481Y-82578478D01*
X106143569Y-82628110D01*
X106092560Y-82880000D01*
X106092560Y-83780000D01*
X106136838Y-84015317D01*
X106275910Y-84231441D01*
X106488110Y-84376431D01*
X106740000Y-84427440D01*
X106747758Y-84427440D01*
X106537599Y-84637599D01*
X106422416Y-84809983D01*
X106116205Y-84809716D01*
X105515057Y-85058106D01*
X105054722Y-85517637D01*
X104805284Y-86118352D01*
X104804716Y-86768795D01*
X105053106Y-87369943D01*
X105318928Y-87636230D01*
X104915057Y-87803106D01*
X104845041Y-87873000D01*
X104295522Y-87873000D01*
X104227363Y-87804722D01*
X103626648Y-87555284D01*
X102976205Y-87554716D01*
X102375057Y-87803106D01*
X102305041Y-87873000D01*
X102213470Y-87873000D01*
X102234264Y-87864387D01*
X102332927Y-87597532D01*
X101360000Y-86624605D01*
X100425442Y-87559163D01*
X99835057Y-87803106D01*
X99765041Y-87873000D01*
X99215522Y-87873000D01*
X99147363Y-87804722D01*
X98546648Y-87555284D01*
X97896205Y-87554716D01*
X97295057Y-87803106D01*
X97225041Y-87873000D01*
X96675522Y-87873000D01*
X96607363Y-87804722D01*
X96600159Y-87801731D01*
X97030278Y-87372363D01*
X97279716Y-86771648D01*
X97280232Y-86180461D01*
X99714092Y-86180461D01*
X99738144Y-86830460D01*
X99940613Y-87319264D01*
X100207468Y-87417927D01*
X101180395Y-86445000D01*
X101539605Y-86445000D01*
X102512532Y-87417927D01*
X102779387Y-87319264D01*
X103005908Y-86709539D01*
X102981856Y-86059540D01*
X102779387Y-85570736D01*
X102512532Y-85472073D01*
X101539605Y-86445000D01*
X101180395Y-86445000D01*
X100207468Y-85472073D01*
X99940613Y-85570736D01*
X99714092Y-86180461D01*
X97280232Y-86180461D01*
X97280284Y-86121205D01*
X97031894Y-85520057D01*
X96804703Y-85292468D01*
X100387073Y-85292468D01*
X101360000Y-86265395D01*
X102332927Y-85292468D01*
X102234264Y-85025613D01*
X101624539Y-84799092D01*
X100974540Y-84823144D01*
X100485736Y-85025613D01*
X100387073Y-85292468D01*
X96804703Y-85292468D01*
X96572363Y-85059722D01*
X95971648Y-84810284D01*
X95321205Y-84809716D01*
X94720057Y-85058106D01*
X94259722Y-85517637D01*
X94010284Y-86118352D01*
X94009716Y-86768795D01*
X94258106Y-87369943D01*
X94717637Y-87830278D01*
X94724841Y-87833269D01*
X94685041Y-87873000D01*
X94135522Y-87873000D01*
X94067363Y-87804722D01*
X93466648Y-87555284D01*
X92816205Y-87554716D01*
X92215057Y-87803106D01*
X92145041Y-87873000D01*
X91595522Y-87873000D01*
X91527363Y-87804722D01*
X91071701Y-87615515D01*
X91315278Y-87372363D01*
X91564716Y-86771648D01*
X91565284Y-86121205D01*
X91316894Y-85520057D01*
X90857363Y-85059722D01*
X90256648Y-84810284D01*
X89606205Y-84809716D01*
X89005057Y-85058106D01*
X88659801Y-85402759D01*
X88317363Y-85059722D01*
X87716648Y-84810284D01*
X87066205Y-84809716D01*
X86465057Y-85058106D01*
X86119801Y-85402759D01*
X85777363Y-85059722D01*
X85203407Y-84821395D01*
X86409052Y-83615750D01*
X88185000Y-83615750D01*
X88185000Y-83906310D01*
X88281673Y-84139699D01*
X88460302Y-84318327D01*
X88693691Y-84415000D01*
X89534250Y-84415000D01*
X89693000Y-84256250D01*
X89693000Y-83457000D01*
X89947000Y-83457000D01*
X89947000Y-84256250D01*
X90105750Y-84415000D01*
X90946309Y-84415000D01*
X91179698Y-84318327D01*
X91358327Y-84139699D01*
X91455000Y-83906310D01*
X91455000Y-83615750D01*
X91296250Y-83457000D01*
X89947000Y-83457000D01*
X89693000Y-83457000D01*
X88343750Y-83457000D01*
X88185000Y-83615750D01*
X86409052Y-83615750D01*
X86927362Y-83097440D01*
X87700000Y-83097440D01*
X87935317Y-83053162D01*
X88151441Y-82914090D01*
X88185000Y-82864975D01*
X88185000Y-83044250D01*
X88343750Y-83203000D01*
X89693000Y-83203000D01*
X89693000Y-83183000D01*
X89947000Y-83183000D01*
X89947000Y-83203000D01*
X91296250Y-83203000D01*
X91455000Y-83044250D01*
X91455000Y-82753690D01*
X91383245Y-82580459D01*
X91416431Y-82531890D01*
X91467440Y-82280000D01*
X91467440Y-81380000D01*
X91423162Y-81144683D01*
X91382519Y-81081522D01*
X91416431Y-81031890D01*
X91467440Y-80780000D01*
X91467440Y-79880000D01*
X91423162Y-79644683D01*
X91382519Y-79581522D01*
X91416431Y-79531890D01*
X91467440Y-79280000D01*
X91467440Y-78380000D01*
X91423162Y-78144683D01*
X91382519Y-78081522D01*
X91416431Y-78031890D01*
X91467440Y-77780000D01*
X91467440Y-76880000D01*
X91423162Y-76644683D01*
X91382519Y-76581522D01*
X91416431Y-76531890D01*
X91467440Y-76280000D01*
X91467440Y-75835167D01*
X103599838Y-75835167D01*
X103741883Y-76178943D01*
X104004673Y-76442192D01*
X104348201Y-76584838D01*
X104720167Y-76585162D01*
X105063943Y-76443117D01*
X105097118Y-76410000D01*
X106016353Y-76410000D01*
X106131498Y-76486938D01*
X106136838Y-76515317D01*
X106177481Y-76578478D01*
X106143569Y-76628110D01*
X106092560Y-76880000D01*
X106092560Y-77780000D01*
X106136838Y-78015317D01*
X106177538Y-78078567D01*
X106105000Y-78253690D01*
X106105000Y-78544250D01*
X106263750Y-78703000D01*
X107613000Y-78703000D01*
X107613000Y-78683000D01*
X107867000Y-78683000D01*
X107867000Y-78703000D01*
X109216250Y-78703000D01*
X109375000Y-78544250D01*
X109375000Y-78260000D01*
X109937537Y-78260000D01*
X109969673Y-78292192D01*
X110313201Y-78434838D01*
X110685167Y-78435162D01*
X111028943Y-78293117D01*
X111292192Y-78030327D01*
X111434838Y-77686799D01*
X111435162Y-77314833D01*
X111293117Y-76971057D01*
X111134971Y-76812635D01*
X111185317Y-76803162D01*
X111401441Y-76664090D01*
X111546431Y-76451890D01*
X111597440Y-76200000D01*
X111597440Y-75152031D01*
X111604990Y-75170303D01*
X111997630Y-75563629D01*
X112510900Y-75776757D01*
X113066661Y-75777242D01*
X113580303Y-75565010D01*
X113973629Y-75172370D01*
X114186757Y-74659100D01*
X114187242Y-74103339D01*
X113975010Y-73589697D01*
X113582370Y-73196371D01*
X113374488Y-73110051D01*
X113580303Y-73025010D01*
X113973629Y-72632370D01*
X114186757Y-72119100D01*
X114187242Y-71563339D01*
X113975010Y-71049697D01*
X113582370Y-70656371D01*
X113069100Y-70443243D01*
X112513339Y-70442758D01*
X111999697Y-70654990D01*
X111606371Y-71047630D01*
X111393243Y-71560900D01*
X111392758Y-72116661D01*
X111604990Y-72630303D01*
X111997630Y-73023629D01*
X112205512Y-73109949D01*
X111999697Y-73194990D01*
X111606371Y-73587630D01*
X111597440Y-73609138D01*
X111597440Y-72800000D01*
X111553162Y-72564683D01*
X111414090Y-72348559D01*
X111201890Y-72203569D01*
X111159231Y-72194930D01*
X111131967Y-72154126D01*
X111184838Y-72026799D01*
X111185162Y-71654833D01*
X111043117Y-71311057D01*
X110780327Y-71047808D01*
X110715270Y-71020794D01*
X110822148Y-70860839D01*
X110880000Y-70570000D01*
X110880000Y-69764802D01*
X111517362Y-69127440D01*
X112290000Y-69127440D01*
X112525317Y-69083162D01*
X112741441Y-68944090D01*
X112789134Y-68874289D01*
X112825910Y-68931441D01*
X113038110Y-69076431D01*
X113290000Y-69127440D01*
X114490000Y-69127440D01*
X114725317Y-69083162D01*
X114941441Y-68944090D01*
X115046726Y-68790000D01*
X119312560Y-68790000D01*
X119312560Y-68800000D01*
X119356838Y-69035317D01*
X119495910Y-69251441D01*
X119564006Y-69297969D01*
X119421673Y-69440302D01*
X119325000Y-69673691D01*
X119325000Y-70114250D01*
X119483750Y-70273000D01*
X120283000Y-70273000D01*
X120283000Y-70253000D01*
X120537000Y-70253000D01*
X120537000Y-70273000D01*
X120557000Y-70273000D01*
X120557000Y-70527000D01*
X120537000Y-70527000D01*
X120537000Y-71476250D01*
X120567630Y-71506880D01*
X120567630Y-71685198D01*
X118859242Y-73393586D01*
X118662370Y-73196371D01*
X118454488Y-73110051D01*
X118660303Y-73025010D01*
X119053629Y-72632370D01*
X119266757Y-72119100D01*
X119267242Y-71563339D01*
X119055010Y-71049697D01*
X118691698Y-70685750D01*
X119325000Y-70685750D01*
X119325000Y-71126309D01*
X119421673Y-71359698D01*
X119600301Y-71538327D01*
X119833690Y-71635000D01*
X120124250Y-71635000D01*
X120283000Y-71476250D01*
X120283000Y-70527000D01*
X119483750Y-70527000D01*
X119325000Y-70685750D01*
X118691698Y-70685750D01*
X118662370Y-70656371D01*
X118149100Y-70443243D01*
X117593339Y-70442758D01*
X117079697Y-70654990D01*
X116686371Y-71047630D01*
X116473243Y-71560900D01*
X116472758Y-72116661D01*
X116684990Y-72630303D01*
X117077630Y-73023629D01*
X117285512Y-73109949D01*
X117079697Y-73194990D01*
X116686371Y-73587630D01*
X116473243Y-74100900D01*
X116472758Y-74656661D01*
X116684990Y-75170303D01*
X117077630Y-75563629D01*
X117590900Y-75776757D01*
X118146661Y-75777242D01*
X118660303Y-75565010D01*
X119053629Y-75172370D01*
X119077824Y-75114103D01*
X119238469Y-75082148D01*
X119485031Y-74917401D01*
X121865031Y-72537401D01*
X122029778Y-72290840D01*
X122087630Y-72000000D01*
X122087630Y-71821796D01*
X122153583Y-71882240D01*
X122585260Y-72061036D01*
X122823000Y-71940378D01*
X122823000Y-70697000D01*
X123077000Y-70697000D01*
X123077000Y-71940378D01*
X123314740Y-72061036D01*
X123746417Y-71882240D01*
X124187966Y-71477576D01*
X124441046Y-70934742D01*
X124320997Y-70697000D01*
X123077000Y-70697000D01*
X122823000Y-70697000D01*
X122803000Y-70697000D01*
X122803000Y-70443000D01*
X122823000Y-70443000D01*
X122823000Y-70423000D01*
X123077000Y-70423000D01*
X123077000Y-70443000D01*
X124320997Y-70443000D01*
X124441046Y-70205258D01*
X124187966Y-69662424D01*
X123797418Y-69304501D01*
X124035409Y-69145481D01*
X124368155Y-68647491D01*
X124485000Y-68060072D01*
X124485000Y-67999928D01*
X124368155Y-67412509D01*
X124087163Y-66991974D01*
X124301441Y-66854090D01*
X124446431Y-66641890D01*
X124497440Y-66390000D01*
X124497440Y-64590000D01*
X124453162Y-64354683D01*
X124314090Y-64138559D01*
X124101890Y-63993569D01*
X123850000Y-63942560D01*
X122050000Y-63942560D01*
X121814683Y-63986838D01*
X121598559Y-64125910D01*
X121453569Y-64338110D01*
X121402560Y-64590000D01*
X121402560Y-64859080D01*
X121262599Y-64952599D01*
X119872599Y-66342599D01*
X119707852Y-66589161D01*
X119650000Y-66880000D01*
X119650000Y-67044895D01*
X119508559Y-67135910D01*
X119416939Y-67270000D01*
X115045105Y-67270000D01*
X114954090Y-67128559D01*
X114741890Y-66983569D01*
X114490000Y-66932560D01*
X113290000Y-66932560D01*
X113054683Y-66976838D01*
X112838559Y-67115910D01*
X112790866Y-67185711D01*
X112754090Y-67128559D01*
X112541890Y-66983569D01*
X112290000Y-66932560D01*
X111090000Y-66932560D01*
X110854683Y-66976838D01*
X110638559Y-67115910D01*
X110493569Y-67328110D01*
X110442560Y-67580000D01*
X110442560Y-68052638D01*
X109642872Y-68852326D01*
X109582599Y-68892599D01*
X109417852Y-69139161D01*
X109360000Y-69430000D01*
X109360000Y-70255198D01*
X109186612Y-70428586D01*
X109099698Y-70341673D01*
X108866309Y-70245000D01*
X108025750Y-70245000D01*
X107867000Y-70403750D01*
X107867000Y-71203000D01*
X107887000Y-71203000D01*
X107887000Y-71457000D01*
X107867000Y-71457000D01*
X107867000Y-71477000D01*
X107613000Y-71477000D01*
X107613000Y-71457000D01*
X106263750Y-71457000D01*
X106105000Y-71615750D01*
X106105000Y-71906310D01*
X106176755Y-72079541D01*
X106143569Y-72128110D01*
X106092560Y-72380000D01*
X106092560Y-73280000D01*
X106136838Y-73515317D01*
X106177481Y-73578478D01*
X106143569Y-73628110D01*
X106092560Y-73880000D01*
X106092560Y-74780000D01*
X106113258Y-74890000D01*
X105097463Y-74890000D01*
X105065327Y-74857808D01*
X104721799Y-74715162D01*
X104349833Y-74714838D01*
X104006057Y-74856883D01*
X103742808Y-75119673D01*
X103600162Y-75463201D01*
X103599838Y-75835167D01*
X91467440Y-75835167D01*
X91467440Y-75380000D01*
X91423162Y-75144683D01*
X91382519Y-75081522D01*
X91416431Y-75031890D01*
X91467440Y-74780000D01*
X91467440Y-73880000D01*
X91423162Y-73644683D01*
X91382519Y-73581522D01*
X91416431Y-73531890D01*
X91467440Y-73280000D01*
X91467440Y-72380000D01*
X91423162Y-72144683D01*
X91382519Y-72081522D01*
X91416431Y-72031890D01*
X91467440Y-71780000D01*
X91467440Y-70880000D01*
X91443674Y-70753690D01*
X106105000Y-70753690D01*
X106105000Y-71044250D01*
X106263750Y-71203000D01*
X107613000Y-71203000D01*
X107613000Y-70403750D01*
X107454250Y-70245000D01*
X106613691Y-70245000D01*
X106380302Y-70341673D01*
X106201673Y-70520301D01*
X106105000Y-70753690D01*
X91443674Y-70753690D01*
X91423162Y-70644683D01*
X91284090Y-70428559D01*
X91071890Y-70283569D01*
X90820000Y-70232560D01*
X88820000Y-70232560D01*
X88584683Y-70276838D01*
X88368559Y-70415910D01*
X88263274Y-70570000D01*
X85870000Y-70570000D01*
X85579161Y-70627852D01*
X85332599Y-70792599D01*
X84362599Y-71762599D01*
X84264634Y-71909215D01*
X84064683Y-71946838D01*
X83848559Y-72085910D01*
X83782984Y-72181883D01*
X83766799Y-72175162D01*
X83394833Y-72174838D01*
X83070000Y-72309056D01*
X83070000Y-67957531D01*
X83100303Y-67945010D01*
X83493629Y-67552370D01*
X83507070Y-67520000D01*
X86827537Y-67520000D01*
X86859673Y-67552192D01*
X87203201Y-67694838D01*
X87575167Y-67695162D01*
X87918943Y-67553117D01*
X88182192Y-67290327D01*
X88324838Y-66946799D01*
X88325162Y-66574833D01*
X88183117Y-66231057D01*
X87920327Y-65967808D01*
X87576799Y-65825162D01*
X87204833Y-65824838D01*
X86861057Y-65966883D01*
X86827882Y-66000000D01*
X83507531Y-66000000D01*
X83495010Y-65969697D01*
X83102370Y-65576371D01*
X82589100Y-65363243D01*
X82033339Y-65362758D01*
X81519697Y-65574990D01*
X81126371Y-65967630D01*
X80913243Y-66480900D01*
X80912758Y-67036661D01*
X81124990Y-67550303D01*
X81517630Y-67943629D01*
X81550000Y-67957070D01*
X81550000Y-73182469D01*
X81519697Y-73194990D01*
X81126371Y-73587630D01*
X80913243Y-74100900D01*
X80912758Y-74656661D01*
X81124990Y-75170303D01*
X81517630Y-75563629D01*
X82030900Y-75776757D01*
X82586661Y-75777242D01*
X83100303Y-75565010D01*
X83493629Y-75172370D01*
X83706757Y-74659100D01*
X83707242Y-74103339D01*
X83683174Y-74045091D01*
X83765167Y-74045162D01*
X83940328Y-73972787D01*
X83992020Y-74008107D01*
X83915162Y-74193201D01*
X83914838Y-74565167D01*
X84056883Y-74908943D01*
X84319673Y-75172192D01*
X84663201Y-75314838D01*
X85035167Y-75315162D01*
X85290430Y-75209690D01*
X85185162Y-75463201D01*
X85184838Y-75835167D01*
X85326883Y-76178943D01*
X85589673Y-76442192D01*
X85933201Y-76584838D01*
X86305167Y-76585162D01*
X86648943Y-76443117D01*
X86682118Y-76410000D01*
X88197021Y-76410000D01*
X88216838Y-76515317D01*
X88257481Y-76578478D01*
X88223569Y-76628110D01*
X88189773Y-76795000D01*
X87952463Y-76795000D01*
X87920327Y-76762808D01*
X87576799Y-76620162D01*
X87204833Y-76619838D01*
X86861057Y-76761883D01*
X86597808Y-77024673D01*
X86455162Y-77368201D01*
X86454838Y-77740167D01*
X86521937Y-77902560D01*
X86500000Y-77902560D01*
X86264683Y-77946838D01*
X86048559Y-78085910D01*
X86002031Y-78154006D01*
X85859698Y-78011673D01*
X85626309Y-77915000D01*
X85185750Y-77915000D01*
X85027000Y-78073750D01*
X85027000Y-78873000D01*
X85047000Y-78873000D01*
X85047000Y-79127000D01*
X85027000Y-79127000D01*
X85027000Y-79147000D01*
X84773000Y-79147000D01*
X84773000Y-79127000D01*
X83823750Y-79127000D01*
X83783608Y-79167142D01*
X83766799Y-79160162D01*
X83394833Y-79159838D01*
X83260071Y-79215520D01*
X83493629Y-78982370D01*
X83665000Y-78569662D01*
X83665000Y-78714250D01*
X83823750Y-78873000D01*
X84773000Y-78873000D01*
X84773000Y-78073750D01*
X84614250Y-77915000D01*
X84173691Y-77915000D01*
X83940302Y-78011673D01*
X83761673Y-78190301D01*
X83706885Y-78322571D01*
X83707242Y-77913339D01*
X83495010Y-77399697D01*
X83102370Y-77006371D01*
X82589100Y-76793243D01*
X82033339Y-76792758D01*
X81519697Y-77004990D01*
X81126371Y-77397630D01*
X80913243Y-77910900D01*
X80912758Y-78466661D01*
X81124990Y-78980303D01*
X81517630Y-79373629D01*
X81550000Y-79387070D01*
X81550000Y-84612469D01*
X81519697Y-84624990D01*
X81126371Y-85017630D01*
X80913243Y-85530900D01*
X80912758Y-86086661D01*
X81124990Y-86600303D01*
X81517630Y-86993629D01*
X82030900Y-87206757D01*
X82586661Y-87207242D01*
X83100303Y-86995010D01*
X83247480Y-86848090D01*
X83463106Y-87369943D01*
X83889878Y-87797462D01*
X83306648Y-87555284D01*
X82656205Y-87554716D01*
X82055057Y-87803106D01*
X81985041Y-87873000D01*
X81435522Y-87873000D01*
X81367363Y-87804722D01*
X80766648Y-87555284D01*
X80116205Y-87554716D01*
X79515057Y-87803106D01*
X79445041Y-87873000D01*
X78895522Y-87873000D01*
X78827363Y-87804722D01*
X78226648Y-87555284D01*
X77576205Y-87554716D01*
X76975057Y-87803106D01*
X76905041Y-87873000D01*
X76355522Y-87873000D01*
X76287363Y-87804722D01*
X75686648Y-87555284D01*
X75127000Y-87554795D01*
X75127000Y-86790213D01*
X76429392Y-86790213D01*
X76498857Y-87032397D01*
X77022302Y-87219144D01*
X77577368Y-87191362D01*
X77961143Y-87032397D01*
X78030608Y-86790213D01*
X77230000Y-85989605D01*
X76429392Y-86790213D01*
X75127000Y-86790213D01*
X75127000Y-85602302D01*
X75820856Y-85602302D01*
X75848638Y-86157368D01*
X76007603Y-86541143D01*
X76249787Y-86610608D01*
X77050395Y-85810000D01*
X77409605Y-85810000D01*
X78210213Y-86610608D01*
X78452397Y-86541143D01*
X78639144Y-86017698D01*
X78611362Y-85462632D01*
X78452397Y-85078857D01*
X78210213Y-85009392D01*
X77409605Y-85810000D01*
X77050395Y-85810000D01*
X76249787Y-85009392D01*
X76007603Y-85078857D01*
X75820856Y-85602302D01*
X75127000Y-85602302D01*
X75127000Y-84829787D01*
X76429392Y-84829787D01*
X77230000Y-85630395D01*
X78030608Y-84829787D01*
X77961143Y-84587603D01*
X77437698Y-84400856D01*
X76882632Y-84428638D01*
X76498857Y-84587603D01*
X76429392Y-84829787D01*
X75127000Y-84829787D01*
X75127000Y-79170213D01*
X76429392Y-79170213D01*
X76498857Y-79412397D01*
X77022302Y-79599144D01*
X77577368Y-79571362D01*
X77961143Y-79412397D01*
X78030608Y-79170213D01*
X77230000Y-78369605D01*
X76429392Y-79170213D01*
X75127000Y-79170213D01*
X75127000Y-77982302D01*
X75820856Y-77982302D01*
X75848638Y-78537368D01*
X76007603Y-78921143D01*
X76249787Y-78990608D01*
X77050395Y-78190000D01*
X77409605Y-78190000D01*
X78210213Y-78990608D01*
X78452397Y-78921143D01*
X78639144Y-78397698D01*
X78611362Y-77842632D01*
X78452397Y-77458857D01*
X78210213Y-77389392D01*
X77409605Y-78190000D01*
X77050395Y-78190000D01*
X76249787Y-77389392D01*
X76007603Y-77458857D01*
X75820856Y-77982302D01*
X75127000Y-77982302D01*
X75127000Y-77209787D01*
X76429392Y-77209787D01*
X77230000Y-78010395D01*
X78030608Y-77209787D01*
X77961143Y-76967603D01*
X77437698Y-76780856D01*
X76882632Y-76808638D01*
X76498857Y-76967603D01*
X76429392Y-77209787D01*
X75127000Y-77209787D01*
X75127000Y-75360213D01*
X76429392Y-75360213D01*
X76498857Y-75602397D01*
X77022302Y-75789144D01*
X77577368Y-75761362D01*
X77961143Y-75602397D01*
X78030608Y-75360213D01*
X77230000Y-74559605D01*
X76429392Y-75360213D01*
X75127000Y-75360213D01*
X75127000Y-74172302D01*
X75820856Y-74172302D01*
X75848638Y-74727368D01*
X76007603Y-75111143D01*
X76249787Y-75180608D01*
X77050395Y-74380000D01*
X77409605Y-74380000D01*
X78210213Y-75180608D01*
X78452397Y-75111143D01*
X78639144Y-74587698D01*
X78611362Y-74032632D01*
X78452397Y-73648857D01*
X78210213Y-73579392D01*
X77409605Y-74380000D01*
X77050395Y-74380000D01*
X76249787Y-73579392D01*
X76007603Y-73648857D01*
X75820856Y-74172302D01*
X75127000Y-74172302D01*
X75127000Y-73399787D01*
X76429392Y-73399787D01*
X77230000Y-74200395D01*
X78030608Y-73399787D01*
X77961143Y-73157603D01*
X77437698Y-72970856D01*
X76882632Y-72998638D01*
X76498857Y-73157603D01*
X76429392Y-73399787D01*
X75127000Y-73399787D01*
X75127000Y-67740213D01*
X76429392Y-67740213D01*
X76498857Y-67982397D01*
X77022302Y-68169144D01*
X77577368Y-68141362D01*
X77961143Y-67982397D01*
X78030608Y-67740213D01*
X77230000Y-66939605D01*
X76429392Y-67740213D01*
X75127000Y-67740213D01*
X75127000Y-66552302D01*
X75820856Y-66552302D01*
X75848638Y-67107368D01*
X76007603Y-67491143D01*
X76249787Y-67560608D01*
X77050395Y-66760000D01*
X77409605Y-66760000D01*
X78210213Y-67560608D01*
X78452397Y-67491143D01*
X78639144Y-66967698D01*
X78611362Y-66412632D01*
X78452397Y-66028857D01*
X78210213Y-65959392D01*
X77409605Y-66760000D01*
X77050395Y-66760000D01*
X76249787Y-65959392D01*
X76007603Y-66028857D01*
X75820856Y-66552302D01*
X75127000Y-66552302D01*
X75127000Y-65779787D01*
X76429392Y-65779787D01*
X77230000Y-66580395D01*
X78030608Y-65779787D01*
X77961143Y-65537603D01*
X77437698Y-65350856D01*
X76882632Y-65378638D01*
X76498857Y-65537603D01*
X76429392Y-65779787D01*
X75127000Y-65779787D01*
X75127000Y-54783223D01*
X87553035Y-54783223D01*
X87580222Y-55353454D01*
X87746136Y-55754005D01*
X87992255Y-55828139D01*
X88820395Y-55000000D01*
X89179605Y-55000000D01*
X90007745Y-55828139D01*
X90253864Y-55754005D01*
X90446965Y-55216777D01*
X90419778Y-54646546D01*
X90253864Y-54245995D01*
X90007745Y-54171861D01*
X89179605Y-55000000D01*
X88820395Y-55000000D01*
X87992255Y-54171861D01*
X87746136Y-54245995D01*
X87553035Y-54783223D01*
X75127000Y-54783223D01*
X75127000Y-53992255D01*
X88171861Y-53992255D01*
X89000000Y-54820395D01*
X89828139Y-53992255D01*
X89754005Y-53746136D01*
X89216777Y-53553035D01*
X88646546Y-53580222D01*
X88245995Y-53746136D01*
X88171861Y-53992255D01*
X75127000Y-53992255D01*
X75127000Y-50710000D01*
X95625000Y-50710000D01*
X95625000Y-51240000D01*
G36*
X98017000Y-61823000D02*
X99673000Y-61823000D01*
X99673000Y-61803000D01*
X99927000Y-61803000D01*
X99927000Y-61823000D01*
X99947000Y-61823000D01*
X99947000Y-62077000D01*
X99927000Y-62077000D01*
X99927000Y-62097000D01*
X99673000Y-62097000D01*
X99673000Y-62077000D01*
X98017000Y-62077000D01*
X98017000Y-62097000D01*
X97763000Y-62097000D01*
X97763000Y-62077000D01*
X97743000Y-62077000D01*
X97743000Y-61823000D01*
X97763000Y-61823000D01*
X97763000Y-61803000D01*
X98017000Y-61803000D01*
X98017000Y-61823000D01*
X98017000Y-61823000D01*
G37*
X98017000Y-61823000D02*
X99673000Y-61823000D01*
X99673000Y-61803000D01*
X99927000Y-61803000D01*
X99927000Y-61823000D01*
X99947000Y-61823000D01*
X99947000Y-62077000D01*
X99927000Y-62077000D01*
X99927000Y-62097000D01*
X99673000Y-62097000D01*
X99673000Y-62077000D01*
X98017000Y-62077000D01*
X98017000Y-62097000D01*
X97763000Y-62097000D01*
X97763000Y-62077000D01*
X97743000Y-62077000D01*
X97743000Y-61823000D01*
X97763000Y-61823000D01*
X97763000Y-61803000D01*
X98017000Y-61803000D01*
X98017000Y-61823000D01*
G36*
X99287000Y-59673000D02*
X99307000Y-59673000D01*
X99307000Y-59927000D01*
X99287000Y-59927000D01*
X99287000Y-59947000D01*
X99033000Y-59947000D01*
X99033000Y-59927000D01*
X99013000Y-59927000D01*
X99013000Y-59673000D01*
X99033000Y-59673000D01*
X99033000Y-59653000D01*
X99287000Y-59653000D01*
X99287000Y-59673000D01*
X99287000Y-59673000D01*
G37*
X99287000Y-59673000D02*
X99307000Y-59673000D01*
X99307000Y-59927000D01*
X99287000Y-59927000D01*
X99287000Y-59947000D01*
X99033000Y-59947000D01*
X99033000Y-59927000D01*
X99013000Y-59927000D01*
X99013000Y-59673000D01*
X99033000Y-59673000D01*
X99033000Y-59653000D01*
X99287000Y-59653000D01*
X99287000Y-59673000D01*
M02*
