G04 #@! TF.FileFunction,Legend,Top*
%FSLAX46Y46*%
G04 Gerber Fmt 4.6, Leading zero omitted, Abs format (unit mm)*
G04 Created by KiCad (PCBNEW 4.0.6) date 07/25/17 01:11:47*
%MOMM*%
%LPD*%
G01*
G04 APERTURE LIST*
%ADD10C,0.100000*%
%ADD11C,0.250000*%
%ADD12C,0.120000*%
%ADD13C,0.150000*%
G04 APERTURE END LIST*
D10*
D11*
X106410000Y-125622857D02*
X105648095Y-125622857D01*
X105171905Y-126051429D02*
X104410000Y-125622857D01*
X105171905Y-125194286D01*
X104410000Y-123297143D02*
X105171905Y-123297143D01*
X105648095Y-122868571D02*
X106410000Y-123297143D01*
X105648095Y-123725714D01*
D12*
X81590000Y-106350000D02*
X82290000Y-106350000D01*
X82290000Y-107550000D02*
X81590000Y-107550000D01*
X86100000Y-107550000D02*
X85400000Y-107550000D01*
X85400000Y-106350000D02*
X86100000Y-106350000D01*
X69950000Y-101250000D02*
X78050000Y-101250000D01*
X69950000Y-101210000D02*
X78050000Y-101210000D01*
X69950000Y-101170000D02*
X78050000Y-101170000D01*
X69951000Y-101130000D02*
X78049000Y-101130000D01*
X69953000Y-101090000D02*
X78047000Y-101090000D01*
X69954000Y-101050000D02*
X78046000Y-101050000D01*
X69957000Y-101010000D02*
X78043000Y-101010000D01*
X69959000Y-100970000D02*
X73020000Y-100970000D01*
X74980000Y-100970000D02*
X78041000Y-100970000D01*
X69962000Y-100930000D02*
X73020000Y-100930000D01*
X74980000Y-100930000D02*
X78038000Y-100930000D01*
X69965000Y-100890000D02*
X73020000Y-100890000D01*
X74980000Y-100890000D02*
X78035000Y-100890000D01*
X69969000Y-100850000D02*
X73020000Y-100850000D01*
X74980000Y-100850000D02*
X78031000Y-100850000D01*
X69973000Y-100810000D02*
X73020000Y-100810000D01*
X74980000Y-100810000D02*
X78027000Y-100810000D01*
X69978000Y-100770000D02*
X73020000Y-100770000D01*
X74980000Y-100770000D02*
X78022000Y-100770000D01*
X69983000Y-100730000D02*
X73020000Y-100730000D01*
X74980000Y-100730000D02*
X78017000Y-100730000D01*
X69988000Y-100690000D02*
X73020000Y-100690000D01*
X74980000Y-100690000D02*
X78012000Y-100690000D01*
X69994000Y-100650000D02*
X73020000Y-100650000D01*
X74980000Y-100650000D02*
X78006000Y-100650000D01*
X70000000Y-100610000D02*
X73020000Y-100610000D01*
X74980000Y-100610000D02*
X78000000Y-100610000D01*
X70006000Y-100570000D02*
X73020000Y-100570000D01*
X74980000Y-100570000D02*
X77994000Y-100570000D01*
X70013000Y-100529000D02*
X73020000Y-100529000D01*
X74980000Y-100529000D02*
X77987000Y-100529000D01*
X70021000Y-100489000D02*
X73020000Y-100489000D01*
X74980000Y-100489000D02*
X77979000Y-100489000D01*
X70029000Y-100449000D02*
X73020000Y-100449000D01*
X74980000Y-100449000D02*
X77971000Y-100449000D01*
X70037000Y-100409000D02*
X73020000Y-100409000D01*
X74980000Y-100409000D02*
X77963000Y-100409000D01*
X70045000Y-100369000D02*
X73020000Y-100369000D01*
X74980000Y-100369000D02*
X77955000Y-100369000D01*
X70054000Y-100329000D02*
X73020000Y-100329000D01*
X74980000Y-100329000D02*
X77946000Y-100329000D01*
X70064000Y-100289000D02*
X73020000Y-100289000D01*
X74980000Y-100289000D02*
X77936000Y-100289000D01*
X70074000Y-100249000D02*
X73020000Y-100249000D01*
X74980000Y-100249000D02*
X77926000Y-100249000D01*
X70084000Y-100209000D02*
X73020000Y-100209000D01*
X74980000Y-100209000D02*
X77916000Y-100209000D01*
X70095000Y-100169000D02*
X73020000Y-100169000D01*
X74980000Y-100169000D02*
X77905000Y-100169000D01*
X70106000Y-100129000D02*
X73020000Y-100129000D01*
X74980000Y-100129000D02*
X77894000Y-100129000D01*
X70117000Y-100089000D02*
X73020000Y-100089000D01*
X74980000Y-100089000D02*
X77883000Y-100089000D01*
X70130000Y-100049000D02*
X73020000Y-100049000D01*
X74980000Y-100049000D02*
X77870000Y-100049000D01*
X70142000Y-100009000D02*
X73020000Y-100009000D01*
X74980000Y-100009000D02*
X77858000Y-100009000D01*
X70155000Y-99969000D02*
X73020000Y-99969000D01*
X74980000Y-99969000D02*
X77845000Y-99969000D01*
X70168000Y-99929000D02*
X73020000Y-99929000D01*
X74980000Y-99929000D02*
X77832000Y-99929000D01*
X70182000Y-99889000D02*
X73020000Y-99889000D01*
X74980000Y-99889000D02*
X77818000Y-99889000D01*
X70197000Y-99849000D02*
X73020000Y-99849000D01*
X74980000Y-99849000D02*
X77803000Y-99849000D01*
X70211000Y-99809000D02*
X73020000Y-99809000D01*
X74980000Y-99809000D02*
X77789000Y-99809000D01*
X70227000Y-99769000D02*
X73020000Y-99769000D01*
X74980000Y-99769000D02*
X77773000Y-99769000D01*
X70242000Y-99729000D02*
X73020000Y-99729000D01*
X74980000Y-99729000D02*
X77758000Y-99729000D01*
X70259000Y-99689000D02*
X73020000Y-99689000D01*
X74980000Y-99689000D02*
X77741000Y-99689000D01*
X70275000Y-99649000D02*
X73020000Y-99649000D01*
X74980000Y-99649000D02*
X77725000Y-99649000D01*
X70293000Y-99609000D02*
X73020000Y-99609000D01*
X74980000Y-99609000D02*
X77707000Y-99609000D01*
X70310000Y-99569000D02*
X73020000Y-99569000D01*
X74980000Y-99569000D02*
X77690000Y-99569000D01*
X70329000Y-99529000D02*
X73020000Y-99529000D01*
X74980000Y-99529000D02*
X77671000Y-99529000D01*
X70348000Y-99489000D02*
X73020000Y-99489000D01*
X74980000Y-99489000D02*
X77652000Y-99489000D01*
X70367000Y-99449000D02*
X73020000Y-99449000D01*
X74980000Y-99449000D02*
X77633000Y-99449000D01*
X70387000Y-99409000D02*
X73020000Y-99409000D01*
X74980000Y-99409000D02*
X77613000Y-99409000D01*
X70407000Y-99369000D02*
X73020000Y-99369000D01*
X74980000Y-99369000D02*
X77593000Y-99369000D01*
X70428000Y-99329000D02*
X73020000Y-99329000D01*
X74980000Y-99329000D02*
X77572000Y-99329000D01*
X70450000Y-99289000D02*
X73020000Y-99289000D01*
X74980000Y-99289000D02*
X77550000Y-99289000D01*
X70472000Y-99249000D02*
X73020000Y-99249000D01*
X74980000Y-99249000D02*
X77528000Y-99249000D01*
X70495000Y-99209000D02*
X73020000Y-99209000D01*
X74980000Y-99209000D02*
X77505000Y-99209000D01*
X70518000Y-99169000D02*
X73020000Y-99169000D01*
X74980000Y-99169000D02*
X77482000Y-99169000D01*
X70542000Y-99129000D02*
X73020000Y-99129000D01*
X74980000Y-99129000D02*
X77458000Y-99129000D01*
X70566000Y-99089000D02*
X73020000Y-99089000D01*
X74980000Y-99089000D02*
X77434000Y-99089000D01*
X70592000Y-99049000D02*
X73020000Y-99049000D01*
X74980000Y-99049000D02*
X77408000Y-99049000D01*
X70617000Y-99009000D02*
X77383000Y-99009000D01*
X70644000Y-98969000D02*
X77356000Y-98969000D01*
X70671000Y-98929000D02*
X77329000Y-98929000D01*
X70699000Y-98889000D02*
X77301000Y-98889000D01*
X70728000Y-98849000D02*
X77272000Y-98849000D01*
X70757000Y-98809000D02*
X77243000Y-98809000D01*
X70787000Y-98769000D02*
X77213000Y-98769000D01*
X70818000Y-98729000D02*
X77182000Y-98729000D01*
X70850000Y-98689000D02*
X77150000Y-98689000D01*
X70882000Y-98649000D02*
X77118000Y-98649000D01*
X70916000Y-98609000D02*
X77084000Y-98609000D01*
X70950000Y-98569000D02*
X77050000Y-98569000D01*
X70985000Y-98529000D02*
X77015000Y-98529000D01*
X71021000Y-98489000D02*
X76979000Y-98489000D01*
X71058000Y-98449000D02*
X76942000Y-98449000D01*
X71096000Y-98409000D02*
X76904000Y-98409000D01*
X71135000Y-98369000D02*
X76865000Y-98369000D01*
X71176000Y-98329000D02*
X76824000Y-98329000D01*
X71217000Y-98289000D02*
X76783000Y-98289000D01*
X71260000Y-98249000D02*
X76740000Y-98249000D01*
X71303000Y-98209000D02*
X76697000Y-98209000D01*
X71348000Y-98169000D02*
X76652000Y-98169000D01*
X71395000Y-98129000D02*
X76605000Y-98129000D01*
X71443000Y-98089000D02*
X76557000Y-98089000D01*
X71492000Y-98049000D02*
X76508000Y-98049000D01*
X71543000Y-98009000D02*
X76457000Y-98009000D01*
X71596000Y-97969000D02*
X76404000Y-97969000D01*
X71651000Y-97929000D02*
X76349000Y-97929000D01*
X71707000Y-97889000D02*
X76293000Y-97889000D01*
X71766000Y-97849000D02*
X76234000Y-97849000D01*
X71827000Y-97809000D02*
X76173000Y-97809000D01*
X71891000Y-97769000D02*
X76109000Y-97769000D01*
X71957000Y-97729000D02*
X76043000Y-97729000D01*
X72026000Y-97689000D02*
X75974000Y-97689000D01*
X72098000Y-97649000D02*
X75902000Y-97649000D01*
X72174000Y-97609000D02*
X75826000Y-97609000D01*
X72255000Y-97569000D02*
X75745000Y-97569000D01*
X72340000Y-97529000D02*
X75660000Y-97529000D01*
X72430000Y-97489000D02*
X75570000Y-97489000D01*
X72527000Y-97449000D02*
X75473000Y-97449000D01*
X72631000Y-97409000D02*
X75369000Y-97409000D01*
X72746000Y-97369000D02*
X75254000Y-97369000D01*
X72873000Y-97329000D02*
X75127000Y-97329000D01*
X73017000Y-97289000D02*
X74983000Y-97289000D01*
X73186000Y-97249000D02*
X74814000Y-97249000D01*
X73402000Y-97209000D02*
X74598000Y-97209000D01*
X73754000Y-97169000D02*
X74246000Y-97169000D01*
X74000000Y-104700000D02*
X74000000Y-103500000D01*
X73350000Y-104100000D02*
X74650000Y-104100000D01*
X78090000Y-101250000D02*
G75*
G03X78090000Y-101250000I-4090000J0D01*
G01*
X103600000Y-105950000D02*
X103600000Y-107050000D01*
X103600000Y-107050000D02*
X106200000Y-107050000D01*
X103600000Y-105950000D02*
X106200000Y-105950000D01*
X106620000Y-124460000D02*
X106620000Y-129600000D01*
X106620000Y-129600000D02*
X109280000Y-129600000D01*
X109280000Y-129600000D02*
X109280000Y-124460000D01*
X109280000Y-124460000D02*
X106620000Y-124460000D01*
X106620000Y-123190000D02*
X106620000Y-121860000D01*
X106620000Y-121860000D02*
X107950000Y-121860000D01*
D13*
X88900000Y-107950000D02*
X101600000Y-107950000D01*
X88900000Y-95250000D02*
X88900000Y-107950000D01*
X101600000Y-95250000D02*
X88900000Y-95250000D01*
X101600000Y-107950000D02*
X101600000Y-95250000D01*
D12*
X110570000Y-107910000D02*
X110570000Y-118150000D01*
X105929000Y-107910000D02*
X105929000Y-118150000D01*
X110570000Y-107910000D02*
X105929000Y-107910000D01*
X110570000Y-118150000D02*
X105929000Y-118150000D01*
X109060000Y-107910000D02*
X109060000Y-118150000D01*
X110570000Y-111180000D02*
X109060000Y-111180000D01*
X110570000Y-114881000D02*
X109060000Y-114881000D01*
X71500000Y-127680000D02*
X70500000Y-127680000D01*
X70500000Y-126320000D02*
X71500000Y-126320000D01*
X71500000Y-126180000D02*
X70500000Y-126180000D01*
X70500000Y-124820000D02*
X71500000Y-124820000D01*
X70500000Y-123320000D02*
X71500000Y-123320000D01*
X71500000Y-124680000D02*
X70500000Y-124680000D01*
X71500000Y-118680000D02*
X70500000Y-118680000D01*
X70500000Y-117320000D02*
X71500000Y-117320000D01*
X94820000Y-120000000D02*
X94820000Y-119000000D01*
X96180000Y-119000000D02*
X96180000Y-120000000D01*
X97290000Y-112350000D02*
X98290000Y-112350000D01*
X98290000Y-113710000D02*
X97290000Y-113710000D01*
X106090000Y-113800000D02*
X106090000Y-114800000D01*
X104730000Y-114800000D02*
X104730000Y-113800000D01*
X105900000Y-105180000D02*
X104900000Y-105180000D01*
X104900000Y-103820000D02*
X105900000Y-103820000D01*
D13*
X96520000Y-128270000D02*
X104140000Y-128270000D01*
X96520000Y-115570000D02*
X96520000Y-128270000D01*
X104140000Y-115570000D02*
X96520000Y-115570000D01*
X104140000Y-128270000D02*
X104140000Y-115570000D01*
X66040000Y-127000000D02*
G75*
G03X66040000Y-127000000I-1270000J0D01*
G01*
X60960000Y-132080000D02*
X68580000Y-132080000D01*
X60960000Y-121920000D02*
X60960000Y-132080000D01*
X68580000Y-121920000D02*
X60960000Y-121920000D01*
X68580000Y-132080000D02*
X68580000Y-121920000D01*
X66040000Y-115570000D02*
G75*
G03X66040000Y-115570000I-1270000J0D01*
G01*
X60960000Y-120650000D02*
X68580000Y-120650000D01*
X60960000Y-110490000D02*
X60960000Y-120650000D01*
X68580000Y-110490000D02*
X60960000Y-110490000D01*
X68580000Y-120650000D02*
X68580000Y-110490000D01*
X88820000Y-114380000D02*
X88820000Y-110380000D01*
X90820000Y-110380000D02*
X90820000Y-114380000D01*
X86820000Y-110380000D02*
X90820000Y-110380000D01*
X86820000Y-113380000D02*
X86820000Y-110380000D01*
X84820000Y-113380000D02*
X86820000Y-113380000D01*
X84820000Y-110380000D02*
X84820000Y-113380000D01*
X82820000Y-110380000D02*
X84820000Y-110380000D01*
X82820000Y-113380000D02*
X82820000Y-110380000D01*
X79820000Y-113380000D02*
X82820000Y-113380000D01*
X79820000Y-110380000D02*
X79820000Y-113380000D01*
X76820000Y-110380000D02*
X79820000Y-110380000D01*
X76820000Y-113280000D02*
X76820000Y-110380000D01*
X92820000Y-115180000D02*
X74820000Y-115180000D01*
X74820000Y-129380000D02*
X92820000Y-129380000D01*
X74820000Y-109380000D02*
X74820000Y-129380000D01*
X92820000Y-109380000D02*
X92820000Y-129380000D01*
X74820000Y-109380000D02*
X92820000Y-109380000D01*
D12*
X80710000Y-101570000D02*
X80710000Y-103070000D01*
X80710000Y-103070000D02*
X80980000Y-103070000D01*
X80980000Y-103070000D02*
X80980000Y-105900000D01*
X87610000Y-101570000D02*
X87610000Y-103070000D01*
X87610000Y-103070000D02*
X87340000Y-103070000D01*
X87340000Y-103070000D02*
X87340000Y-104170000D01*
D13*
X81773334Y-108942143D02*
X81725715Y-108989762D01*
X81582858Y-109037381D01*
X81487620Y-109037381D01*
X81344762Y-108989762D01*
X81249524Y-108894524D01*
X81201905Y-108799286D01*
X81154286Y-108608810D01*
X81154286Y-108465952D01*
X81201905Y-108275476D01*
X81249524Y-108180238D01*
X81344762Y-108085000D01*
X81487620Y-108037381D01*
X81582858Y-108037381D01*
X81725715Y-108085000D01*
X81773334Y-108132619D01*
X82725715Y-109037381D02*
X82154286Y-109037381D01*
X82440000Y-109037381D02*
X82440000Y-108037381D01*
X82344762Y-108180238D01*
X82249524Y-108275476D01*
X82154286Y-108323095D01*
X85583334Y-108942143D02*
X85535715Y-108989762D01*
X85392858Y-109037381D01*
X85297620Y-109037381D01*
X85154762Y-108989762D01*
X85059524Y-108894524D01*
X85011905Y-108799286D01*
X84964286Y-108608810D01*
X84964286Y-108465952D01*
X85011905Y-108275476D01*
X85059524Y-108180238D01*
X85154762Y-108085000D01*
X85297620Y-108037381D01*
X85392858Y-108037381D01*
X85535715Y-108085000D01*
X85583334Y-108132619D01*
X85964286Y-108132619D02*
X86011905Y-108085000D01*
X86107143Y-108037381D01*
X86345239Y-108037381D01*
X86440477Y-108085000D01*
X86488096Y-108132619D01*
X86535715Y-108227857D01*
X86535715Y-108323095D01*
X86488096Y-108465952D01*
X85916667Y-109037381D01*
X86535715Y-109037381D01*
X69297143Y-101416666D02*
X69344762Y-101464285D01*
X69392381Y-101607142D01*
X69392381Y-101702380D01*
X69344762Y-101845238D01*
X69249524Y-101940476D01*
X69154286Y-101988095D01*
X68963810Y-102035714D01*
X68820952Y-102035714D01*
X68630476Y-101988095D01*
X68535238Y-101940476D01*
X68440000Y-101845238D01*
X68392381Y-101702380D01*
X68392381Y-101607142D01*
X68440000Y-101464285D01*
X68487619Y-101416666D01*
X68392381Y-101083333D02*
X68392381Y-100464285D01*
X68773333Y-100797619D01*
X68773333Y-100654761D01*
X68820952Y-100559523D01*
X68868571Y-100511904D01*
X68963810Y-100464285D01*
X69201905Y-100464285D01*
X69297143Y-100511904D01*
X69344762Y-100559523D01*
X69392381Y-100654761D01*
X69392381Y-100940476D01*
X69344762Y-101035714D01*
X69297143Y-101083333D01*
X102131905Y-110307381D02*
X102131905Y-109307381D01*
X102370000Y-109307381D01*
X102512858Y-109355000D01*
X102608096Y-109450238D01*
X102655715Y-109545476D01*
X102703334Y-109735952D01*
X102703334Y-109878810D01*
X102655715Y-110069286D01*
X102608096Y-110164524D01*
X102512858Y-110259762D01*
X102370000Y-110307381D01*
X102131905Y-110307381D01*
X103655715Y-110307381D02*
X103084286Y-110307381D01*
X103370000Y-110307381D02*
X103370000Y-109307381D01*
X103274762Y-109450238D01*
X103179524Y-109545476D01*
X103084286Y-109593095D01*
X107616667Y-120312381D02*
X107616667Y-121026667D01*
X107569047Y-121169524D01*
X107473809Y-121264762D01*
X107330952Y-121312381D01*
X107235714Y-121312381D01*
X108616667Y-121312381D02*
X108045238Y-121312381D01*
X108330952Y-121312381D02*
X108330952Y-120312381D01*
X108235714Y-120455238D01*
X108140476Y-120550476D01*
X108045238Y-120598095D01*
X99282381Y-101933333D02*
X99996667Y-101933333D01*
X100139524Y-101980953D01*
X100234762Y-102076191D01*
X100282381Y-102219048D01*
X100282381Y-102314286D01*
X99282381Y-101552381D02*
X99282381Y-100933333D01*
X99663333Y-101266667D01*
X99663333Y-101123809D01*
X99710952Y-101028571D01*
X99758571Y-100980952D01*
X99853810Y-100933333D01*
X100091905Y-100933333D01*
X100187143Y-100980952D01*
X100234762Y-101028571D01*
X100282381Y-101123809D01*
X100282381Y-101409524D01*
X100234762Y-101504762D01*
X100187143Y-101552381D01*
X107854762Y-119292619D02*
X107759524Y-119245000D01*
X107664286Y-119149762D01*
X107521429Y-119006905D01*
X107426190Y-118959286D01*
X107330952Y-118959286D01*
X107378571Y-119197381D02*
X107283333Y-119149762D01*
X107188095Y-119054524D01*
X107140476Y-118864048D01*
X107140476Y-118530714D01*
X107188095Y-118340238D01*
X107283333Y-118245000D01*
X107378571Y-118197381D01*
X107569048Y-118197381D01*
X107664286Y-118245000D01*
X107759524Y-118340238D01*
X107807143Y-118530714D01*
X107807143Y-118864048D01*
X107759524Y-119054524D01*
X107664286Y-119149762D01*
X107569048Y-119197381D01*
X107378571Y-119197381D01*
X108759524Y-119197381D02*
X108188095Y-119197381D01*
X108473809Y-119197381D02*
X108473809Y-118197381D01*
X108378571Y-118340238D01*
X108283333Y-118435476D01*
X108188095Y-118483095D01*
X69683334Y-123007381D02*
X69350000Y-122531190D01*
X69111905Y-123007381D02*
X69111905Y-122007381D01*
X69492858Y-122007381D01*
X69588096Y-122055000D01*
X69635715Y-122102619D01*
X69683334Y-122197857D01*
X69683334Y-122340714D01*
X69635715Y-122435952D01*
X69588096Y-122483571D01*
X69492858Y-122531190D01*
X69111905Y-122531190D01*
X70635715Y-123007381D02*
X70064286Y-123007381D01*
X70350000Y-123007381D02*
X70350000Y-122007381D01*
X70254762Y-122150238D01*
X70159524Y-122245476D01*
X70064286Y-122293095D01*
X69683334Y-121737381D02*
X69350000Y-121261190D01*
X69111905Y-121737381D02*
X69111905Y-120737381D01*
X69492858Y-120737381D01*
X69588096Y-120785000D01*
X69635715Y-120832619D01*
X69683334Y-120927857D01*
X69683334Y-121070714D01*
X69635715Y-121165952D01*
X69588096Y-121213571D01*
X69492858Y-121261190D01*
X69111905Y-121261190D01*
X70064286Y-120832619D02*
X70111905Y-120785000D01*
X70207143Y-120737381D01*
X70445239Y-120737381D01*
X70540477Y-120785000D01*
X70588096Y-120832619D01*
X70635715Y-120927857D01*
X70635715Y-121023095D01*
X70588096Y-121165952D01*
X70016667Y-121737381D01*
X70635715Y-121737381D01*
X69683334Y-120467381D02*
X69350000Y-119991190D01*
X69111905Y-120467381D02*
X69111905Y-119467381D01*
X69492858Y-119467381D01*
X69588096Y-119515000D01*
X69635715Y-119562619D01*
X69683334Y-119657857D01*
X69683334Y-119800714D01*
X69635715Y-119895952D01*
X69588096Y-119943571D01*
X69492858Y-119991190D01*
X69111905Y-119991190D01*
X70016667Y-119467381D02*
X70635715Y-119467381D01*
X70302381Y-119848333D01*
X70445239Y-119848333D01*
X70540477Y-119895952D01*
X70588096Y-119943571D01*
X70635715Y-120038810D01*
X70635715Y-120276905D01*
X70588096Y-120372143D01*
X70540477Y-120419762D01*
X70445239Y-120467381D01*
X70159524Y-120467381D01*
X70064286Y-120419762D01*
X70016667Y-120372143D01*
X70833334Y-117002381D02*
X70500000Y-116526190D01*
X70261905Y-117002381D02*
X70261905Y-116002381D01*
X70642858Y-116002381D01*
X70738096Y-116050000D01*
X70785715Y-116097619D01*
X70833334Y-116192857D01*
X70833334Y-116335714D01*
X70785715Y-116430952D01*
X70738096Y-116478571D01*
X70642858Y-116526190D01*
X70261905Y-116526190D01*
X71690477Y-116335714D02*
X71690477Y-117002381D01*
X71452381Y-115954762D02*
X71214286Y-116669048D01*
X71833334Y-116669048D01*
X95702381Y-122721666D02*
X95226190Y-123055000D01*
X95702381Y-123293095D02*
X94702381Y-123293095D01*
X94702381Y-122912142D01*
X94750000Y-122816904D01*
X94797619Y-122769285D01*
X94892857Y-122721666D01*
X95035714Y-122721666D01*
X95130952Y-122769285D01*
X95178571Y-122816904D01*
X95226190Y-122912142D01*
X95226190Y-123293095D01*
X94702381Y-121816904D02*
X94702381Y-122293095D01*
X95178571Y-122340714D01*
X95130952Y-122293095D01*
X95083333Y-122197857D01*
X95083333Y-121959761D01*
X95130952Y-121864523D01*
X95178571Y-121816904D01*
X95273810Y-121769285D01*
X95511905Y-121769285D01*
X95607143Y-121816904D01*
X95654762Y-121864523D01*
X95702381Y-121959761D01*
X95702381Y-122197857D01*
X95654762Y-122293095D01*
X95607143Y-122340714D01*
X97623334Y-114932381D02*
X97290000Y-114456190D01*
X97051905Y-114932381D02*
X97051905Y-113932381D01*
X97432858Y-113932381D01*
X97528096Y-113980000D01*
X97575715Y-114027619D01*
X97623334Y-114122857D01*
X97623334Y-114265714D01*
X97575715Y-114360952D01*
X97528096Y-114408571D01*
X97432858Y-114456190D01*
X97051905Y-114456190D01*
X98480477Y-113932381D02*
X98290000Y-113932381D01*
X98194762Y-113980000D01*
X98147143Y-114027619D01*
X98051905Y-114170476D01*
X98004286Y-114360952D01*
X98004286Y-114741905D01*
X98051905Y-114837143D01*
X98099524Y-114884762D01*
X98194762Y-114932381D01*
X98385239Y-114932381D01*
X98480477Y-114884762D01*
X98528096Y-114837143D01*
X98575715Y-114741905D01*
X98575715Y-114503810D01*
X98528096Y-114408571D01*
X98480477Y-114360952D01*
X98385239Y-114313333D01*
X98194762Y-114313333D01*
X98099524Y-114360952D01*
X98051905Y-114408571D01*
X98004286Y-114503810D01*
X104412381Y-114466666D02*
X103936190Y-114800000D01*
X104412381Y-115038095D02*
X103412381Y-115038095D01*
X103412381Y-114657142D01*
X103460000Y-114561904D01*
X103507619Y-114514285D01*
X103602857Y-114466666D01*
X103745714Y-114466666D01*
X103840952Y-114514285D01*
X103888571Y-114561904D01*
X103936190Y-114657142D01*
X103936190Y-115038095D01*
X103412381Y-114133333D02*
X103412381Y-113466666D01*
X104412381Y-113895238D01*
X102703334Y-109037381D02*
X102370000Y-108561190D01*
X102131905Y-109037381D02*
X102131905Y-108037381D01*
X102512858Y-108037381D01*
X102608096Y-108085000D01*
X102655715Y-108132619D01*
X102703334Y-108227857D01*
X102703334Y-108370714D01*
X102655715Y-108465952D01*
X102608096Y-108513571D01*
X102512858Y-108561190D01*
X102131905Y-108561190D01*
X103274762Y-108465952D02*
X103179524Y-108418333D01*
X103131905Y-108370714D01*
X103084286Y-108275476D01*
X103084286Y-108227857D01*
X103131905Y-108132619D01*
X103179524Y-108085000D01*
X103274762Y-108037381D01*
X103465239Y-108037381D01*
X103560477Y-108085000D01*
X103608096Y-108132619D01*
X103655715Y-108227857D01*
X103655715Y-108275476D01*
X103608096Y-108370714D01*
X103560477Y-108418333D01*
X103465239Y-108465952D01*
X103274762Y-108465952D01*
X103179524Y-108513571D01*
X103131905Y-108561190D01*
X103084286Y-108656429D01*
X103084286Y-108846905D01*
X103131905Y-108942143D01*
X103179524Y-108989762D01*
X103274762Y-109037381D01*
X103465239Y-109037381D01*
X103560477Y-108989762D01*
X103608096Y-108942143D01*
X103655715Y-108846905D01*
X103655715Y-108656429D01*
X103608096Y-108561190D01*
X103560477Y-108513571D01*
X103465239Y-108465952D01*
X98242381Y-123126428D02*
X97766190Y-123459762D01*
X98242381Y-123697857D02*
X97242381Y-123697857D01*
X97242381Y-123316904D01*
X97290000Y-123221666D01*
X97337619Y-123174047D01*
X97432857Y-123126428D01*
X97575714Y-123126428D01*
X97670952Y-123174047D01*
X97718571Y-123221666D01*
X97766190Y-123316904D01*
X97766190Y-123697857D01*
X98242381Y-122221666D02*
X98242381Y-122697857D01*
X97242381Y-122697857D01*
X98242381Y-121364523D02*
X98242381Y-121935952D01*
X98242381Y-121650238D02*
X97242381Y-121650238D01*
X97385238Y-121745476D01*
X97480476Y-121840714D01*
X97528095Y-121935952D01*
X62634762Y-128333333D02*
X62682381Y-128190476D01*
X62682381Y-127952380D01*
X62634762Y-127857142D01*
X62587143Y-127809523D01*
X62491905Y-127761904D01*
X62396667Y-127761904D01*
X62301429Y-127809523D01*
X62253810Y-127857142D01*
X62206190Y-127952380D01*
X62158571Y-128142857D01*
X62110952Y-128238095D01*
X62063333Y-128285714D01*
X61968095Y-128333333D01*
X61872857Y-128333333D01*
X61777619Y-128285714D01*
X61730000Y-128238095D01*
X61682381Y-128142857D01*
X61682381Y-127904761D01*
X61730000Y-127761904D01*
X61682381Y-127428571D02*
X62682381Y-127190476D01*
X61968095Y-126999999D01*
X62682381Y-126809523D01*
X61682381Y-126571428D01*
X62682381Y-125666666D02*
X62682381Y-126238095D01*
X62682381Y-125952381D02*
X61682381Y-125952381D01*
X61825238Y-126047619D01*
X61920476Y-126142857D01*
X61968095Y-126238095D01*
X62634762Y-116903333D02*
X62682381Y-116760476D01*
X62682381Y-116522380D01*
X62634762Y-116427142D01*
X62587143Y-116379523D01*
X62491905Y-116331904D01*
X62396667Y-116331904D01*
X62301429Y-116379523D01*
X62253810Y-116427142D01*
X62206190Y-116522380D01*
X62158571Y-116712857D01*
X62110952Y-116808095D01*
X62063333Y-116855714D01*
X61968095Y-116903333D01*
X61872857Y-116903333D01*
X61777619Y-116855714D01*
X61730000Y-116808095D01*
X61682381Y-116712857D01*
X61682381Y-116474761D01*
X61730000Y-116331904D01*
X61682381Y-115998571D02*
X62682381Y-115760476D01*
X61968095Y-115569999D01*
X62682381Y-115379523D01*
X61682381Y-115141428D01*
X61777619Y-114808095D02*
X61730000Y-114760476D01*
X61682381Y-114665238D01*
X61682381Y-114427142D01*
X61730000Y-114331904D01*
X61777619Y-114284285D01*
X61872857Y-114236666D01*
X61968095Y-114236666D01*
X62110952Y-114284285D01*
X62682381Y-114855714D01*
X62682381Y-114236666D01*
X82558095Y-129832381D02*
X82558095Y-130641905D01*
X82605714Y-130737143D01*
X82653333Y-130784762D01*
X82748571Y-130832381D01*
X82939048Y-130832381D01*
X83034286Y-130784762D01*
X83081905Y-130737143D01*
X83129524Y-130641905D01*
X83129524Y-129832381D01*
X84129524Y-130832381D02*
X83558095Y-130832381D01*
X83843809Y-130832381D02*
X83843809Y-129832381D01*
X83748571Y-129975238D01*
X83653333Y-130070476D01*
X83558095Y-130118095D01*
X79112381Y-101361905D02*
X79921905Y-101361905D01*
X80017143Y-101314286D01*
X80064762Y-101266667D01*
X80112381Y-101171429D01*
X80112381Y-100980952D01*
X80064762Y-100885714D01*
X80017143Y-100838095D01*
X79921905Y-100790476D01*
X79112381Y-100790476D01*
X79112381Y-100409524D02*
X79112381Y-99790476D01*
X79493333Y-100123810D01*
X79493333Y-99980952D01*
X79540952Y-99885714D01*
X79588571Y-99838095D01*
X79683810Y-99790476D01*
X79921905Y-99790476D01*
X80017143Y-99838095D01*
X80064762Y-99885714D01*
X80112381Y-99980952D01*
X80112381Y-100266667D01*
X80064762Y-100361905D01*
X80017143Y-100409524D01*
M02*
