G04 #@! TF.FileFunction,Soldermask,Top*
%FSLAX46Y46*%
G04 Gerber Fmt 4.6, Leading zero omitted, Abs format (unit mm)*
G04 Created by KiCad (PCBNEW 4.0.6) date 07/25/17 01:39:03*
%MOMM*%
%LPD*%
G01*
G04 APERTURE LIST*
%ADD10C,0.100000*%
%ADD11C,2.400000*%
%ADD12C,3.600000*%
%ADD13R,1.600000X1.150000*%
%ADD14R,2.000000X2.000000*%
%ADD15C,2.000000*%
%ADD16R,1.600000X1.300000*%
%ADD17R,2.100000X2.100000*%
%ADD18O,2.100000X2.100000*%
%ADD19C,1.924000*%
%ADD20R,2.200000X2.200000*%
%ADD21O,2.200000X2.200000*%
%ADD22R,1.300000X1.600000*%
%ADD23R,2.400000X1.300000*%
%ADD24R,1.600000X2.600000*%
%ADD25R,6.200000X6.800000*%
G04 APERTURE END LIST*
D10*
D11*
X72820000Y-53630000D03*
X70280000Y-56170000D03*
X72820000Y-56170000D03*
X72820000Y-58710000D03*
X70280000Y-53630000D03*
X70280000Y-58710000D03*
X67740000Y-58710000D03*
X67740000Y-53630000D03*
X65200000Y-56170000D03*
X67740000Y-56170000D03*
X65200000Y-53630000D03*
X65200000Y-58710000D03*
X60120000Y-53630000D03*
X62660000Y-56170000D03*
X60120000Y-56170000D03*
X62660000Y-53630000D03*
X62660000Y-58710000D03*
X60120000Y-58710000D03*
X72820000Y-61250000D03*
X70280000Y-61250000D03*
X67740000Y-61250000D03*
X52500000Y-61250000D03*
X57580000Y-61250000D03*
X55040000Y-61250000D03*
X60120000Y-61250000D03*
X62660000Y-61250000D03*
X65200000Y-61250000D03*
X67740000Y-63790000D03*
X70280000Y-66330000D03*
X72820000Y-66330000D03*
X67740000Y-66330000D03*
X70280000Y-63790000D03*
X72820000Y-63790000D03*
X62660000Y-66330000D03*
X65200000Y-63790000D03*
X65200000Y-66330000D03*
X62660000Y-63790000D03*
X60120000Y-63790000D03*
X60120000Y-66330000D03*
X52500000Y-66330000D03*
X55040000Y-63790000D03*
X57580000Y-63790000D03*
X55040000Y-66330000D03*
X52500000Y-63790000D03*
X57580000Y-66330000D03*
X67740000Y-71410000D03*
X65200000Y-73950000D03*
X67740000Y-73950000D03*
X67740000Y-68870000D03*
X65200000Y-71410000D03*
X62660000Y-68870000D03*
X65200000Y-68870000D03*
X62660000Y-71410000D03*
X62660000Y-73950000D03*
X57580000Y-71410000D03*
X57580000Y-68870000D03*
X60120000Y-71410000D03*
X60120000Y-68870000D03*
X60120000Y-73950000D03*
X55040000Y-68870000D03*
X55040000Y-71410000D03*
X52500000Y-68870000D03*
X52500000Y-73950000D03*
X52500000Y-71410000D03*
X70280000Y-68870000D03*
X70280000Y-73950000D03*
X72820000Y-68870000D03*
X70280000Y-71410000D03*
X72820000Y-73950000D03*
X72820000Y-71410000D03*
X55040000Y-73950000D03*
X57580000Y-73950000D03*
X67740000Y-76490000D03*
X70280000Y-79030000D03*
X72820000Y-79030000D03*
X67740000Y-79030000D03*
X70280000Y-76490000D03*
X72820000Y-76490000D03*
X62660000Y-79030000D03*
X65200000Y-76490000D03*
X65200000Y-79030000D03*
X62660000Y-76490000D03*
X60120000Y-76490000D03*
X60120000Y-79030000D03*
X52500000Y-79030000D03*
X55040000Y-76490000D03*
X57580000Y-76490000D03*
X55040000Y-79030000D03*
X52500000Y-76490000D03*
X57580000Y-79030000D03*
X67740000Y-84110000D03*
X65200000Y-86650000D03*
X67740000Y-86650000D03*
X67740000Y-81570000D03*
X65200000Y-84110000D03*
X62660000Y-81570000D03*
X65200000Y-81570000D03*
X62660000Y-84110000D03*
X62660000Y-86650000D03*
X57580000Y-84110000D03*
X57580000Y-81570000D03*
X60120000Y-84110000D03*
X60120000Y-81570000D03*
X60120000Y-86650000D03*
X55040000Y-81570000D03*
X55040000Y-84110000D03*
X52500000Y-81570000D03*
X52500000Y-86650000D03*
X52500000Y-84110000D03*
X70280000Y-81570000D03*
X70280000Y-86650000D03*
X72820000Y-81570000D03*
X70280000Y-84110000D03*
X72820000Y-86650000D03*
X72820000Y-84110000D03*
X55040000Y-86650000D03*
X57580000Y-86650000D03*
X133780000Y-53630000D03*
X133780000Y-56170000D03*
X138860000Y-53630000D03*
X136320000Y-53630000D03*
X133780000Y-58710000D03*
X138860000Y-58710000D03*
X136320000Y-58710000D03*
X136320000Y-56170000D03*
X138860000Y-56170000D03*
X131240000Y-53630000D03*
X131240000Y-56170000D03*
X128700000Y-53630000D03*
X131240000Y-58710000D03*
X128700000Y-56170000D03*
X128700000Y-58710000D03*
X143940000Y-61250000D03*
X141400000Y-61250000D03*
X146480000Y-61250000D03*
X136320000Y-61250000D03*
X138860000Y-61250000D03*
X128700000Y-61250000D03*
X133780000Y-61250000D03*
X131240000Y-61250000D03*
X133780000Y-71410000D03*
X131240000Y-71410000D03*
X128700000Y-71410000D03*
X131240000Y-68870000D03*
X128700000Y-68870000D03*
X133780000Y-68870000D03*
X143940000Y-71410000D03*
X146480000Y-71410000D03*
X141400000Y-71410000D03*
X146480000Y-68870000D03*
X141400000Y-68870000D03*
X141400000Y-63790000D03*
X143940000Y-63790000D03*
X143940000Y-68870000D03*
X141400000Y-66330000D03*
X143940000Y-66330000D03*
X128700000Y-66330000D03*
X128700000Y-63790000D03*
X131240000Y-63790000D03*
X131240000Y-66330000D03*
X133780000Y-63790000D03*
X133780000Y-66330000D03*
X138860000Y-71410000D03*
X138860000Y-66330000D03*
X136320000Y-71410000D03*
X138860000Y-68870000D03*
X136320000Y-66330000D03*
X136320000Y-68870000D03*
X138860000Y-63790000D03*
X146480000Y-63790000D03*
X136320000Y-63790000D03*
X146480000Y-66330000D03*
X136320000Y-79030000D03*
X133780000Y-79030000D03*
X133780000Y-76490000D03*
X133780000Y-73950000D03*
X136320000Y-76490000D03*
X131240000Y-73950000D03*
X128700000Y-73950000D03*
X131240000Y-76490000D03*
X146480000Y-79030000D03*
X146480000Y-73950000D03*
X146480000Y-76490000D03*
X143940000Y-76490000D03*
X141400000Y-76490000D03*
X143940000Y-79030000D03*
X141400000Y-79030000D03*
X143940000Y-73950000D03*
X141400000Y-73950000D03*
X138860000Y-73950000D03*
X136320000Y-73950000D03*
X138860000Y-76490000D03*
X138860000Y-79030000D03*
X128700000Y-76490000D03*
X128700000Y-79030000D03*
X131240000Y-79030000D03*
X131240000Y-86650000D03*
X133780000Y-86650000D03*
X128700000Y-81570000D03*
X131240000Y-84110000D03*
X133780000Y-84110000D03*
X131240000Y-81570000D03*
X133780000Y-81570000D03*
X128700000Y-84110000D03*
X128700000Y-86650000D03*
X141400000Y-81570000D03*
X146480000Y-81570000D03*
X143940000Y-81570000D03*
X146480000Y-84110000D03*
X143940000Y-84110000D03*
X143940000Y-86650000D03*
X141400000Y-86650000D03*
X141400000Y-84110000D03*
X146480000Y-86650000D03*
X136320000Y-81570000D03*
X138860000Y-86650000D03*
X136320000Y-84110000D03*
X136320000Y-86650000D03*
X138860000Y-84110000D03*
X138860000Y-81570000D03*
X136320000Y-94270000D03*
X136320000Y-96810000D03*
X146480000Y-94270000D03*
X143940000Y-89190000D03*
X146480000Y-91730000D03*
X146480000Y-89190000D03*
X143940000Y-91730000D03*
X138860000Y-89190000D03*
X136320000Y-89190000D03*
X141400000Y-91730000D03*
X141400000Y-89190000D03*
X136320000Y-91730000D03*
X138860000Y-91730000D03*
X138860000Y-96810000D03*
X143940000Y-94270000D03*
X141400000Y-96810000D03*
X141400000Y-94270000D03*
X138860000Y-94270000D03*
X146480000Y-96810000D03*
X143940000Y-96810000D03*
X133780000Y-91730000D03*
X131240000Y-89190000D03*
X131240000Y-91730000D03*
X133780000Y-89190000D03*
X121080000Y-94270000D03*
X121080000Y-96810000D03*
X123620000Y-94270000D03*
X123620000Y-96810000D03*
X126160000Y-94270000D03*
X128700000Y-96810000D03*
X126160000Y-96810000D03*
X128700000Y-94270000D03*
X121080000Y-91730000D03*
X121080000Y-89190000D03*
X128700000Y-89190000D03*
X126160000Y-91730000D03*
X128700000Y-91730000D03*
X123620000Y-91730000D03*
X123620000Y-89190000D03*
X126160000Y-89190000D03*
X133780000Y-94270000D03*
X133780000Y-96810000D03*
X131240000Y-96810000D03*
X131240000Y-94270000D03*
X88060000Y-89190000D03*
X88060000Y-91730000D03*
X85520000Y-89190000D03*
X85520000Y-91730000D03*
X67740000Y-89190000D03*
X67740000Y-91730000D03*
X70280000Y-91730000D03*
X70280000Y-89190000D03*
X82980000Y-91730000D03*
X82980000Y-89190000D03*
X77900000Y-91730000D03*
X77900000Y-94270000D03*
X80440000Y-91730000D03*
X80440000Y-89190000D03*
X77900000Y-89190000D03*
X70280000Y-94270000D03*
X72820000Y-89190000D03*
X75360000Y-91730000D03*
X75360000Y-94270000D03*
X75360000Y-89190000D03*
X72820000Y-94270000D03*
X72820000Y-91730000D03*
X75360000Y-96810000D03*
X77900000Y-96810000D03*
X65200000Y-96810000D03*
X67740000Y-96810000D03*
X72820000Y-96810000D03*
X70280000Y-96810000D03*
X67740000Y-94270000D03*
X65200000Y-89190000D03*
X65200000Y-91730000D03*
X65200000Y-94270000D03*
X57580000Y-96810000D03*
X60120000Y-94270000D03*
X57580000Y-94270000D03*
X62660000Y-89190000D03*
X60120000Y-89190000D03*
X60120000Y-91730000D03*
X62660000Y-91730000D03*
X62660000Y-94270000D03*
X62660000Y-96810000D03*
X60120000Y-96810000D03*
X52500000Y-91730000D03*
X55040000Y-94270000D03*
X52500000Y-94270000D03*
X52500000Y-89190000D03*
X55040000Y-96810000D03*
X52500000Y-96810000D03*
X57580000Y-89190000D03*
X55040000Y-89190000D03*
X57580000Y-91730000D03*
X55040000Y-91730000D03*
X80440000Y-94270000D03*
X82980000Y-94270000D03*
X82980000Y-96810000D03*
X80440000Y-96810000D03*
X85520000Y-94270000D03*
X88060000Y-94270000D03*
X88060000Y-96810000D03*
X85520000Y-96810000D03*
X90600000Y-96810000D03*
X93140000Y-94270000D03*
X93140000Y-96810000D03*
X90600000Y-94270000D03*
X90600000Y-91730000D03*
X93140000Y-91730000D03*
X93140000Y-89190000D03*
X90600000Y-89190000D03*
X95680000Y-91730000D03*
X100760000Y-89190000D03*
X100760000Y-91730000D03*
X98220000Y-91730000D03*
X95680000Y-89190000D03*
X98220000Y-89190000D03*
X103300000Y-96810000D03*
X105840000Y-96810000D03*
X105840000Y-94270000D03*
X103300000Y-94270000D03*
X103300000Y-89190000D03*
X105840000Y-89190000D03*
X103300000Y-91730000D03*
X105840000Y-91730000D03*
X95680000Y-94270000D03*
X98220000Y-96810000D03*
X95680000Y-96810000D03*
X100760000Y-94270000D03*
X100760000Y-96810000D03*
X98220000Y-94270000D03*
X118540000Y-94270000D03*
X116000000Y-96810000D03*
X116000000Y-94270000D03*
X118540000Y-96810000D03*
X118540000Y-91730000D03*
X116000000Y-89190000D03*
X116000000Y-91730000D03*
X118540000Y-89190000D03*
X113460000Y-96810000D03*
X108380000Y-94270000D03*
X110920000Y-96810000D03*
X113460000Y-94270000D03*
X110920000Y-94270000D03*
X108380000Y-96810000D03*
X108380000Y-91730000D03*
X113460000Y-91730000D03*
X113460000Y-89190000D03*
X110920000Y-89190000D03*
X110920000Y-91730000D03*
X108380000Y-89190000D03*
X60120000Y-104430000D03*
X62660000Y-104430000D03*
X60120000Y-101890000D03*
X60120000Y-99350000D03*
X62660000Y-101890000D03*
X62660000Y-99350000D03*
X52500000Y-114590000D03*
X52500000Y-117130000D03*
X55040000Y-117130000D03*
X55040000Y-114590000D03*
X60120000Y-117130000D03*
X62660000Y-114590000D03*
X62660000Y-117130000D03*
X60120000Y-114590000D03*
X55040000Y-101890000D03*
X57580000Y-101890000D03*
X52500000Y-99350000D03*
X57580000Y-99350000D03*
X52500000Y-101890000D03*
X55040000Y-99350000D03*
X57580000Y-114590000D03*
X57580000Y-117130000D03*
X55040000Y-112050000D03*
X52500000Y-112050000D03*
X55040000Y-104430000D03*
X52500000Y-104430000D03*
X57580000Y-104430000D03*
X52500000Y-106970000D03*
X52500000Y-109510000D03*
X55040000Y-106970000D03*
X55040000Y-109510000D03*
X57580000Y-109510000D03*
X57580000Y-106970000D03*
X60120000Y-106970000D03*
X62660000Y-106970000D03*
X62660000Y-112050000D03*
X62660000Y-109510000D03*
X60120000Y-109510000D03*
X57580000Y-112050000D03*
X60120000Y-112050000D03*
X77900000Y-117130000D03*
X77900000Y-114590000D03*
X70280000Y-117130000D03*
X65200000Y-117130000D03*
X67740000Y-117130000D03*
X70280000Y-109510000D03*
X65200000Y-114590000D03*
X70280000Y-114590000D03*
X67740000Y-114590000D03*
X70280000Y-112050000D03*
X67740000Y-112050000D03*
X65200000Y-109510000D03*
X67740000Y-109510000D03*
X65200000Y-112050000D03*
X75360000Y-114590000D03*
X72820000Y-117130000D03*
X75360000Y-117130000D03*
X72820000Y-114590000D03*
X77900000Y-109510000D03*
X72820000Y-109510000D03*
X75360000Y-109510000D03*
X75360000Y-112050000D03*
X77900000Y-112050000D03*
X72820000Y-112050000D03*
X85520000Y-104430000D03*
X85520000Y-106970000D03*
X88060000Y-106970000D03*
X88060000Y-104430000D03*
X88060000Y-101890000D03*
X70280000Y-101890000D03*
X67740000Y-99350000D03*
X67740000Y-101890000D03*
X72820000Y-101890000D03*
X72820000Y-99350000D03*
X70280000Y-99350000D03*
X75360000Y-99350000D03*
X77900000Y-99350000D03*
X75360000Y-101890000D03*
X77900000Y-101890000D03*
X80440000Y-99350000D03*
X70280000Y-106970000D03*
X72820000Y-104430000D03*
X72820000Y-106970000D03*
X75360000Y-106970000D03*
X75360000Y-104430000D03*
X70280000Y-104430000D03*
X67740000Y-106970000D03*
X65200000Y-101890000D03*
X65200000Y-99350000D03*
X67740000Y-104430000D03*
X65200000Y-104430000D03*
X65200000Y-106970000D03*
X77900000Y-104430000D03*
X77900000Y-106970000D03*
X82980000Y-106970000D03*
X80440000Y-101890000D03*
X80440000Y-104430000D03*
X80440000Y-106970000D03*
X82980000Y-104430000D03*
X85520000Y-99350000D03*
X88060000Y-99350000D03*
X82980000Y-99350000D03*
X85520000Y-101890000D03*
X82980000Y-101890000D03*
X116000000Y-117130000D03*
X116000000Y-114590000D03*
X118540000Y-117130000D03*
X118540000Y-114590000D03*
X113460000Y-117130000D03*
X110920000Y-114590000D03*
X113460000Y-114590000D03*
X110920000Y-117130000D03*
X110920000Y-109510000D03*
X110920000Y-112050000D03*
X113460000Y-112050000D03*
X113460000Y-109510000D03*
X116000000Y-112050000D03*
X116000000Y-109510000D03*
X118540000Y-109510000D03*
X118540000Y-112050000D03*
X123620000Y-117130000D03*
X121080000Y-114590000D03*
X121080000Y-117130000D03*
X123620000Y-114590000D03*
X136320000Y-109510000D03*
X131240000Y-109510000D03*
X133780000Y-112050000D03*
X131240000Y-112050000D03*
X133780000Y-109510000D03*
X133780000Y-114590000D03*
X136320000Y-117130000D03*
X133780000Y-117130000D03*
X136320000Y-112050000D03*
X136320000Y-114590000D03*
X123620000Y-109510000D03*
X123620000Y-112050000D03*
X121080000Y-109510000D03*
X121080000Y-112050000D03*
X126160000Y-109510000D03*
X128700000Y-112050000D03*
X128700000Y-109510000D03*
X126160000Y-112050000D03*
X126160000Y-114590000D03*
X126160000Y-117130000D03*
X131240000Y-114590000D03*
X128700000Y-114590000D03*
X131240000Y-117130000D03*
X128700000Y-117130000D03*
X108380000Y-101890000D03*
X108380000Y-99350000D03*
X110920000Y-99350000D03*
X113460000Y-99350000D03*
X110920000Y-101890000D03*
X113460000Y-101890000D03*
X116000000Y-106970000D03*
X121080000Y-104430000D03*
X116000000Y-104430000D03*
X123620000Y-104430000D03*
X123620000Y-106970000D03*
X121080000Y-106970000D03*
X118540000Y-106970000D03*
X118540000Y-104430000D03*
X126160000Y-101890000D03*
X128700000Y-106970000D03*
X128700000Y-104430000D03*
X126160000Y-104430000D03*
X128700000Y-101890000D03*
X126160000Y-99350000D03*
X128700000Y-99350000D03*
X126160000Y-106970000D03*
X116000000Y-99350000D03*
X116000000Y-101890000D03*
X121080000Y-101890000D03*
X123620000Y-101890000D03*
X123620000Y-99350000D03*
X121080000Y-99350000D03*
X118540000Y-99350000D03*
X118540000Y-101890000D03*
X108380000Y-106970000D03*
X113460000Y-106970000D03*
X110920000Y-106970000D03*
X108380000Y-104430000D03*
X110920000Y-104430000D03*
X113460000Y-104430000D03*
X146480000Y-101890000D03*
X146480000Y-106970000D03*
X146480000Y-104430000D03*
X146480000Y-99350000D03*
X143940000Y-99350000D03*
X136320000Y-99350000D03*
X136320000Y-101890000D03*
X133780000Y-99350000D03*
X131240000Y-99350000D03*
X136320000Y-106970000D03*
X133780000Y-106970000D03*
X136320000Y-104430000D03*
X133780000Y-104430000D03*
X133780000Y-101890000D03*
X131240000Y-104430000D03*
X131240000Y-101890000D03*
X131240000Y-106970000D03*
X141400000Y-101890000D03*
X138860000Y-101890000D03*
X141400000Y-99350000D03*
X138860000Y-99350000D03*
X143940000Y-104430000D03*
X143940000Y-101890000D03*
X141400000Y-104430000D03*
X138860000Y-104430000D03*
X138860000Y-109510000D03*
X138860000Y-112050000D03*
X138860000Y-106970000D03*
X141400000Y-109510000D03*
X143940000Y-106970000D03*
X141400000Y-106970000D03*
X141400000Y-112050000D03*
X105840000Y-106970000D03*
X103300000Y-106970000D03*
X100760000Y-106970000D03*
X100760000Y-104430000D03*
X100760000Y-101890000D03*
X98220000Y-99350000D03*
X98220000Y-101890000D03*
X98220000Y-104430000D03*
X100760000Y-99350000D03*
X90600000Y-99350000D03*
X95680000Y-99350000D03*
X93140000Y-101890000D03*
X90600000Y-101890000D03*
X95680000Y-101890000D03*
X93140000Y-99350000D03*
X105840000Y-101890000D03*
X105840000Y-104430000D03*
X103300000Y-99350000D03*
X105840000Y-99350000D03*
X103300000Y-101890000D03*
X103300000Y-104430000D03*
X98220000Y-106970000D03*
X90600000Y-104430000D03*
X95680000Y-106970000D03*
X93140000Y-106970000D03*
X90600000Y-106970000D03*
X95680000Y-104430000D03*
X93140000Y-104430000D03*
X146480000Y-109510000D03*
X146480000Y-114590000D03*
X143940000Y-109510000D03*
X146480000Y-112050000D03*
X143940000Y-112050000D03*
X138860000Y-114590000D03*
X141400000Y-114590000D03*
X143940000Y-114590000D03*
X138860000Y-117130000D03*
X143940000Y-117130000D03*
X141400000Y-117130000D03*
X146480000Y-117130000D03*
X100760000Y-117130000D03*
X103300000Y-117130000D03*
X100760000Y-114590000D03*
X103300000Y-114590000D03*
X105840000Y-109510000D03*
X108380000Y-112050000D03*
X105840000Y-112050000D03*
X108380000Y-109510000D03*
X108380000Y-114590000D03*
X105840000Y-117130000D03*
X105840000Y-114590000D03*
X108380000Y-117130000D03*
X100760000Y-109510000D03*
X100760000Y-112050000D03*
X103300000Y-112050000D03*
X103300000Y-109510000D03*
X95680000Y-109510000D03*
X98220000Y-112050000D03*
X95680000Y-112050000D03*
X98220000Y-109510000D03*
X93140000Y-112050000D03*
X93140000Y-109510000D03*
X90600000Y-112050000D03*
X90600000Y-109510000D03*
X82980000Y-109510000D03*
X85520000Y-109510000D03*
X80440000Y-112050000D03*
X80440000Y-109510000D03*
X82980000Y-114590000D03*
X80440000Y-114590000D03*
X82980000Y-112050000D03*
X85520000Y-114590000D03*
X88060000Y-114590000D03*
X88060000Y-109510000D03*
X88060000Y-112050000D03*
X85520000Y-112050000D03*
X85520000Y-117130000D03*
X82980000Y-117130000D03*
X80440000Y-117130000D03*
X90600000Y-117130000D03*
X88060000Y-117130000D03*
X93140000Y-117130000D03*
X93140000Y-114590000D03*
X90600000Y-114590000D03*
X95680000Y-114590000D03*
X95680000Y-117130000D03*
X98220000Y-117130000D03*
X98220000Y-114590000D03*
X55040000Y-124750000D03*
X55040000Y-127290000D03*
X57580000Y-127290000D03*
X57580000Y-124750000D03*
X60120000Y-124750000D03*
X67740000Y-127290000D03*
X62660000Y-124750000D03*
X60120000Y-127290000D03*
X62660000Y-127290000D03*
X65200000Y-127290000D03*
X65200000Y-124750000D03*
X67740000Y-124750000D03*
X52500000Y-124750000D03*
X52500000Y-119670000D03*
X52500000Y-122210000D03*
X52500000Y-127290000D03*
X60120000Y-122210000D03*
X55040000Y-122210000D03*
X57580000Y-122210000D03*
X60120000Y-119670000D03*
X55040000Y-119670000D03*
X62660000Y-119670000D03*
X62660000Y-122210000D03*
X57580000Y-119670000D03*
X65200000Y-122210000D03*
X65200000Y-119670000D03*
X70280000Y-127290000D03*
X70280000Y-124750000D03*
X67740000Y-119670000D03*
X70280000Y-119670000D03*
X67740000Y-122210000D03*
X70280000Y-122210000D03*
X146480000Y-122210000D03*
X146480000Y-124750000D03*
X146480000Y-119670000D03*
X141400000Y-122210000D03*
X138860000Y-119670000D03*
X141400000Y-119670000D03*
X138860000Y-122210000D03*
X143940000Y-119670000D03*
X143940000Y-124750000D03*
X141400000Y-124750000D03*
X143940000Y-122210000D03*
X138860000Y-124750000D03*
X146480000Y-127290000D03*
X141400000Y-127290000D03*
X143940000Y-127290000D03*
X138860000Y-127290000D03*
X72820000Y-122210000D03*
X75360000Y-119670000D03*
X77900000Y-122210000D03*
X77900000Y-119670000D03*
X72820000Y-119670000D03*
X75360000Y-122210000D03*
X72820000Y-124750000D03*
X72820000Y-127290000D03*
X77900000Y-124750000D03*
X77900000Y-127290000D03*
X75360000Y-127290000D03*
X75360000Y-124750000D03*
X116000000Y-127290000D03*
X116000000Y-119670000D03*
X116000000Y-122210000D03*
X116000000Y-124750000D03*
X105840000Y-127290000D03*
X108380000Y-127290000D03*
X113460000Y-127290000D03*
X110920000Y-127290000D03*
X108380000Y-124750000D03*
X108380000Y-122210000D03*
X108380000Y-119670000D03*
X110920000Y-119670000D03*
X113460000Y-119670000D03*
X110920000Y-124750000D03*
X110920000Y-122210000D03*
X113460000Y-122210000D03*
X113460000Y-124750000D03*
X105840000Y-122210000D03*
X105840000Y-124750000D03*
X100760000Y-124750000D03*
X103300000Y-119670000D03*
X100760000Y-119670000D03*
X105840000Y-119670000D03*
X103300000Y-122210000D03*
X100760000Y-122210000D03*
X133780000Y-127290000D03*
X136320000Y-124750000D03*
X133780000Y-124750000D03*
X136320000Y-119670000D03*
X136320000Y-122210000D03*
X136320000Y-127290000D03*
X131240000Y-124750000D03*
X121080000Y-124750000D03*
X123620000Y-124750000D03*
X123620000Y-127290000D03*
X121080000Y-127290000D03*
X118540000Y-127290000D03*
X133780000Y-119670000D03*
X133780000Y-122210000D03*
X126160000Y-122210000D03*
X128700000Y-122210000D03*
X131240000Y-119670000D03*
X126160000Y-119670000D03*
X128700000Y-119670000D03*
X131240000Y-122210000D03*
X118540000Y-124750000D03*
X121080000Y-122210000D03*
X123620000Y-122210000D03*
X123620000Y-119670000D03*
X121080000Y-119670000D03*
X118540000Y-119670000D03*
X118540000Y-122210000D03*
X126160000Y-127290000D03*
X128700000Y-127290000D03*
X131240000Y-127290000D03*
X128700000Y-124750000D03*
X126160000Y-124750000D03*
X98220000Y-119670000D03*
X98220000Y-122210000D03*
X90600000Y-119670000D03*
X93140000Y-119670000D03*
X95680000Y-119670000D03*
X93140000Y-122210000D03*
X90600000Y-122210000D03*
X95680000Y-122210000D03*
X85520000Y-124750000D03*
X85520000Y-119670000D03*
X88060000Y-119670000D03*
X88060000Y-124750000D03*
X88060000Y-122210000D03*
X85520000Y-122210000D03*
X82980000Y-124750000D03*
X82980000Y-122210000D03*
X80440000Y-122210000D03*
X80440000Y-119670000D03*
X80440000Y-124750000D03*
X82980000Y-119670000D03*
X82980000Y-127290000D03*
X85520000Y-127290000D03*
X88060000Y-127290000D03*
X80440000Y-127290000D03*
X98220000Y-124750000D03*
X100760000Y-127290000D03*
X98220000Y-127290000D03*
X103300000Y-127290000D03*
X103300000Y-124750000D03*
X90600000Y-124750000D03*
X93140000Y-124750000D03*
X93140000Y-127290000D03*
X90600000Y-127290000D03*
X95680000Y-124750000D03*
X95680000Y-127290000D03*
X133780000Y-137450000D03*
X133780000Y-129830000D03*
X136320000Y-137450000D03*
X136320000Y-129830000D03*
X136320000Y-134910000D03*
X136320000Y-132370000D03*
X133780000Y-132370000D03*
X133780000Y-134910000D03*
X143940000Y-134910000D03*
X141400000Y-134910000D03*
X138860000Y-134910000D03*
X138860000Y-129830000D03*
X138860000Y-132370000D03*
X141400000Y-132370000D03*
X143940000Y-132370000D03*
X141400000Y-129830000D03*
X143940000Y-129830000D03*
X146480000Y-134910000D03*
X146480000Y-137450000D03*
X146480000Y-132370000D03*
X146480000Y-129830000D03*
X141400000Y-137450000D03*
X138860000Y-137450000D03*
X143940000Y-137450000D03*
X105840000Y-132370000D03*
X103300000Y-129830000D03*
X108380000Y-132370000D03*
X105840000Y-129830000D03*
X103300000Y-132370000D03*
X108380000Y-129830000D03*
X98220000Y-129830000D03*
X98220000Y-134910000D03*
X100760000Y-134910000D03*
X98220000Y-132370000D03*
X100760000Y-132370000D03*
X100760000Y-129830000D03*
X100760000Y-137450000D03*
X98220000Y-137450000D03*
X103300000Y-137450000D03*
X105840000Y-134910000D03*
X103300000Y-134910000D03*
X105840000Y-137450000D03*
X108380000Y-137450000D03*
X108380000Y-134910000D03*
X82980000Y-134910000D03*
X82980000Y-137450000D03*
X85520000Y-134910000D03*
X88060000Y-134910000D03*
X88060000Y-137450000D03*
X88060000Y-132370000D03*
X85520000Y-132370000D03*
X85520000Y-137450000D03*
X88060000Y-129830000D03*
X85520000Y-129830000D03*
X82980000Y-129830000D03*
X82980000Y-132370000D03*
X90600000Y-134910000D03*
X93140000Y-137450000D03*
X90600000Y-137450000D03*
X95680000Y-134910000D03*
X93140000Y-134910000D03*
X95680000Y-137450000D03*
X90600000Y-129830000D03*
X93140000Y-129830000D03*
X95680000Y-129830000D03*
X93140000Y-132370000D03*
X90600000Y-132370000D03*
X95680000Y-132370000D03*
X131240000Y-132370000D03*
X131240000Y-134910000D03*
X131240000Y-137450000D03*
X123620000Y-134910000D03*
X121080000Y-137450000D03*
X121080000Y-134910000D03*
X123620000Y-137450000D03*
X126160000Y-137450000D03*
X126160000Y-134910000D03*
X118540000Y-137450000D03*
X118540000Y-134910000D03*
X110920000Y-134910000D03*
X113460000Y-137450000D03*
X113460000Y-134910000D03*
X116000000Y-134910000D03*
X110920000Y-137450000D03*
X116000000Y-137450000D03*
X110920000Y-132370000D03*
X116000000Y-132370000D03*
X116000000Y-129830000D03*
X110920000Y-129830000D03*
X113460000Y-132370000D03*
X113460000Y-129830000D03*
X128700000Y-137450000D03*
X131240000Y-129830000D03*
X128700000Y-132370000D03*
X128700000Y-134910000D03*
X128700000Y-129830000D03*
X123620000Y-129830000D03*
X121080000Y-132370000D03*
X126160000Y-132370000D03*
X118540000Y-129830000D03*
X118540000Y-132370000D03*
X123620000Y-132370000D03*
X126160000Y-129830000D03*
X121080000Y-129830000D03*
X52500000Y-134910000D03*
X52500000Y-137450000D03*
X55040000Y-134910000D03*
X55040000Y-137450000D03*
X57580000Y-137450000D03*
X57580000Y-134910000D03*
X60120000Y-132370000D03*
X60120000Y-134910000D03*
X62660000Y-134910000D03*
X60120000Y-137450000D03*
X62660000Y-137450000D03*
X52500000Y-132370000D03*
X52500000Y-129830000D03*
X57580000Y-129830000D03*
X55040000Y-129830000D03*
X55040000Y-132370000D03*
X57580000Y-132370000D03*
X60120000Y-129830000D03*
X62660000Y-129830000D03*
X65200000Y-137450000D03*
X65200000Y-132370000D03*
X65200000Y-134910000D03*
X62660000Y-132370000D03*
X65200000Y-129830000D03*
X67740000Y-137450000D03*
X67740000Y-134910000D03*
X70280000Y-137450000D03*
X72820000Y-134910000D03*
X72820000Y-137450000D03*
X70280000Y-134910000D03*
X75360000Y-129830000D03*
X80440000Y-132370000D03*
X77900000Y-132370000D03*
X77900000Y-129830000D03*
X80440000Y-129830000D03*
X75360000Y-132370000D03*
X67740000Y-129830000D03*
X70280000Y-129830000D03*
X72820000Y-129830000D03*
X70280000Y-132370000D03*
X67740000Y-132370000D03*
X72820000Y-132370000D03*
X80440000Y-137450000D03*
X77900000Y-137450000D03*
X75360000Y-137450000D03*
X80440000Y-134910000D03*
X75360000Y-134910000D03*
X77900000Y-134910000D03*
X138860000Y-147610000D03*
X138860000Y-145070000D03*
X138860000Y-142530000D03*
X138860000Y-139990000D03*
X136320000Y-145070000D03*
X136320000Y-147610000D03*
X136320000Y-139990000D03*
X136320000Y-142530000D03*
X123620000Y-139990000D03*
X121080000Y-139990000D03*
X121080000Y-145070000D03*
X121080000Y-142530000D03*
X131240000Y-139990000D03*
X128700000Y-142530000D03*
X126160000Y-139990000D03*
X128700000Y-139990000D03*
X126160000Y-142530000D03*
X131240000Y-145070000D03*
X131240000Y-142530000D03*
X128700000Y-147610000D03*
X126160000Y-147610000D03*
X126160000Y-145070000D03*
X131240000Y-147610000D03*
X128700000Y-145070000D03*
X133780000Y-147610000D03*
X133780000Y-145070000D03*
X133780000Y-139990000D03*
X133780000Y-142530000D03*
X121080000Y-147610000D03*
X123620000Y-147610000D03*
X123620000Y-142530000D03*
X123620000Y-145070000D03*
X105840000Y-139990000D03*
X108380000Y-139990000D03*
X108380000Y-147610000D03*
X105840000Y-147610000D03*
X105840000Y-142530000D03*
X108380000Y-145070000D03*
X105840000Y-145070000D03*
X108380000Y-142530000D03*
X110920000Y-145070000D03*
X113460000Y-145070000D03*
X116000000Y-145070000D03*
X116000000Y-147610000D03*
X113460000Y-147610000D03*
X110920000Y-147610000D03*
X118540000Y-139990000D03*
X118540000Y-147610000D03*
X118540000Y-142530000D03*
X118540000Y-145070000D03*
X110920000Y-139990000D03*
X116000000Y-142530000D03*
X116000000Y-139990000D03*
X113460000Y-139990000D03*
X113460000Y-142530000D03*
X110920000Y-142530000D03*
X90600000Y-145070000D03*
X90600000Y-147610000D03*
X90600000Y-142530000D03*
X90600000Y-139990000D03*
X98220000Y-145070000D03*
X100760000Y-145070000D03*
X103300000Y-147610000D03*
X103300000Y-145070000D03*
X100760000Y-147610000D03*
X98220000Y-147610000D03*
X93140000Y-139990000D03*
X93140000Y-145070000D03*
X95680000Y-145070000D03*
X93140000Y-147610000D03*
X95680000Y-147610000D03*
X93140000Y-142530000D03*
X95680000Y-139990000D03*
X98220000Y-139990000D03*
X98220000Y-142530000D03*
X100760000Y-139990000D03*
X103300000Y-142530000D03*
X103300000Y-139990000D03*
X95680000Y-142530000D03*
X100760000Y-142530000D03*
X88060000Y-147610000D03*
X88060000Y-145070000D03*
X88060000Y-142530000D03*
X85520000Y-142530000D03*
X85520000Y-145070000D03*
X85520000Y-147610000D03*
X88060000Y-139990000D03*
X85520000Y-139990000D03*
X82980000Y-147610000D03*
X82980000Y-145070000D03*
X82980000Y-142530000D03*
X80440000Y-142530000D03*
X80440000Y-145070000D03*
X80440000Y-147610000D03*
X82980000Y-139990000D03*
X80440000Y-139990000D03*
X77900000Y-147610000D03*
X77900000Y-145070000D03*
X77900000Y-142530000D03*
X75360000Y-142530000D03*
X75360000Y-145070000D03*
X75360000Y-147610000D03*
X77900000Y-139990000D03*
X75360000Y-139990000D03*
X72820000Y-147610000D03*
X72820000Y-145070000D03*
X72820000Y-142530000D03*
X70280000Y-142530000D03*
X70280000Y-145070000D03*
X70280000Y-147610000D03*
X72820000Y-139990000D03*
X70280000Y-139990000D03*
X67740000Y-147610000D03*
X67740000Y-145070000D03*
X67740000Y-142530000D03*
X65200000Y-142530000D03*
X65200000Y-145070000D03*
X65200000Y-147610000D03*
X67740000Y-139990000D03*
X65200000Y-139990000D03*
X62660000Y-147610000D03*
X62660000Y-145070000D03*
X62660000Y-142530000D03*
X62660000Y-139990000D03*
X60120000Y-139990000D03*
X60120000Y-142530000D03*
X60120000Y-145070000D03*
D12*
X145000000Y-145000000D03*
X55000000Y-145000000D03*
X55000000Y-55000000D03*
D13*
X95990000Y-61950000D03*
X97890000Y-61950000D03*
X101700000Y-61950000D03*
X99800000Y-61950000D03*
D14*
X89000000Y-57500000D03*
D15*
X89000000Y-55000000D03*
D16*
X119300000Y-61500000D03*
X121500000Y-61500000D03*
D17*
X122950000Y-78190000D03*
D18*
X122950000Y-80730000D03*
X122950000Y-83270000D03*
D19*
X105170000Y-61680000D03*
X107710000Y-61680000D03*
X110250000Y-61680000D03*
X112790000Y-61680000D03*
X105170000Y-51520000D03*
X115330000Y-61680000D03*
X115330000Y-51520000D03*
D11*
X110250000Y-64220000D03*
X112790000Y-64220000D03*
X84850000Y-86445000D03*
X87390000Y-86445000D03*
X89930000Y-86445000D03*
X111520000Y-86445000D03*
X108980000Y-86445000D03*
X106440000Y-86445000D03*
D20*
X122950000Y-65490000D03*
D21*
X122950000Y-68030000D03*
X122950000Y-70570000D03*
D16*
X84900000Y-82000000D03*
X87100000Y-82000000D03*
X84900000Y-80500000D03*
X87100000Y-80500000D03*
X87100000Y-79000000D03*
X84900000Y-79000000D03*
X84900000Y-73000000D03*
X87100000Y-73000000D03*
D22*
X110500000Y-73400000D03*
X110500000Y-75600000D03*
D16*
X113890000Y-68030000D03*
X111690000Y-68030000D03*
D22*
X120410000Y-70400000D03*
X120410000Y-68200000D03*
D16*
X119300000Y-59500000D03*
X121500000Y-59500000D03*
D19*
X117870000Y-82000000D03*
X117870000Y-74380000D03*
X117870000Y-71840000D03*
X112790000Y-71840000D03*
X112790000Y-74380000D03*
X112790000Y-82000000D03*
X82310000Y-78190000D03*
X77230000Y-78190000D03*
X82310000Y-85810000D03*
X77230000Y-85810000D03*
X82310000Y-66760000D03*
X77230000Y-66760000D03*
X82310000Y-74380000D03*
X77230000Y-74380000D03*
D23*
X89820000Y-71330000D03*
X89820000Y-72830000D03*
X89820000Y-74330000D03*
X89820000Y-75830000D03*
X89820000Y-77330000D03*
X89820000Y-78830000D03*
X89820000Y-80330000D03*
X89820000Y-81830000D03*
X89820000Y-83330000D03*
X107740000Y-83330000D03*
X107740000Y-81830000D03*
X107740000Y-80330000D03*
X107740000Y-78830000D03*
X107740000Y-77330000D03*
X107740000Y-75830000D03*
X107740000Y-74330000D03*
X107740000Y-72830000D03*
X107740000Y-71330000D03*
D24*
X96880000Y-59800000D03*
X99160000Y-59800000D03*
X101440000Y-59800000D03*
D25*
X99160000Y-53500000D03*
D11*
X116600000Y-86445000D03*
X119140000Y-86445000D03*
X114060000Y-86445000D03*
D12*
X145000000Y-55000000D03*
D11*
X95645000Y-86445000D03*
X101360000Y-86445000D03*
X60120000Y-147610000D03*
M02*
